<svg width="12" height="20" viewBox="0 0 12 20" fill="none" xmlns="http://www.w3.org/2000/svg">
<path d="M0.801284 9.57479L9.89329 0.507934C10.1912 0.211043 10.6735 0.211542 10.9709 0.50947C11.268 0.807359 11.2672 1.28992 10.9693 1.58704L2.4185 10.1143L10.9696 18.6414C11.2675 18.9386 11.2683 19.4208 10.9712 19.7188C10.9004 19.7899 10.8163 19.8463 10.7237 19.8847C10.6311 19.9231 10.5318 19.9429 10.4315 19.9428C10.3316 19.9429 10.2326 19.9233 10.1402 19.8851C10.0479 19.847 9.96399 19.7909 9.89333 19.7203L0.801284 10.6537C0.65781 10.5109 0.5773 10.3167 0.5773 10.1143C0.5773 9.91184 0.658041 9.71781 0.801284 9.57479Z" fill="#231F20"/>
</svg>
