<svg width="51" height="50" viewBox="0 0 51 50" fill="none" xmlns="http://www.w3.org/2000/svg">
<path d="M7.79526 34.7541C7.73931 34.6528 7.6639 34.5634 7.57343 34.4912C7.48296 34.419 7.37916 34.3653 7.26796 34.3332C7.15675 34.3011 7.04031 34.2913 6.92529 34.3042C6.81028 34.3171 6.69893 34.3526 6.59761 34.4085C6.49629 34.4645 6.40699 34.5398 6.3348 34.6303C6.2626 34.7208 6.20894 34.8246 6.17686 34.9358C6.11212 35.1602 6.13913 35.4012 6.25195 35.6057C14.4227 50.6752 36.5805 50.6712 44.7479 35.6055L44.7487 35.604C44.855 35.4 44.8773 35.1626 44.8109 34.9424C44.7445 34.7222 44.5947 34.5367 44.3934 34.4255C44.1921 34.3143 43.9553 34.2862 43.7335 34.3471C43.5118 34.4081 43.3227 34.5533 43.2065 34.7518L43.2052 34.7541C41.4596 37.9219 38.896 40.5634 35.7818 42.403C32.6676 44.2427 29.1168 45.2131 25.4999 45.2131C21.8829 45.2131 18.3321 44.2427 15.2179 42.403C12.1037 40.5634 9.54091 37.9219 7.79526 34.7541ZM41.0061 12.0601V12.0034C41.1315 12.0882 41.2778 12.1401 41.4313 12.152C41.6643 12.1702 41.895 12.0951 42.0727 11.9432C42.2503 11.7912 42.3603 11.575 42.3785 11.342C42.3966 11.1092 42.3217 10.8788 42.1702 10.7013C33.7714 0.535524 17.2266 0.536524 8.82901 10.7035C8.68363 10.8819 8.6134 11.1106 8.63408 11.3398C8.65475 11.569 8.76428 11.7811 8.93923 11.9306C9.11419 12.0801 9.3407 12.1553 9.57033 12.14C9.79997 12.1247 10.0145 12.0201 10.1681 11.8487L10.1707 11.8457C17.8916 2.49959 33.1089 2.50113 40.829 11.8457L41.0061 12.0601Z" fill="#231F20" stroke="#231F20" stroke-width="0.2"/>
<path d="M34.7251 12.5202C34.9127 12.6594 35.148 12.7184 35.3791 12.6842C35.6103 12.65 35.8185 12.5254 35.9578 12.3377C36.0971 12.15 36.1561 11.9147 36.1219 11.6835C36.0877 11.4523 35.963 11.2441 35.7753 11.1048C32.7992 8.90987 29.1981 7.72544 25.5001 7.72544C21.8021 7.72544 18.2013 8.90967 15.2251 11.1046C15.0374 11.2439 14.9126 11.4523 14.8784 11.6835C14.8441 11.9147 14.9032 12.15 15.0425 12.3377C15.1818 12.5254 15.3899 12.65 15.6211 12.6842C15.8523 12.7184 16.0877 12.6594 16.2753 12.5201C18.9475 10.5498 22.1801 9.48701 25.5001 9.48701C28.8201 9.48701 32.0529 10.55 34.7251 12.5202ZM25.5001 42.1875C28.0921 42.1927 30.6513 41.6082 32.984 40.4781C35.3167 39.3481 37.3617 37.7021 38.9642 35.6648C39.0929 35.5024 39.1517 35.2955 39.1278 35.0896C39.104 34.8838 38.9993 34.6958 38.8368 34.5671C38.6744 34.4385 38.4675 34.3796 38.2616 34.4035C38.0558 34.4274 37.8679 34.532 37.7392 34.6945C31.747 42.5515 19.2525 42.5507 13.2611 34.6945C13.1324 34.532 12.9445 34.4274 12.7386 34.4035C12.5328 34.3796 12.3258 34.4385 12.1634 34.5671C12.001 34.6958 11.8963 34.8838 11.8724 35.0896C11.8485 35.2955 11.9074 35.5024 12.0361 35.6648C13.6385 37.7021 15.6835 39.3481 18.0162 40.4781C20.3489 41.6082 22.9081 42.1927 25.5001 42.1875Z" fill="#231F20"/>
<path d="M34.7251 12.5202C34.9127 12.6594 35.148 12.7184 35.3791 12.6842C35.6103 12.65 35.8185 12.5254 35.9578 12.3377C36.0971 12.15 36.1561 11.9147 36.1219 11.6835C36.0877 11.4523 35.963 11.2441 35.7753 11.1048C32.7992 8.90987 29.1981 7.72544 25.5001 7.72544C21.8021 7.72544 18.2013 8.90967 15.2251 11.1046C15.0374 11.2439 14.9126 11.4523 14.8784 11.6835C14.8441 11.9147 14.9032 12.15 15.0425 12.3377C15.1818 12.5254 15.3899 12.65 15.6211 12.6842C15.8523 12.7184 16.0877 12.6594 16.2753 12.5201M34.7251 12.5202C32.0529 10.55 28.8201 9.48701 25.5001 9.48701C22.1801 9.48701 18.9475 10.5498 16.2753 12.5201M34.7251 12.5202L34.7845 12.4398M16.2753 12.5201L16.2157 12.4398M25.5001 42.1875L25.5003 42.2875M25.5001 42.1875C28.0921 42.1927 30.6513 41.6082 32.984 40.4781C35.3167 39.3481 37.3617 37.7021 38.9642 35.6648C39.0929 35.5024 39.1517 35.2955 39.1278 35.0896C39.104 34.8838 38.9993 34.6958 38.8368 34.5671C38.6744 34.4385 38.4675 34.3796 38.2616 34.4035C38.0558 34.4274 37.8679 34.532 37.7392 34.6945C31.747 42.5515 19.2525 42.5507 13.2611 34.6945C13.1324 34.532 12.9445 34.4274 12.7386 34.4035C12.5328 34.3796 12.3258 34.4385 12.1634 34.5671C12.001 34.6958 11.8963 34.8838 11.8724 35.0896C11.8485 35.2955 11.9074 35.5024 12.0361 35.6648C13.6385 37.7021 15.6835 39.3481 18.0162 40.4781C20.3489 41.6082 22.9081 42.1927 25.5001 42.1875Z" stroke="#231F20" stroke-width="0.2"/>
<path d="M16.2398 32.0591L16.2428 31.5562H15.7399H7.04908C6.54574 31.5499 6.0524 31.4147 5.61616 31.1634C5.17911 30.9117 4.81402 30.5519 4.55588 30.1186C4.29774 29.6853 4.15519 29.193 4.14189 28.6888C4.12862 28.1854 4.24461 27.6871 4.47877 27.2414C5.48778 25.3737 7.15756 23.9498 9.16128 23.2485L10.0323 22.9436L9.30124 22.3805C8.76874 21.9702 8.33742 21.4433 8.04046 20.8403C7.74481 20.2399 7.59018 19.58 7.58831 18.9109C7.80261 13.0751 16.1874 13.0752 16.3984 18.9107C16.3965 19.5801 16.2417 20.2403 15.9458 20.8408C15.6486 21.444 15.2169 21.971 14.6841 22.3811L13.9554 22.942L14.8223 23.2487C16.6298 23.8882 18.1693 25.1176 19.1928 26.7388L19.4674 27.1737L19.8944 26.8869C20.6667 26.3682 21.5075 25.9594 22.3925 25.6725L23.3446 25.3638L22.526 24.7879C21.8499 24.3124 21.2981 23.6813 20.917 22.948C20.5372 22.2172 20.338 21.4062 20.336 20.5828C20.587 13.744 30.4128 13.7422 30.6641 20.5828C30.662 21.4062 30.4628 22.2172 30.083 22.948C29.7019 23.6813 29.1501 24.3124 28.4741 24.7879L27.6556 25.3636L28.6074 25.6725C29.4922 25.9595 30.3327 26.3682 31.1048 26.8869L31.5324 27.1741L31.8068 26.7382C32.8283 25.1153 34.3684 23.8854 36.1771 23.2481L37.0457 22.9421L36.3159 22.3803C35.7831 21.9702 35.3514 21.4432 35.0542 20.8401C34.7583 20.2396 34.6035 19.5795 34.6016 18.9102C34.819 13.0742 43.1936 13.0721 43.4117 18.9103C43.4099 19.5795 43.2553 20.2395 42.9597 20.84C42.6628 21.4432 42.2314 21.9702 41.6988 22.3805L40.9677 22.9437L41.8388 23.2485C43.8424 23.9497 45.5122 25.3735 46.5211 27.2412C46.7554 27.687 46.8714 28.1854 46.8581 28.6888C46.8448 29.193 46.7023 29.6853 46.4441 30.1186C46.186 30.5519 45.8209 30.9117 45.3839 31.1634C44.9476 31.4147 44.4543 31.5499 43.9509 31.5562H35.2602H34.755L34.7602 32.0613C34.7648 32.5115 34.6801 32.9582 34.5111 33.3755C34.3421 33.7928 34.092 34.1725 33.7754 34.4925C33.4588 34.8126 33.0819 35.0668 32.6665 35.2404C32.251 35.414 31.8053 35.5036 31.3551 35.5039H19.6457C19.1962 35.5014 18.7516 35.4104 18.3373 35.2362C17.9225 35.0618 17.5462 34.8074 17.2297 34.4875C16.9133 34.1676 16.663 33.7885 16.4932 33.3718C16.3233 32.9551 16.2372 32.5091 16.2398 32.0591ZM35.1641 18.8939L35.164 18.9016L35.1641 18.9092C35.1796 19.9181 35.5912 20.8805 36.3101 21.5885C37.029 22.2966 37.9976 22.6934 39.0066 22.6934C40.0157 22.6934 40.9843 22.2966 41.7032 21.5885C42.4221 20.8805 42.8337 19.9181 42.8492 18.9092L42.8493 18.9016L42.8492 18.8939C42.8337 17.885 42.4221 16.9226 41.7032 16.2146C40.9843 15.5065 40.0157 15.1097 39.0066 15.1097C37.9976 15.1097 37.029 15.5065 36.3101 16.2146C35.5912 16.9226 35.1796 17.885 35.1641 18.8939ZM39.0004 23.307H38.999C37.6265 23.312 36.2785 23.6711 35.0855 24.3497C33.8925 25.0282 32.8949 26.0033 32.1891 27.1804L31.9778 27.5329L32.2828 27.8085C33.1892 28.6276 33.9296 29.6134 34.4636 30.7123L34.6003 30.9937H34.9133L43.9539 30.9938L43.9604 30.9937C44.3667 30.9884 44.7647 30.8789 45.1165 30.6757C45.4683 30.4725 45.7621 30.1824 45.9696 29.8332C46.1772 29.484 46.2917 29.0873 46.3021 28.6812C46.3125 28.2751 46.2185 27.8731 46.029 27.5137L46.0275 27.5108C45.3466 26.2395 44.3332 25.177 43.0956 24.4366C41.858 23.6962 40.4425 23.3058 39.0004 23.307ZM20.8995 20.5584L20.899 20.5742L20.8995 20.59C21.091 26.6555 29.9082 26.6555 30.1005 20.5901L30.101 20.5742L30.1005 20.5584C29.9091 14.4947 21.0918 14.4918 20.8995 20.5584ZM31.3555 34.9414H31.3615C31.8522 34.9355 32.3332 34.8036 32.7584 34.5584C33.1835 34.3131 33.5384 33.9627 33.7892 33.5408C34.04 33.1189 34.1781 32.6397 34.1904 32.1491C34.2026 31.6588 34.0888 31.1737 33.8598 30.7401C30.3994 24.1177 20.6038 24.1164 17.1405 30.738C16.9069 31.1709 16.7893 31.6569 16.7992 32.1488C16.8092 32.6419 16.9469 33.124 17.199 33.548C17.4511 33.9719 17.8088 34.3232 18.2374 34.5674C18.6659 34.8117 19.1504 34.9405 19.6437 34.9414H31.3555ZM8.15085 18.8947L8.15073 18.9023L8.15085 18.91C8.16627 19.9189 8.57789 20.8813 9.29683 21.5893C10.0158 22.2973 10.9843 22.6942 11.9934 22.6942C13.0024 22.6942 13.971 22.2973 14.6899 21.5893C15.4088 20.8813 15.8205 19.9189 15.8359 18.91L15.836 18.9023L15.8359 18.8947C15.8205 17.8858 15.4088 16.9234 14.6899 16.2154C13.971 15.5073 13.0024 15.1105 11.9934 15.1105C10.9843 15.1105 10.0158 15.5073 9.29683 16.2154C8.5779 16.9234 8.16627 17.8858 8.15085 18.8947ZM11.9881 23.307H11.9863C10.5465 23.3084 9.13403 23.7 7.89914 24.4402C6.66424 25.1805 5.65311 26.2416 4.97331 27.5108L4.97176 27.5137C4.78232 27.8731 4.6883 28.2751 4.6987 28.6812C4.7091 29.0873 4.82357 29.484 5.03115 29.8332C5.23873 30.1824 5.53248 30.4725 5.88428 30.6757C6.23607 30.8789 6.63413 30.9884 7.04035 30.9937H7.04688H16.0867H16.3996L16.5364 30.7124C17.0705 29.6138 17.8109 28.6282 18.7172 27.8093L19.0225 27.5335L18.8107 27.1809C18.1031 26.0025 17.1033 25.0268 15.908 24.3482C14.7128 23.6695 13.3626 23.3109 11.9881 23.307Z" fill="#BD3A4A" stroke="#BD3A4A"/>
</svg>
