<svg width="51" height="50" viewBox="0 0 51 50" fill="none" xmlns="http://www.w3.org/2000/svg">
<path d="M42.8631 10.3777L33.4468 1.46934C32.4452 0.521777 31.1343 0 29.7556 0H11.8281C8.8665 0 6.45703 2.40947 6.45703 5.37109V44.6289C6.45703 47.5905 8.8665 50 11.8281 50H39.1719C42.1335 50 44.543 47.5905 44.543 44.6289V14.2795C44.543 12.8099 43.9307 11.3877 42.8631 10.3777ZM40.0177 11.7188H32.7266C32.4573 11.7188 32.2383 11.4997 32.2383 11.2305V4.35898L40.0177 11.7188ZM39.1719 47.0703H11.8281C10.4819 47.0703 9.38672 45.9751 9.38672 44.6289V5.37109C9.38672 4.0249 10.4819 2.92969 11.8281 2.92969H29.3086V11.2305C29.3086 13.1151 30.8419 14.6484 32.7266 14.6484H41.6133V44.6289C41.6133 45.9751 40.5181 47.0703 39.1719 47.0703Z" fill="#231F20"/>
<path d="M35.9492 19.5312H14.4648C13.6559 19.5312 13 20.1871 13 20.9961C13 21.8051 13.6559 22.4609 14.4648 22.4609H35.9492C36.7582 22.4609 37.4141 21.8051 37.4141 20.9961C37.4141 20.1871 36.7582 19.5312 35.9492 19.5312ZM35.9492 27.3438H14.4648C13.6559 27.3438 13 27.9996 13 28.8086C13 29.6176 13.6559 30.2734 14.4648 30.2734H35.9492C36.7582 30.2734 37.4141 29.6176 37.4141 28.8086C37.4141 27.9996 36.7582 27.3438 35.9492 27.3438ZM21.5664 35.1562H14.4648C13.6559 35.1562 13 35.8121 13 36.6211C13 37.4301 13.6559 38.0859 14.4648 38.0859H21.5664C22.3754 38.0859 23.0312 37.4301 23.0312 36.6211C23.0312 35.8121 22.3754 35.1562 21.5664 35.1562Z" fill="#BD3A4A"/>
<rect x="17" width="7" height="3" rx="1.5" fill="#F6F4F1"/>
</svg>
