<svg width="51" height="50" viewBox="0 0 51 50" fill="none" xmlns="http://www.w3.org/2000/svg">
<path d="M45.5556 4.94444C44.1658 3.55763 42.2829 2.77847 40.3195 2.77777H10.6806C8.71727 2.77777 6.83435 3.5577 5.44606 4.94599C4.05777 6.33428 3.27783 8.21721 3.27783 10.1805V39.8194C3.27783 41.7828 4.05777 43.6657 5.44606 45.054C6.83435 46.4423 8.71727 47.2222 10.6806 47.2222H40.3195C42.2828 47.2222 44.1658 46.4423 45.5541 45.054C46.9423 43.6657 47.7223 41.7828 47.7223 39.8194V10.1805C47.7216 8.2172 46.9424 6.33423 45.5556 4.94444ZM7.54172 7.04166C7.9532 6.62811 8.44231 6.29989 8.98096 6.07585C9.51962 5.8518 10.0972 5.73635 10.6806 5.7361H40.3195C41.4971 5.73977 42.6255 6.2092 43.4582 7.0419C44.2909 7.8746 44.7603 9.00294 44.7639 10.1805V14.625H6.23617V10.1805C6.2397 9.00289 6.70905 7.87446 7.54172 7.04166ZM43.4584 42.9583C43.0469 43.3719 42.5578 43.7001 42.0191 43.9241C41.4805 44.1482 40.9029 44.2636 40.3195 44.2639H10.6806C9.503 44.2602 8.37466 43.7908 7.54196 42.9581C6.70926 42.1254 6.23983 40.9971 6.23617 39.8194V17.5972H44.7639V39.8194C44.7604 40.9971 44.2911 42.1255 43.4584 42.9583Z" fill="#231F20"/>
<rect x="48" y="19" width="7" height="4" rx="2" transform="rotate(90 48 19)" fill="#F6F4F1"/>
<path d="M38.8334 11.6667C39.1273 11.6667 39.4146 11.5795 39.659 11.4162C39.9034 11.2529 40.0939 11.0208 40.2064 10.7493C40.3189 10.4777 40.3483 10.1789 40.2909 9.89064C40.2336 9.60237 40.0921 9.33757 39.8842 9.12973C39.6764 8.92189 39.4116 8.78036 39.1233 8.72301C38.835 8.66567 38.5362 8.6951 38.2647 8.80758C37.9931 8.92006 37.761 9.11054 37.5977 9.35493C37.4344 9.59932 37.3473 9.88665 37.3473 10.1806C37.3473 10.5747 37.5038 10.9527 37.7825 11.2314C38.0612 11.5101 38.4392 11.6667 38.8334 11.6667ZM32.9028 11.6667C33.1091 11.6867 33.3173 11.6633 33.514 11.5981C33.7108 11.5329 33.8917 11.4272 34.0451 11.2879C34.1986 11.1486 34.3212 10.9788 34.4052 10.7893C34.4891 10.5997 34.5324 10.3948 34.5324 10.1875C34.5324 9.98026 34.4891 9.77529 34.4052 9.58578C34.3212 9.39627 34.1986 9.22641 34.0451 9.08711C33.8917 8.94781 33.7108 8.84215 33.514 8.77692C33.3173 8.71169 33.1091 8.68833 32.9028 8.70835C32.5353 8.74401 32.1941 8.91525 31.9459 9.1887C31.6977 9.46215 31.5602 9.81822 31.5602 10.1875C31.5602 10.5568 31.6977 10.9129 31.9459 11.1863C32.1941 11.4598 32.5353 11.631 32.9028 11.6667ZM12.1667 11.6667H18.0973C18.4648 11.631 18.806 11.4598 19.0542 11.1863C19.3024 10.9129 19.4399 10.5568 19.4399 10.1875C19.4399 9.81822 19.3024 9.46215 19.0542 9.1887C18.806 8.91525 18.4648 8.74401 18.0973 8.70835H12.1667C11.9604 8.68833 11.7522 8.71169 11.5555 8.77692C11.3588 8.84215 11.1779 8.94781 11.0244 9.08711C10.8709 9.22641 10.7483 9.39627 10.6644 9.58578C10.5805 9.77529 10.5371 9.98026 10.5371 10.1875C10.5371 10.3948 10.5805 10.5997 10.6644 10.7893C10.7483 10.9788 10.8709 11.1486 11.0244 11.2879C11.1779 11.4272 11.3588 11.5329 11.5555 11.5981C11.7522 11.6633 11.9604 11.6867 12.1667 11.6667ZM24.5695 35.0417C24.8323 35.256 25.161 35.3731 25.5001 35.3731C25.8391 35.3731 26.1678 35.256 26.4306 35.0417L30.1251 32.0833C30.2928 31.9677 30.4351 31.8188 30.5429 31.6458C30.6507 31.4728 30.7217 31.2796 30.7516 31.078C30.7816 30.8764 30.7697 30.6708 30.7168 30.474C30.6639 30.2772 30.5711 30.0933 30.4441 29.9339C30.3172 29.7745 30.1588 29.6429 29.9788 29.5473C29.7988 29.4517 29.6011 29.3941 29.3979 29.3782C29.1948 29.3622 28.9905 29.3883 28.7978 29.4546C28.6051 29.521 28.4281 29.6262 28.2778 29.7639L26.9862 30.8056V23.5139C26.9862 23.1198 26.8296 22.7418 26.5509 22.4631C26.2722 22.1844 25.8942 22.0278 25.5001 22.0278C25.1059 22.0278 24.7279 22.1844 24.4492 22.4631C24.1705 22.7418 24.0139 23.1198 24.0139 23.5139V30.8056L22.7223 29.7639C22.572 29.6262 22.395 29.521 22.2023 29.4546C22.0096 29.3883 21.8053 29.3622 21.6022 29.3782C21.399 29.3941 21.2013 29.4517 21.0213 29.5473C20.8413 29.6429 20.6829 29.7745 20.556 29.9339C20.429 30.0933 20.3362 30.2772 20.2833 30.474C20.2304 30.6708 20.2185 30.8764 20.2485 31.078C20.2784 31.2796 20.3495 31.4728 20.4572 31.6458C20.565 31.8188 20.7073 31.9677 20.8751 32.0833L24.5695 35.0417ZM31.4306 36.8472H19.5695C19.1754 36.8472 18.7974 37.0038 18.5187 37.2825C18.24 37.5612 18.0834 37.9392 18.0834 38.3333C18.0834 38.7275 18.24 39.1055 18.5187 39.3842C18.7974 39.6629 19.1754 39.8195 19.5695 39.8195H31.4306C31.8247 39.8195 32.2027 39.6629 32.4814 39.3842C32.7601 39.1055 32.9167 38.7275 32.9167 38.3333C32.9167 37.9392 32.7601 37.5612 32.4814 37.2825C32.2027 37.0038 31.8247 36.8472 31.4306 36.8472Z" fill="#BD3A4A"/>
</svg>
