<svg width="531" height="104" viewBox="0 0 531 104" fill="none" xmlns="http://www.w3.org/2000/svg">
<path d="M288.103 82.9986H304.706V85.5294H297.787V102.902H294.922V85.5294H288.103V82.9986Z" fill="#BD3A4A"/>
<path d="M318.168 82.7312C319.576 82.6884 320.979 82.9241 322.295 83.4248C323.612 83.9255 324.817 84.6813 325.841 85.6488C326.839 86.5833 327.627 87.7183 328.154 88.9791C328.682 90.2399 328.937 91.5981 328.902 92.9644C328.937 94.3276 328.679 95.6825 328.146 96.9378C327.613 98.193 326.817 99.3196 325.813 100.242C323.75 102.152 321.15 103.107 318.015 103.107C316.639 103.15 315.268 102.919 313.983 102.427C312.697 101.935 311.523 101.192 310.527 100.242C309.55 99.3144 308.779 98.192 308.263 96.9474C307.747 95.7028 307.498 94.3637 307.533 93.0169C307.493 91.6464 307.741 90.2828 308.26 89.0138C308.779 87.7447 309.558 86.5985 310.546 85.6488C311.558 84.6787 312.753 83.9208 314.062 83.4197C315.371 82.9187 316.767 82.6845 318.168 82.7312ZM318.282 85.4339C317.253 85.3969 316.226 85.5667 315.263 85.9334C314.3 86.3 313.42 86.856 312.676 87.5684C311.951 88.2737 311.381 89.1226 311.003 90.0608C310.625 90.999 310.446 92.0059 310.48 93.0169C310.454 94.0132 310.636 95.0039 311.015 95.9256C311.395 96.8474 311.962 97.6799 312.681 98.3699C314.196 99.751 316.174 100.513 318.224 100.505C320.274 100.497 322.246 99.7197 323.75 98.3269C324.472 97.6265 325.041 96.7843 325.421 95.8531C325.802 94.922 325.986 93.9222 325.961 92.9166C325.981 91.9246 325.793 90.9393 325.41 90.0241C325.027 89.1088 324.456 88.2838 323.735 87.6018C323.016 86.8969 322.163 86.3429 321.227 85.9722C320.29 85.6016 319.289 85.4218 318.282 85.4435V85.4339Z" fill="#BD3A4A"/>
<path d="M340.993 82.9986H357.596V85.5294H350.667V102.902H347.802V85.5294H340.993V82.9986Z" fill="#BD3A4A"/>
<path d="M377.213 83.0273H380.078V102.902H377.213V94.2537H366.044V102.902H363.178V83.0273H366.044V91.6226H377.213V83.0273Z" fill="#BD3A4A"/>
<path d="M387.355 83.0273H398.625V85.5581H390.201V91.6226H398.319V94.1917H390.201V100.366H398.892V102.897H387.355V83.0273Z" fill="#BD3A4A"/>
<path d="M415.691 102.902V82.9986H421.994C423.904 82.9986 425.416 83.5111 426.531 84.5362C427.097 85.0586 427.542 85.6986 427.835 86.4113C428.128 87.1241 428.261 87.8922 428.226 88.662C428.245 89.7487 427.943 90.8169 427.357 91.7324C426.788 92.6181 425.952 93.2991 424.969 93.6759C423.578 94.1406 422.113 94.3461 420.648 94.2824H418.551V102.902H415.691ZM421.493 85.5294H418.551V91.7372H421.665C422.626 91.8007 423.577 91.5102 424.339 90.9206C424.662 90.6261 424.915 90.2633 425.08 89.8585C425.246 89.4537 425.319 89.0173 425.294 88.5808C425.287 86.5497 424.02 85.5326 421.493 85.5294Z" fill="#BD3A4A"/>
<path d="M443.368 82.7312C444.775 82.6885 446.177 82.9243 447.494 83.425C448.81 83.9257 450.014 84.6814 451.037 85.6488C452.036 86.5823 452.826 87.717 453.354 88.978C453.882 90.2389 454.138 91.5976 454.103 92.9644C454.136 94.328 453.878 95.6831 453.344 96.9384C452.81 98.1937 452.014 99.3201 451.008 100.242C448.945 102.152 446.346 103.107 443.21 103.107C441.835 103.15 440.464 102.919 439.179 102.427C437.893 101.935 436.719 101.192 435.723 100.242C434.746 99.3141 433.976 98.1916 433.461 96.947C432.946 95.7024 432.698 94.3634 432.734 93.0169C432.694 91.6464 432.941 90.2828 433.46 89.0138C433.979 87.7447 434.758 86.5985 435.747 85.6488C436.758 84.6787 437.954 83.9208 439.263 83.4197C440.571 82.9187 441.967 82.6845 443.368 82.7312ZM443.483 85.4339C442.452 85.3968 441.425 85.5666 440.461 85.9332C439.497 86.2998 438.617 86.8558 437.872 87.5684C437.148 88.2744 436.578 89.1235 436.2 90.0615C435.822 90.9995 435.643 92.006 435.675 93.0169C435.65 94.0136 435.833 95.0045 436.213 95.9262C436.593 96.848 437.161 97.6803 437.881 98.3699C439.395 99.7506 441.373 100.512 443.422 100.504C445.471 100.497 447.442 99.7194 448.945 98.3269C449.672 97.6274 450.245 96.7842 450.628 95.8511C451.011 94.9181 451.196 93.9154 451.171 92.9071C451.192 91.9149 451.005 90.9293 450.621 90.0138C450.238 89.0984 449.667 88.2735 448.945 87.5923C448.224 86.8875 447.37 86.3342 446.431 85.9652C445.493 85.5961 444.491 85.4187 443.483 85.4435V85.4339Z" fill="#BD3A4A"/>
<path d="M460.544 83.0273H463.41V102.902H460.544V83.0273Z" fill="#BD3A4A"/>
<path d="M486.507 83.0273H489.21V102.902H486.765L473.475 87.5971V102.902H470.801V83.0273H473.103L486.507 98.4893V83.0273Z" fill="#BD3A4A"/>
<path d="M494.687 82.9986H511.29V85.5294H504.361V102.902H501.496V85.5294H494.682L494.687 82.9986Z" fill="#BD3A4A"/>
<path d="M406.427 61.3575H371.879C365.003 61.2646 358.44 58.468 353.611 53.5729C348.781 48.6777 346.073 42.0779 346.073 35.2014C346.073 28.325 348.781 21.7251 353.611 16.83C358.44 11.9349 365.003 9.13825 371.879 9.04535H406.427V24.3259H371.879C369.03 24.3856 366.318 25.5591 364.324 27.5949C362.331 29.6306 361.214 32.3664 361.214 35.2157C361.214 38.065 362.331 40.8009 364.324 42.8366C366.318 44.8724 369.03 46.0459 371.879 46.1055H406.427V61.3575Z" fill="#231F20"/>
<path d="M168.017 61.3574H133.473V46.0769H168.017C169.466 46.1072 170.907 45.848 172.254 45.3143C173.602 44.7807 174.83 43.9834 175.866 42.9692C176.901 41.955 177.724 40.7442 178.286 39.4079C178.847 38.0716 179.137 36.6366 179.137 35.1871C179.137 33.7375 178.847 32.3025 178.286 30.9662C177.724 29.6299 176.901 28.4191 175.866 27.4049C174.83 26.3907 173.602 25.5934 172.254 25.0598C170.907 24.5261 169.466 24.2669 168.017 24.2973H133.473V9.01667H168.017C171.481 8.96986 174.921 9.61182 178.135 10.9053C181.349 12.1987 184.275 14.1179 186.741 16.5514C189.208 18.9848 191.167 21.8841 192.503 25.0808C193.84 28.2774 194.528 31.7078 194.528 35.1727C194.528 38.6376 193.84 42.068 192.503 45.2647C191.167 48.4614 189.208 51.3606 186.741 53.7941C184.275 56.2275 181.349 58.1467 178.135 59.4402C174.921 60.7336 171.481 61.3756 168.017 61.3288V61.3574Z" fill="#231F20"/>
<path d="M477.893 9.05011V21.394H496.344V60.8799H511.615V21.394H530.061V9.05011H477.893Z" fill="#231F20"/>
<path d="M454.475 9.04535V35.1035C454.415 37.9522 453.242 40.6641 451.206 42.6576C449.17 44.6512 446.434 45.7677 443.585 45.7677C440.736 45.7677 438 44.6512 435.964 42.6576C433.929 40.6641 432.755 37.9522 432.695 35.1035V9.04535H417.415V35.1035C417.508 41.9793 420.304 48.542 425.199 53.3715C430.095 58.2009 436.694 60.9086 443.571 60.9086C450.447 60.9086 457.047 58.2009 461.942 53.3715C466.837 48.542 469.634 41.9793 469.727 35.1035V9.04535H454.475Z" fill="#231F20"/>
<path d="M266.591 9.04535L244.773 9.15518L230.247 23.5142L216.561 9.15518H195.474L222.449 37.4672V61.3575H237.715V37.5962L266.591 9.04535Z" fill="#231F20"/>
<path d="M290.915 60.8083H275.1V9.15515H287.305L318.807 38.7326V9.15515H334.623V60.8083H322.417L290.915 30.3331V60.8083Z" fill="#231F20"/>
<path d="M97.2533 55.3312C103.928 51.4233 108.789 45.036 110.776 37.5606C112.763 30.0852 111.716 22.1275 107.862 15.4209C104.008 8.71433 97.6603 3.8023 90.2013 1.75486C82.7422 -0.292587 74.7762 0.69045 68.0387 4.48983L45.9439 17.187L50.4947 25.238L34.4262 34.5019C33.1103 33.4787 31.4798 32.9445 29.8136 32.9904C28.1474 33.0364 26.5489 33.6598 25.2914 34.7539C24.034 35.8481 23.1956 37.345 22.9198 38.9889C22.6439 40.6328 22.9476 42.3214 23.779 43.7661C24.6104 45.2108 25.9178 46.3218 27.4778 46.9092C29.0377 47.4966 30.7532 47.5239 32.331 46.9864C33.9088 46.4489 35.2509 45.38 36.1278 43.9624C37.0047 42.5449 37.362 40.8668 37.1385 39.215L53.1688 29.9893L75.3495 17.2396C78.7151 15.3057 82.7111 14.788 86.4584 15.8004C90.2057 16.8128 93.3974 19.2723 95.3313 22.6379C97.2651 26.0035 97.7828 29.9995 96.7704 33.7468C95.7581 37.4941 93.2985 40.6858 89.9329 42.6197L67.566 55.4697L74.786 68.2385L97.2533 55.3312ZM32.6737 41.7697C32.4285 42.175 32.0939 42.5188 31.6953 42.7748C31.2967 43.0308 30.8449 43.1922 30.3743 43.2466C29.9037 43.301 29.427 43.247 28.9805 43.0887C28.534 42.9303 28.1297 42.6719 27.7986 42.3332C27.4674 41.9945 27.2181 41.5845 27.0699 41.1346C26.9217 40.6847 26.8784 40.2069 26.9433 39.7377C27.0083 39.2684 27.1798 38.8203 27.4447 38.4276C27.7095 38.0349 28.0608 37.708 28.4715 37.472C28.9179 37.214 29.4221 37.0728 29.9375 37.0613C30.4956 37.0491 31.0467 37.1872 31.5331 37.4611C32.0195 37.7349 32.4234 38.1346 32.7024 38.6181C32.908 38.9701 33.041 39.3599 33.0935 39.7642C33.146 40.1685 33.1169 40.5793 33.008 40.9722C32.9369 41.2532 32.8242 41.522 32.6737 41.7697Z" fill="#BD3A4A"/>
<path d="M61.764 45.1791L77.7848 35.9344C79.1008 36.9588 80.7318 37.4942 82.399 37.4492C84.0661 37.4043 85.6659 36.7816 86.9248 35.6878C88.1837 34.5939 89.0236 33.0968 89.3009 31.4523C89.5782 29.8077 89.2757 28.118 88.4452 26.6718C87.6146 25.2256 86.3075 24.1127 84.7473 23.5235C83.1871 22.9343 81.4707 22.9053 79.8915 23.4414C78.3123 23.9776 76.9683 25.0456 76.0893 26.4629C75.2103 27.8802 74.8509 29.5588 75.0725 31.2117L59.0804 40.4326L36.8949 53.1823C35.2275 54.1844 33.3769 54.8438 31.4516 55.1221C29.5262 55.4004 27.5647 55.2919 25.6818 54.803C23.7988 54.3141 22.0323 53.4547 20.4855 52.2749C18.9387 51.0951 17.6427 49.6187 16.6733 47.9321C15.704 46.2454 15.0807 44.3824 14.8399 42.452C14.5992 40.5216 14.7458 38.5626 15.2713 36.6895C15.7967 34.8165 16.6904 33.067 17.9001 31.5435C19.1097 30.0199 20.6111 28.7529 22.3163 27.8166L44.7023 14.957L37.4584 2.16907L15.015 15.0621C8.27176 18.9355 3.34342 25.3291 1.31417 32.8362C-0.715082 40.3434 0.320984 48.3492 4.19444 55.0924C8.0679 61.8357 14.4615 66.764 21.9686 68.7933C29.4758 70.8225 37.4816 69.7864 44.2248 65.913L66.3148 53.2158L61.764 45.1791ZM79.5612 28.6522C79.8308 28.2108 80.2068 27.8441 80.6547 27.5855C81.1027 27.3269 81.6083 27.1847 82.1254 27.1719C82.817 27.1524 83.4953 27.3645 84.0526 27.7746C84.6098 28.1846 85.0141 28.7691 85.2012 29.4352C85.3883 30.1013 85.3475 30.8108 85.0853 31.451C84.823 32.0913 84.3544 32.6255 83.7538 32.969C83.3105 33.2262 82.8096 33.3674 82.2973 33.3797H82.2687C81.7865 33.39 81.3085 33.2877 80.8728 33.0809C80.4371 32.874 80.0556 32.5683 79.7589 32.1881C79.4621 31.8078 79.2582 31.3636 79.1634 30.8907C79.0685 30.4178 79.0854 29.9293 79.2126 29.464C79.288 29.1777 79.4055 28.9041 79.5612 28.6522Z" fill="#BD3A4A"/>
</svg>
