<svg width="180" height="35" viewBox="0 0 180 35" fill="none" xmlns="http://www.w3.org/2000/svg">
<path d="M97.7887 28.0629H103.43V28.9228H101.079V34.8254H100.106V28.9228H97.7887V28.0629Z" fill="#BD3A4A"/>
<path d="M108.004 27.9721C108.482 27.9575 108.959 28.0376 109.406 28.2078C109.854 28.3779 110.263 28.6347 110.611 28.9634C110.95 29.2809 111.218 29.6666 111.397 30.095C111.576 30.5234 111.663 30.9848 111.651 31.4491C111.663 31.9123 111.575 32.3726 111.394 32.7991C111.213 33.2256 110.943 33.6084 110.601 33.9217C109.901 34.5707 109.017 34.8952 107.952 34.8952C107.484 34.91 107.019 34.8315 106.582 34.6643C106.145 34.4972 105.746 34.2448 105.408 33.9217C105.076 33.6066 104.814 33.2253 104.638 32.8024C104.463 32.3795 104.379 31.9245 104.391 31.4669C104.377 31.0013 104.461 30.5379 104.637 30.1067C104.814 29.6756 105.078 29.2861 105.414 28.9634C105.758 28.6338 106.164 28.3763 106.609 28.206C107.054 28.0358 107.528 27.9562 108.004 27.9721ZM108.043 28.8904C107.693 28.8778 107.344 28.9355 107.017 29.0601C106.69 29.1847 106.391 29.3736 106.138 29.6156C105.892 29.8553 105.698 30.1437 105.569 30.4625C105.441 30.7813 105.38 31.1234 105.392 31.4669C105.383 31.8054 105.445 32.142 105.574 32.4552C105.703 32.7684 105.895 33.0513 106.14 33.2857C106.654 33.755 107.326 34.0139 108.023 34.0112C108.719 34.0085 109.39 33.7443 109.901 33.2711C110.146 33.0331 110.339 32.747 110.469 32.4306C110.598 32.1142 110.66 31.7745 110.652 31.4328C110.659 31.0958 110.595 30.761 110.465 30.45C110.334 30.139 110.141 29.8587 109.896 29.627C109.651 29.3875 109.361 29.1992 109.043 29.0733C108.725 28.9474 108.385 28.8863 108.043 28.8936V28.8904Z" fill="#BD3A4A"/>
<path d="M115.759 28.0629H121.401V28.9228H119.046V34.8254H118.073V28.9228H115.759V28.0629Z" fill="#BD3A4A"/>
<path d="M128.066 28.0727H129.039V34.8254H128.066V31.8871H124.271V34.8254H123.297V28.0727H124.271V30.9931H128.066V28.0727Z" fill="#BD3A4A"/>
<path d="M131.512 28.0727H135.341V28.9326H132.479V30.9931H135.237V31.866H132.479V33.9639H135.432V34.8238H131.512V28.0727Z" fill="#BD3A4A"/>
<path d="M141.14 34.8254V28.0629H143.281C143.93 28.0629 144.444 28.2371 144.823 28.5853C145.015 28.7628 145.167 28.9803 145.266 29.2225C145.366 29.4646 145.411 29.7256 145.399 29.9872C145.405 30.3564 145.303 30.7194 145.103 31.0304C144.91 31.3314 144.626 31.5627 144.292 31.6908C143.82 31.8487 143.322 31.9185 142.824 31.8968H142.112V34.8254H141.14ZM143.111 28.9228H142.112V31.0321H143.169C143.496 31.0536 143.819 30.9549 144.078 30.7546C144.188 30.6545 144.274 30.5312 144.33 30.3937C144.386 30.2562 144.411 30.1079 144.403 29.9596C144.4 29.2695 143.97 28.9239 143.111 28.9228Z" fill="#BD3A4A"/>
<path d="M150.544 27.9721C151.022 27.9576 151.498 28.0377 151.945 28.2078C152.393 28.3779 152.802 28.6347 153.149 28.9634C153.489 29.2806 153.757 29.6661 153.937 30.0946C154.116 30.523 154.203 30.9847 154.191 31.4491C154.203 31.9124 154.115 32.3728 153.933 32.7993C153.752 33.2258 153.481 33.6086 153.14 33.9217C152.439 34.5707 151.556 34.8952 150.49 34.8952C150.023 34.9098 149.557 34.8312 149.12 34.6641C148.684 34.497 148.284 34.2446 147.946 33.9217C147.614 33.6065 147.352 33.2251 147.177 32.8022C147.002 32.3794 146.918 31.9244 146.93 31.4669C146.917 31.0013 147.001 30.5379 147.177 30.1067C147.353 29.6756 147.618 29.2861 147.954 28.9634C148.298 28.6338 148.704 28.3763 149.149 28.206C149.593 28.0358 150.068 27.9562 150.544 27.9721ZM150.583 28.8904C150.232 28.8778 149.883 28.9355 149.556 29.06C149.229 29.1846 148.929 29.3735 148.676 29.6156C148.43 29.8555 148.237 30.144 148.108 30.4627C147.98 30.7814 147.919 31.1234 147.93 31.4669C147.921 31.8055 147.984 32.1422 148.113 32.4554C148.242 32.7686 148.435 33.0514 148.679 33.2857C149.194 33.7548 149.866 34.0137 150.562 34.011C151.258 34.0083 151.928 33.7442 152.439 33.2711C152.686 33.0334 152.88 32.7469 153.011 32.4299C153.141 32.1129 153.203 31.7722 153.195 31.4296C153.202 31.0925 153.138 30.7576 153.008 30.4465C152.878 30.1355 152.684 29.8552 152.439 29.6238C152.194 29.3843 151.903 29.1963 151.585 29.0709C151.266 28.9455 150.925 28.8852 150.583 28.8936V28.8904Z" fill="#BD3A4A"/>
<path d="M156.38 28.0727H157.353V34.8254H156.38V28.0727Z" fill="#BD3A4A"/>
<path d="M165.201 28.0727H166.12V34.8254H165.289L160.773 29.6254V34.8254H159.865V28.0727H160.647L165.201 33.3263V28.0727Z" fill="#BD3A4A"/>
<path d="M167.981 28.0629H173.622V28.9228H171.268V34.8254H170.294V28.9228H167.979L167.981 28.0629Z" fill="#BD3A4A"/>
<path d="M137.992 20.7098H126.254C123.917 20.6783 121.688 19.728 120.047 18.0648C118.406 16.4016 117.486 14.1591 117.486 11.8227C117.486 9.48623 118.406 7.24376 120.047 5.58052C121.688 3.91729 123.917 2.96707 126.254 2.93551H137.992V8.12746H126.254C125.286 8.14773 124.364 8.54646 123.687 9.23815C123.01 9.92984 122.63 10.8594 122.63 11.8275C122.63 12.7957 123.01 13.7252 123.687 14.4169C124.364 15.1086 125.286 15.5073 126.254 15.5276H137.992V20.7098Z" fill="white"/>
<path d="M56.9864 20.7098H45.2493V15.5179H56.9864C57.4788 15.5282 57.9683 15.4401 58.4263 15.2588C58.8842 15.0775 59.3013 14.8066 59.6532 14.462C60.0051 14.1174 60.2847 13.706 60.4756 13.252C60.6664 12.7979 60.7647 12.3103 60.7647 11.8178C60.7647 11.3253 60.6664 10.8377 60.4756 10.3837C60.2847 9.92963 60.0051 9.51825 59.6532 9.17364C59.3013 8.82904 58.8842 8.55814 58.4263 8.37683C57.9683 8.19551 57.4788 8.10743 56.9864 8.11774H45.2493V2.92579H56.9864C58.1636 2.90988 59.3322 3.12801 60.4243 3.56749C61.5165 4.00698 62.5105 4.65907 63.3486 5.48589C64.1867 6.31272 64.8521 7.29781 65.3063 8.38395C65.7605 9.4701 65.9944 10.6357 65.9944 11.813C65.9944 12.9902 65.7605 14.1558 65.3063 15.2419C64.8521 16.3281 64.1867 17.3132 63.3486 18.14C62.5105 18.9668 61.5165 19.6189 60.4243 20.0584C59.3322 20.4979 58.1636 20.716 56.9864 20.7001V20.7098Z" fill="white"/>
<path d="M162.274 2.93714V7.13126H168.544V20.5476H173.732V7.13126H180V2.93714H162.274Z" fill="white"/>
<path d="M154.318 2.93551V11.7894C154.297 12.7573 153.899 13.6787 153.207 14.3561C152.515 15.0335 151.586 15.4128 150.618 15.4128C149.649 15.4128 148.72 15.0335 148.028 14.3561C147.336 13.6787 146.938 12.7573 146.917 11.7894V2.93551H141.726V11.7894C141.757 14.1256 142.707 16.3555 144.371 17.9964C146.034 19.6373 148.276 20.5573 150.613 20.5573C152.949 20.5573 155.192 19.6373 156.855 17.9964C158.518 16.3555 159.468 14.1256 159.5 11.7894V2.93551H154.318Z" fill="white"/>
<path d="M90.4793 2.93551L83.0662 2.97282L78.1306 7.85164L73.4806 2.97282H66.3157L75.4811 12.5925V20.7098H80.6682V12.6363L90.4793 2.93551Z" fill="white"/>
<path d="M98.7444 20.5232H93.3708V2.97281H97.5178L108.221 13.0225V2.97281H113.595V20.5232H109.448L98.7444 10.1685V20.5232Z" fill="white"/>
<path d="M32.9428 18.6623C35.2109 17.3345 36.8624 15.1642 37.5375 12.6243C38.2127 10.0843 37.8568 7.38049 36.5474 5.10177C35.2379 2.82304 33.0811 1.15406 30.5467 0.458392C28.0123 -0.237277 25.3057 0.0967336 23.0165 1.38766L15.5092 5.70185L17.0554 8.43736L11.5958 11.585C11.1487 11.2373 10.5947 11.0558 10.0286 11.0714C9.46242 11.0871 8.91929 11.2989 8.49204 11.6706C8.06478 12.0424 7.77993 12.551 7.68619 13.1096C7.59246 13.6681 7.69566 14.2419 7.97815 14.7327C8.26063 15.2236 8.70487 15.6011 9.23489 15.8007C9.76491 16.0003 10.3478 16.0095 10.8839 15.8269C11.42 15.6443 11.876 15.2811 12.174 14.7994C12.4719 14.3178 12.5933 13.7476 12.5174 13.1864L17.964 10.0517L25.5005 5.7197C26.644 5.06262 28.0018 4.88672 29.275 5.2307C30.5482 5.57468 31.6327 6.41037 32.2898 7.55392C32.9469 8.69747 33.1228 10.0552 32.7788 11.3284C32.4348 12.6017 31.5991 13.6861 30.4556 14.3432L22.8558 18.7093L25.309 23.0478L32.9428 18.6623ZM11.0003 14.0544C10.917 14.1921 10.8033 14.3089 10.6679 14.3959C10.5325 14.4829 10.3789 14.5377 10.2191 14.5562C10.0592 14.5747 9.89718 14.5564 9.74548 14.5026C9.59379 14.4488 9.45642 14.361 9.34389 14.2459C9.23137 14.1308 9.14668 13.9915 9.09631 13.8386C9.04594 13.6858 9.03123 13.5234 9.0533 13.364C9.07537 13.2045 9.13364 13.0523 9.22364 12.9188C9.31364 12.7854 9.43299 12.6744 9.57255 12.5942C9.72421 12.5065 9.89553 12.4585 10.0707 12.4546C10.2603 12.4505 10.4475 12.4974 10.6128 12.5904C10.7781 12.6835 10.9153 12.8193 11.0101 12.9836C11.0799 13.1032 11.1251 13.2356 11.143 13.373C11.1608 13.5104 11.1509 13.6499 11.1139 13.7835C11.0898 13.8789 11.0515 13.9703 11.0003 14.0544Z" fill="#BD3A4A"/>
<path d="M20.8845 15.2129L26.3279 12.0717C26.7751 12.4198 27.3293 12.6017 27.8957 12.5864C28.4622 12.5712 29.0057 12.3596 29.4335 11.9879C29.8612 11.6163 30.1466 11.1076 30.2408 10.5488C30.3351 9.99005 30.2323 9.4159 29.9501 8.92452C29.6679 8.43314 29.2237 8.05503 28.6936 7.85484C28.1635 7.65464 27.5803 7.64478 27.0438 7.82694C26.5072 8.00911 26.0505 8.37199 25.7519 8.85355C25.4532 9.33511 25.3311 9.90546 25.4064 10.4671L19.9727 13.6001L12.4346 17.9321C11.8681 18.2726 11.2393 18.4967 10.5851 18.5912C9.93092 18.6858 9.26445 18.6489 8.62468 18.4828C7.9849 18.3167 7.38468 18.0247 6.85912 17.6238C6.33356 17.223 5.89322 16.7213 5.56385 16.1482C5.23448 15.5752 5.0227 14.9422 4.94091 14.2863C4.85911 13.6304 4.90893 12.9647 5.08746 12.3283C5.26599 11.6919 5.56965 11.0975 5.98066 10.5798C6.39167 10.0621 6.90179 9.63165 7.48117 9.3135L15.0874 4.94415L12.6261 0.599137L5.00039 4.97985C2.7092 6.29595 1.03468 8.46832 0.345194 11.0191C-0.344293 13.5698 0.00773553 16.29 1.32384 18.5811C2.63994 20.8723 4.81231 22.5468 7.36304 23.2363C9.91378 23.9258 12.6339 23.5738 14.9251 22.2577L22.4307 17.9435L20.8845 15.2129ZM26.9315 9.59744C27.0231 9.44746 27.1509 9.32284 27.3031 9.23498C27.4553 9.14711 27.6271 9.0988 27.8028 9.09447C28.0378 9.08784 28.2682 9.15991 28.4576 9.29923C28.6469 9.43856 28.7843 9.63715 28.8479 9.86347C28.9114 10.0898 28.8976 10.3309 28.8085 10.5484C28.7194 10.7659 28.5601 10.9475 28.3561 11.0642C28.2055 11.1516 28.0353 11.1995 27.8612 11.2037H27.8515C27.6876 11.2072 27.5252 11.1725 27.3772 11.1022C27.2291 11.0319 27.0995 10.928 26.9987 10.7988C26.8979 10.6696 26.8286 10.5187 26.7964 10.358C26.7641 10.1973 26.7699 10.0313 26.8131 9.87326C26.8387 9.77598 26.8786 9.68303 26.9315 9.59744Z" fill="#BD3A4A"/>
</svg>
