<svg width="200" height="95" viewBox="0 0 200 95" fill="none" xmlns="http://www.w3.org/2000/svg">
<path d="M43.1426 83.9639H51.6013V85.262H48.073V94.1128H46.6165V85.2568H43.1426V83.9639Z" fill="#BD3A4A"/>
<path d="M58.4634 83.834C59.9073 83.7944 61.308 84.3295 62.3578 85.3217C62.8656 85.7977 63.2669 86.3757 63.5354 87.0178C63.8039 87.6599 63.9335 88.3516 63.9156 89.0474C63.9341 89.7422 63.8029 90.4329 63.531 91.0726C63.2591 91.7123 62.8528 92.286 62.3397 92.7549C61.2907 93.7328 59.9666 94.2218 58.3673 94.2218C57.666 94.2429 56.9676 94.124 56.3127 93.8722C55.6579 93.6203 55.0598 93.2405 54.5534 92.7549C54.0554 92.2829 53.6624 91.7114 53.3998 91.0776C53.1372 90.4438 53.011 89.7618 53.0294 89.0759C53.0087 88.3777 53.1346 87.6829 53.3989 87.0363C53.6631 86.3897 54.06 85.8056 54.5638 85.3217C55.081 84.8252 55.6927 84.4377 56.3626 84.1822C57.0325 83.9266 57.7469 83.8082 58.4634 83.834ZM58.5205 85.2127C57.9961 85.1936 57.4732 85.2799 56.9827 85.4663C56.4922 85.6527 56.044 85.9354 55.6646 86.2979C55.2949 86.6575 55.0043 87.0903 54.8116 87.5687C54.6189 88.0471 54.5283 88.5605 54.5456 89.0759C54.5318 89.5835 54.6244 90.0883 54.8176 90.5578C55.0108 91.0273 55.3002 91.4512 55.6672 91.802C56.4392 92.5042 57.4464 92.8913 58.49 92.887C59.5336 92.8827 60.5376 92.4872 61.3037 91.7787C61.6745 91.4229 61.9669 90.9937 62.1623 90.5185C62.3576 90.0432 62.4517 89.5325 62.4383 89.0188C62.4494 88.5132 62.3541 88.0108 62.1586 87.5444C61.9632 87.0779 61.6719 86.6576 61.3037 86.3109C60.9367 85.9511 60.5014 85.6686 60.0233 85.48C59.5453 85.2913 59.0343 85.2004 58.5205 85.2127Z" fill="#BD3A4A"/>
<path d="M70.0998 83.9639H78.5611V85.262H75.0328V94.1128H73.5763V85.2568H70.0998V83.9639Z" fill="#BD3A4A"/>
<path d="M88.5336 83.9795H89.9849V94.105H88.5336V89.6913H82.8555V94.105H81.4042V83.9795H82.8555V88.3568H88.5336V83.9795Z" fill="#BD3A4A"/>
<path d="M93.7262 83.9795H99.4666V85.2776H95.1619V88.3646H99.316V89.6628H95.1619V92.8095H99.5912V94.1076H93.7262V83.9795Z" fill="#BD3A4A"/>
<path d="M108.149 94.1077V83.964H111.36C112.202 83.92 113.029 84.1985 113.673 84.7429C113.961 85.0098 114.187 85.3362 114.336 85.6994C114.485 86.0625 114.553 86.4538 114.535 86.8459C114.544 87.3971 114.39 87.9386 114.094 88.4036C113.805 88.8533 113.38 89.1996 112.882 89.3928C112.172 89.6276 111.426 89.7314 110.68 89.6992H109.605V94.0947L108.149 94.1077ZM111.106 85.2569H109.605V88.4244H111.194C111.684 88.4559 112.169 88.3072 112.557 88.0064C112.72 87.8558 112.848 87.6707 112.931 87.4645C113.013 87.2584 113.049 87.0364 113.035 86.8147C113.035 85.7762 112.392 85.2569 111.106 85.2569Z" fill="#BD3A4A"/>
<path d="M122.249 83.8339C122.967 83.8122 123.681 83.9325 124.352 84.1878C125.023 84.4431 125.637 84.8284 126.159 85.3215C126.667 85.7975 127.068 86.3755 127.337 87.0177C127.605 87.6598 127.735 88.3515 127.717 89.0472C127.735 89.7421 127.604 90.4327 127.332 91.0724C127.06 91.7121 126.654 92.2859 126.141 92.7547C125.092 93.7327 123.768 94.2216 122.168 94.2216C121.467 94.243 120.769 94.1243 120.114 93.8724C119.459 93.6205 118.861 93.2406 118.355 92.7547C117.857 92.2824 117.465 91.7108 117.203 91.077C116.94 90.4432 116.815 89.7614 116.833 89.0758C116.813 88.3774 116.939 87.6825 117.204 87.0359C117.469 86.3893 117.866 85.8053 118.37 85.3215C118.885 84.8275 119.493 84.4414 120.159 84.1859C120.825 83.9304 121.536 83.8107 122.249 83.8339ZM122.309 85.2125C121.784 85.1941 121.262 85.2806 120.771 85.4669C120.281 85.6533 119.833 85.9358 119.453 86.2977C119.084 86.6577 118.793 87.0906 118.601 87.5689C118.408 88.0472 118.317 88.5604 118.334 89.0758C118.32 89.5835 118.413 90.0884 118.607 90.5579C118.801 91.0275 119.091 91.4512 119.458 91.8019C120.23 92.504 121.237 92.8912 122.281 92.8869C123.324 92.8825 124.328 92.487 125.095 91.7785C125.465 91.4224 125.757 90.9931 125.952 90.518C126.147 90.0428 126.242 89.5322 126.229 89.0187C126.24 88.5131 126.144 88.0109 125.949 87.5445C125.753 87.0781 125.462 86.6578 125.095 86.3107C124.727 85.9506 124.291 85.6679 123.813 85.4793C123.334 85.2906 122.823 85.1999 122.309 85.2125Z" fill="#BD3A4A"/>
<path d="M131.001 83.9795H132.452V94.105H131.001V83.9795Z" fill="#BD3A4A"/>
<path d="M144.229 83.9795H145.608V94.105H144.354L137.585 86.3162V94.105H136.228V83.9795H137.401L144.229 91.8436V83.9795Z" fill="#BD3A4A"/>
<path d="M148.396 83.9639H156.855V85.262H153.327V94.1128H151.868V85.2568H148.396V83.9639Z" fill="#BD3A4A"/>
<path d="M136.388 72.9584H118.788C117.023 72.983 115.27 72.6565 113.631 71.9979C111.993 71.3393 110.502 70.3617 109.245 69.1219C107.987 67.882 106.989 66.4047 106.308 64.7758C105.626 63.1468 105.275 61.3987 105.275 59.6329C105.275 57.8672 105.626 56.119 106.308 54.49C106.989 52.8611 107.987 51.3838 109.245 50.1439C110.502 48.9041 111.993 47.9265 113.631 47.2679C115.27 46.6093 117.023 46.2828 118.788 46.3075H136.388V54.0963H118.788C118.05 54.0803 117.315 54.212 116.628 54.4836C115.941 54.7552 115.316 55.1612 114.788 55.6779C114.26 56.1945 113.84 56.8114 113.554 57.4924C113.267 58.1733 113.12 58.9046 113.12 59.6433C113.12 60.382 113.267 61.1133 113.554 61.7942C113.84 62.4752 114.26 63.092 114.788 63.6087C115.316 64.1254 115.941 64.5314 116.628 64.803C117.315 65.0746 118.05 65.2062 118.788 65.1903H136.388V72.9584Z" fill="white"/>
<path d="M17.6004 72.9581H0.000158548V65.1693H17.6004C18.3389 65.1852 19.0732 65.0536 19.7602 64.782C20.4472 64.5104 21.073 64.1044 21.601 63.5877C22.1289 63.0711 22.5484 62.4542 22.8348 61.7732C23.1212 61.0923 23.2687 60.361 23.2687 59.6223C23.2687 58.8836 23.1212 58.1523 22.8348 57.4714C22.5484 56.7904 22.1289 56.1735 21.601 55.6569C21.073 55.1402 20.4472 54.7342 19.7602 54.4626C19.0732 54.191 18.3389 54.0593 17.6004 54.0753H0.000158548V46.2865H17.6004C19.366 46.2618 21.1189 46.5883 22.7572 47.2469C24.3955 47.9055 25.8866 48.8831 27.1439 50.1229C28.4011 51.3628 29.3994 52.8401 30.0809 54.4691C30.7623 56.098 31.1132 57.8462 31.1132 59.6119C31.1132 61.3777 30.7623 63.1258 30.0809 64.7548C29.3994 66.3837 28.4011 67.8611 27.1439 69.1009C25.8866 70.3407 24.3955 71.3183 22.7572 71.9769C21.1189 72.6355 19.366 72.962 17.6004 72.9374V72.9581Z" fill="white"/>
<path d="M173.419 46.3047V52.5929H182.82V72.953H190.599V52.5929H200V46.3047H173.419Z" fill="white"/>
<path d="M160.664 46.354V59.6288C160.664 61.1003 160.079 62.5116 159.039 63.5521C157.998 64.5926 156.587 65.1771 155.116 65.1771C153.644 65.1771 152.233 64.5926 151.192 63.5521C150.152 62.5116 149.567 61.1003 149.567 59.6288V46.354H141.778V59.6288C141.778 61.3789 142.123 63.1119 142.793 64.7288C143.463 66.3456 144.444 67.8148 145.682 69.0523C146.919 70.2898 148.388 71.2714 150.005 71.9411C151.622 72.6109 153.355 72.9556 155.105 72.9556C156.855 72.9556 158.588 72.6109 160.205 71.9411C161.822 71.2714 163.291 70.2898 164.529 69.0523C165.766 67.8148 166.748 66.3456 167.417 64.7288C168.087 63.1119 168.432 61.3789 168.432 59.6288V46.354H160.664Z" fill="white"/>
<path d="M66.9169 46.3149H55.8541L48.6572 53.434L41.8731 46.3149H31.1296L44.6848 60.54V72.9529H52.4633V60.6101L66.9169 46.3149Z" fill="white"/>
<path d="M78.3612 72.9528H70.3049V46.3564H76.523L92.5733 61.4279V46.3564H100.63V72.9528H94.4115L78.3612 57.1466V72.9528Z" fill="white"/>
<path d="M121.984 27.8892C123.685 26.9118 125.177 25.6091 126.374 24.0553C127.571 22.5014 128.451 20.727 128.962 18.8333C129.474 16.9395 129.608 14.9635 129.356 13.0182C129.103 11.0728 128.471 9.19613 127.493 7.49531C126.516 5.79448 125.213 4.30281 123.659 3.10546C122.106 1.90811 120.331 1.02853 118.437 0.516938C116.544 0.00534928 114.568 -0.128229 112.622 0.12383C110.677 0.375889 108.8 1.00865 107.1 1.98598L95.8446 8.45593L98.1605 12.5555L89.9744 17.2677C89.3045 16.7484 88.4751 16.4777 87.6278 16.5021C86.7805 16.5265 85.9679 16.8443 85.329 17.4014C84.6901 17.9584 84.2644 18.72 84.1248 19.5561C83.9851 20.3921 84.1401 21.2507 84.5633 21.9852C84.9865 22.7196 85.6516 23.2843 86.445 23.5827C87.2384 23.8812 88.1108 23.8948 88.9131 23.6214C89.7154 23.3479 90.3979 22.8043 90.8438 22.0835C91.2898 21.3627 91.4716 20.5093 91.3582 19.6693L99.5236 14.9674L110.825 8.4767C112.539 7.49169 114.575 7.22799 116.483 7.74362C118.392 8.25925 120.018 9.51196 121.003 11.2262C121.988 12.9404 122.251 14.9757 121.736 16.8843C121.22 18.793 119.967 20.4186 118.253 21.4036L106.858 27.9515L110.54 34.4656L121.984 27.8892ZM89.0813 20.9778C88.9484 21.2056 88.7599 21.3958 88.5335 21.5308C88.3246 21.6515 88.091 21.7228 87.8503 21.7395C87.6097 21.7561 87.3685 21.7175 87.145 21.6267C86.9216 21.5359 86.7218 21.3952 86.561 21.2154C86.4002 21.0357 86.2825 20.8216 86.217 20.5894C86.1516 20.3573 86.14 20.1133 86.1831 19.8759C86.2263 19.6386 86.3231 19.4143 86.4662 19.2201C86.6092 19.0259 86.7948 18.867 87.0086 18.7554C87.2224 18.6438 87.4589 18.5826 87.7001 18.5763C87.9843 18.5705 88.2648 18.6411 88.5124 18.7809C88.76 18.9207 88.9654 19.1244 89.1072 19.3707C89.2123 19.55 89.2804 19.7485 89.3076 19.9545C89.3348 20.1605 89.3206 20.3698 89.2656 20.5702C89.226 20.7149 89.1638 20.8525 89.0813 20.9778Z" fill="#BD3A4A"/>
<path d="M103.904 22.7149L112.066 18.0156C112.737 18.5363 113.567 18.8079 114.416 18.784C115.265 18.7602 116.079 18.4423 116.719 17.8849C117.359 17.3274 117.786 16.5648 117.926 15.7276C118.066 14.8904 117.911 14.0304 117.488 13.2946C117.064 12.5589 116.399 11.993 115.604 11.6938C114.81 11.3946 113.936 11.3806 113.132 11.6542C112.329 11.9278 111.645 12.472 111.198 13.1938C110.751 13.9156 110.569 14.7702 110.682 15.6115L102.538 20.2978L91.2363 26.7885C90.387 27.2957 89.4452 27.6288 88.4659 27.7684C87.4866 27.908 86.4893 27.8512 85.5321 27.6014C84.5749 27.3516 83.677 26.9138 82.8908 26.3135C82.1045 25.7132 81.4457 24.9623 80.9525 24.1048C80.4594 23.2473 80.1419 22.3001 80.0185 21.3186C79.8952 20.3371 79.9684 19.3409 80.2339 18.388C80.4995 17.4351 80.9521 16.5445 81.5653 15.7683C82.1785 14.9921 82.9401 14.3457 83.8057 13.8668L95.2008 7.31634L91.5193 0.802246L80.0774 7.37865C78.3744 8.35476 76.8805 9.65697 75.6811 11.2108C74.4817 12.7647 73.6004 14.5397 73.0875 16.4344C72.5745 18.3292 72.4401 20.3064 72.6919 22.2531C72.9436 24.1998 73.5766 26.0778 74.5547 27.7797C75.5327 29.4816 76.8366 30.974 78.3918 32.1716C79.9471 33.3692 81.7231 34.2486 83.6184 34.7593C85.5137 35.2701 87.4911 35.4023 89.4375 35.1483C91.3839 34.8943 93.2612 34.2592 94.962 33.2792L106.217 26.8119L103.904 22.7149ZM112.962 14.2978C113.102 14.0756 113.294 13.8917 113.523 13.7629C113.751 13.6317 114.008 13.5603 114.271 13.5552C114.623 13.545 114.969 13.6529 115.253 13.862C115.538 14.0711 115.744 14.3692 115.839 14.7089C115.934 15.0487 115.913 15.4105 115.779 15.7368C115.645 16.0632 115.405 16.3353 115.099 16.5098C114.873 16.6413 114.617 16.7128 114.356 16.7175C114.11 16.7231 113.866 16.6711 113.644 16.5657C113.422 16.4603 113.227 16.3044 113.076 16.1104C112.925 15.9164 112.821 15.6898 112.773 15.4486C112.724 15.2073 112.733 14.9582 112.798 14.721C112.832 14.5727 112.887 14.4301 112.962 14.2978Z" fill="#BD3A4A"/>
</svg>
