<svg width="309" height="75" viewBox="0 0 309 75" fill="none" xmlns="http://www.w3.org/2000/svg">
<path d="M67.2705 58.6367H80.291V60.6349H74.8598V74.2589H72.6178V60.6269H67.2705V58.6367Z" fill="#BD3A4A"/>
<path d="M90.8538 58.4367C93.0765 58.3758 95.2326 59.1994 96.8486 60.7267C97.6302 61.4594 98.248 62.3491 98.6612 63.3376C99.0745 64.326 99.274 65.3907 99.2465 66.4617C99.2749 67.5312 99.073 68.5944 98.6545 69.5791C98.2359 70.5638 97.6105 71.4469 96.8206 72.1686C95.206 73.674 93.1678 74.4266 90.706 74.4266C89.6265 74.4591 88.5513 74.2762 87.5433 73.8885C86.5353 73.5008 85.6146 72.9161 84.8351 72.1686C84.0686 71.4422 83.4636 70.5625 83.0595 69.5868C82.6553 68.6111 82.461 67.5613 82.4892 66.5056C82.4574 65.4308 82.6512 64.3613 83.058 63.366C83.4648 62.3706 84.0756 61.4716 84.8511 60.7267C85.6474 59.9625 86.589 59.366 87.6201 58.9726C88.6513 58.5793 89.7509 58.397 90.8538 58.4367ZM90.9418 60.5589C90.1346 60.5296 89.3297 60.6623 88.5746 60.9492C87.8196 61.2361 87.1297 61.6714 86.5456 62.2294C85.9765 62.7829 85.5293 63.4492 85.2327 64.1856C84.9361 64.922 84.7966 65.7122 84.8231 66.5056C84.8019 67.2869 84.9445 68.0639 85.2419 68.7867C85.5393 69.5094 85.9847 70.1618 86.5496 70.7019C87.738 71.7828 89.2885 72.3787 90.8948 72.372C92.5012 72.3654 94.0466 71.7566 95.226 70.666C95.7967 70.1184 96.2468 69.4577 96.5475 68.7261C96.8483 67.9946 96.993 67.2084 96.9725 66.4177C96.9895 65.6393 96.8428 64.8661 96.5419 64.148C96.2411 63.43 95.7928 62.7831 95.226 62.2494C94.6611 61.6956 93.9909 61.2607 93.2551 60.9703C92.5192 60.6799 91.7326 60.54 90.9418 60.5589Z" fill="#BD3A4A"/>
<path d="M108.766 58.6367H121.791V60.6349H116.359V74.2589H114.117V60.6269H108.766V58.6367Z" fill="#BD3A4A"/>
<path d="M137.141 58.6605H139.375V74.2468H137.141V67.4528H128.401V74.2468H126.167V58.6605H128.401V65.3986H137.141V58.6605Z" fill="#BD3A4A"/>
<path d="M145.134 58.6605H153.97V60.6588H147.344V65.4106H153.739V67.4088H147.344V72.2526H154.162V74.2508H145.134V58.6605Z" fill="#BD3A4A"/>
<path d="M167.334 74.2508V58.6366H172.278C173.574 58.5689 174.848 58.9976 175.839 59.8355C176.282 60.2464 176.63 60.7488 176.859 61.3079C177.088 61.8669 177.193 62.4691 177.166 63.0727C177.178 63.9212 176.942 64.7548 176.486 65.4706C176.041 66.1627 175.388 66.6958 174.62 66.9932C173.528 67.3546 172.38 67.5144 171.231 67.4648H169.577V74.2309L167.334 74.2508ZM171.886 60.6268H169.577V65.5025H172.022C172.777 65.551 173.523 65.3221 174.121 64.8591C174.372 64.6273 174.568 64.3423 174.695 64.025C174.823 63.7077 174.877 63.3659 174.856 63.0247C174.856 61.4261 173.866 60.6268 171.886 60.6268Z" fill="#BD3A4A"/>
<path d="M189.04 58.4368C190.144 58.4034 191.244 58.5885 192.277 58.9815C193.31 59.3745 194.255 59.9676 195.058 60.7267C195.84 61.4594 196.458 62.3492 196.871 63.3376C197.284 64.326 197.484 65.3907 197.456 66.4617C197.485 67.5313 197.283 68.5944 196.864 69.5791C196.446 70.5638 195.82 71.447 195.03 72.1687C193.416 73.674 191.378 74.4267 188.916 74.4267C187.836 74.4596 186.761 74.2769 185.753 73.8892C184.745 73.5015 183.824 72.9165 183.045 72.1687C182.279 71.4417 181.675 70.5618 181.272 69.5862C180.868 68.6106 180.674 67.561 180.703 66.5057C180.672 65.4306 180.866 64.361 181.274 63.3656C181.681 62.3703 182.293 61.4714 183.069 60.7267C183.861 59.9663 184.798 59.3719 185.823 58.9787C186.848 58.5854 187.942 58.4012 189.04 58.4368ZM189.131 60.5589C188.324 60.5305 187.52 60.6637 186.765 60.9505C186.01 61.2374 185.32 61.6722 184.735 62.2294C184.167 62.7835 183.72 63.4499 183.424 64.1862C183.127 64.9224 182.987 65.7123 183.013 66.5057C182.992 67.2872 183.135 68.0644 183.433 68.7872C183.732 69.5099 184.178 70.1622 184.743 70.702C185.932 71.7828 187.482 72.3787 189.089 72.3721C190.695 72.3654 192.24 71.7567 193.42 70.666C193.99 70.1178 194.439 69.457 194.74 68.7256C195.041 67.9942 195.186 67.2083 195.166 66.4177C195.182 65.6395 195.035 64.8665 194.735 64.1485C194.434 63.4306 193.986 62.7836 193.42 62.2494C192.854 61.6951 192.184 61.2599 191.447 60.9695C190.71 60.6792 189.923 60.5395 189.131 60.5589Z" fill="#BD3A4A"/>
<path d="M202.511 58.6605H204.745V74.2468H202.511V58.6605Z" fill="#BD3A4A"/>
<path d="M222.874 58.6605H224.996V74.2468H223.066L212.647 62.2574V74.2468H210.557V58.6605H212.363L222.874 70.7659V58.6605Z" fill="#BD3A4A"/>
<path d="M229.288 58.6367H242.309V60.6349H236.877V74.2589H234.631V60.6269H229.288V58.6367Z" fill="#BD3A4A"/>
<path d="M210.804 41.6955H183.712C180.994 41.7334 178.296 41.2309 175.774 40.2171C173.252 39.2033 170.957 37.6985 169.022 35.79C167.086 33.8815 165.55 31.6075 164.501 29.1C163.452 26.5925 162.912 23.9016 162.912 21.1836C162.912 18.4655 163.452 15.7746 164.501 13.2671C165.55 10.7596 167.086 8.4856 169.022 6.57713C170.957 4.66866 173.252 3.16381 175.774 2.15001C178.296 1.13621 180.994 0.633679 183.712 0.671615H210.804V12.6611H183.712C182.575 12.6365 181.445 12.8391 180.387 13.2572C179.33 13.6752 178.366 14.3002 177.554 15.0955C176.741 15.8909 176.095 16.8404 175.655 17.8886C175.214 18.9368 174.987 20.0624 174.987 21.1995C174.987 22.3366 175.214 23.4623 175.655 24.5105C176.095 25.5586 176.741 26.5082 177.554 27.3035C178.366 28.0989 179.33 28.7239 180.387 29.1419C181.445 29.56 182.575 29.7626 183.712 29.738H210.804V41.6955Z" fill="#231F20"/>
<path d="M27.953 41.6956H0.86084V29.7061H27.953C29.0898 29.7307 30.2201 29.528 31.2776 29.11C32.3351 28.6919 33.2984 28.0669 34.1111 27.2716C34.9238 26.4763 35.5695 25.5267 36.0103 24.4786C36.4511 23.4304 36.6782 22.3047 36.6782 21.1676C36.6782 20.0305 36.4511 18.9049 36.0103 17.8567C35.5695 16.8085 34.9238 15.8589 34.1111 15.0636C33.2984 14.2683 32.3351 13.6433 31.2776 13.2253C30.2201 12.8072 29.0898 12.6045 27.953 12.6291H0.86084V0.639694H27.953C30.6708 0.601757 33.369 1.10429 35.8908 2.11809C38.4127 3.13189 40.708 4.63673 42.6433 6.54521C44.5786 8.45368 46.1153 10.7277 47.1642 13.2352C48.2131 15.7427 48.7533 18.4336 48.7533 21.1516C48.7533 23.8697 48.2131 26.5606 47.1642 29.0681C46.1153 31.5756 44.5786 33.8496 42.6433 35.7581C40.708 37.6665 38.4127 39.1714 35.8908 40.1852C33.369 41.199 30.6708 41.7015 27.953 41.6636V41.6956Z" fill="#231F20"/>
<path d="M267.806 0.667725V10.3472H282.277V41.6876H294.251V10.3472H308.722V0.667725H267.806Z" fill="#231F20"/>
<path d="M248.171 0.74353V21.1775C248.171 23.4426 247.272 25.6149 245.67 27.2166C244.068 28.8182 241.896 29.718 239.631 29.718C237.366 29.718 235.194 28.8182 233.592 27.2166C231.99 25.6149 231.091 23.4426 231.091 21.1775V0.74353H219.101V21.1775C219.101 23.8715 219.632 26.539 220.663 29.0279C221.694 31.5168 223.205 33.7782 225.109 35.6831C227.014 37.588 229.276 39.099 231.765 40.13C234.254 41.1609 236.921 41.6915 239.615 41.6915C242.309 41.6915 244.977 41.1609 247.465 40.13C249.954 39.099 252.216 37.588 254.121 35.6831C256.025 33.7782 257.537 31.5168 258.567 29.0279C259.598 26.539 260.129 23.8715 260.129 21.1775V0.74353H248.171Z" fill="#231F20"/>
<path d="M103.866 0.683655H86.8373L75.7591 11.642L65.3163 0.683655H48.7788L69.6444 22.5804V41.6876H81.6179V22.6883L103.866 0.683655Z" fill="#231F20"/>
<path d="M121.483 41.6875H109.082V0.747559H118.653L143.359 23.9471V0.747559H155.76V41.6875H146.189L121.483 17.3569V41.6875Z" fill="#231F20"/>
</svg>
