<svg width="1440" height="941" viewBox="0 0 1440 941" fill="none" xmlns="http://www.w3.org/2000/svg">
<g opacity="0.5">
<mask id="mask0_278_1604" style="mask-type:alpha" maskUnits="userSpaceOnUse" x="0" y="0" width="1440" height="941">
<rect width="1440" height="941" transform="matrix(1 0 0 -1 0 941)" fill="#060910"/>
</mask>
<g mask="url(#mask0_278_1604)">
<mask id="mask1_278_1604" style="mask-type:alpha" maskUnits="userSpaceOnUse" x="0" y="0" width="1440" height="941">
<rect width="1440" height="941" rx="20" fill="#231F20"/>
</mask>
<g mask="url(#mask1_278_1604)">
<path d="M1726 295.85H-287V2147.78H1726V295.85Z" fill="#060910"/>
<path d="M717.056 424.31C707.742 424.623 698.459 426.104 689.295 428.738C637.646 444.632 591.531 499.427 556.669 569.319C521.806 639.21 497.227 723.616 476.936 810.128C456.646 896.639 439.814 986.925 418.97 1073.73C398.126 1160.53 372.44 1245.01 336.148 1313.52C273.432 1431.75 179.496 1494.24 88.9731 1477.76C-1.55014 1461.29 -86.6318 1366.36 -134.822 1227.88L-135.052 1228.17C-86.8162 1366.72 -1.64235 1461.79 88.927 1478.27C179.496 1494.74 273.57 1432.18 336.332 1313.81C372.671 1245.3 398.311 1160.75 419.201 1073.87C440.091 986.997 456.6 897.075 477.167 810.346C497.734 723.617 522.036 639.428 556.899 569.609C591.762 499.79 637.784 445.14 689.341 429.246C726.048 418.577 764.093 427.722 799.509 449.132C834.925 470.542 868.589 504.58 899.485 542.973L899.624 542.61C868.727 504.145 835.34 470.542 799.601 448.696C772.993 432.584 744.955 423.44 717.056 424.31Z" fill="#BD3A4A"/>
<path d="M721.021 431.858C711.582 431.928 702.161 433.166 692.845 435.56C641.243 450.946 595.082 504.943 560.081 574.036C525.08 643.129 500.178 726.81 479.565 812.886C458.951 898.961 441.658 989.61 420.63 1076.77C399.602 1163.94 373.824 1248.85 337.393 1317.73C274.4 1436.83 179.865 1499.75 88.7885 1483.2C-2.28807 1466.66 -87.8309 1370.85 -136.251 1231.43L-136.482 1231.73C-88.0154 1371.29 -2.38033 1467.09 88.7424 1483.64C179.865 1500.19 274.539 1437.26 337.624 1318.02C374.054 1249.14 399.786 1164.08 420.861 1076.99C441.935 989.9 458.767 899.542 479.795 813.103C500.409 727.027 525.264 643.347 560.265 574.326C595.267 505.306 641.381 451.454 692.891 436.068C730.198 426.342 768.658 436.503 804.627 458.712C841.242 481.573 875.644 515.684 907.694 553.932L907.832 553.569C875.782 515.249 841.381 481.138 804.674 458.276C777.696 441.584 749.29 431.713 721.021 431.858Z" fill="#BD3A4A"/>
<path d="M724.987 439.479C715.421 439.234 705.859 440.229 696.396 442.455C644.84 457.26 598.633 510.386 563.447 578.681C528.262 646.976 503.083 730.003 482.239 815.644C461.396 901.284 443.503 992.368 422.29 1079.82C401.078 1167.28 375.253 1252.63 338.684 1321.87C275.369 1441.91 180.234 1505.34 88.6042 1488.57C-3.02577 1471.81 -89.0759 1375.43 -137.635 1234.99L-137.865 1235.28C-89.2603 1375.79 -3.118 1472.39 88.6042 1489.08C180.326 1505.77 275.507 1442.34 338.869 1322.23C375.484 1252.92 401.262 1167.5 422.521 1080.04C443.78 992.586 460.934 902.01 482.47 815.861C504.006 729.713 528.446 647.266 563.632 579.044C598.818 510.822 644.932 457.696 696.442 442.963C734.303 434.108 773.223 445.358 809.746 468.219C847.284 492.17 882.746 526.716 915.902 564.891L916.087 564.456C882.884 526.281 847.376 491.734 809.839 467.784C782.446 450.583 753.671 439.914 724.987 439.479Z" fill="#BD3A4A"/>
<path d="M728.953 446.955C719.261 446.566 709.564 447.342 699.947 449.277C648.437 463.575 602.184 515.83 566.814 583.399C531.444 650.967 505.988 733.197 484.868 818.402C462.871 904.332 445.348 995.126 423.904 1082.87C402.461 1170.62 376.637 1256.47 339.975 1326.08C276.337 1446.92 180.603 1510.86 88.4196 1494.02C-3.76376 1477.18 -90.3211 1379.93 -139.064 1238.62L-139.295 1238.84C-90.5055 1380.36 -3.856 1477.62 88.4196 1494.53C180.695 1511.44 276.475 1447.42 340.16 1326.44C376.867 1256.76 402.737 1170.91 424.181 1083.09C445.624 995.271 463.102 904.55 485.098 818.619C506.219 733.414 531.674 651.185 566.998 583.762C602.322 516.338 648.529 464.01 699.993 449.785C738.453 441.802 777.788 454.212 814.865 477.8C853.278 502.839 889.847 537.82 924.156 575.851L924.295 575.415C889.986 537.385 853.417 502.331 814.957 477.292C787.15 459.583 758.005 448.188 728.953 446.955Z" fill="#BD3A4A"/>
<path d="M718.162 454.43C713.274 454.72 708.386 455.301 703.498 456.172C652.034 469.889 605.735 521.346 570.18 588.116C534.626 654.887 508.894 736.39 487.543 821.16C465.039 906.8 447.192 997.884 425.564 1085.99C403.937 1174.1 378.066 1260.32 341.221 1330.28C277.306 1452 181.018 1516.44 88.2814 1499.46C-4.45534 1482.48 -91.5199 1384.5 -140.448 1242.18L-140.678 1242.39C-91.7044 1384.86 -4.59367 1482.91 88.2353 1499.9C181.064 1516.88 277.444 1452.43 341.451 1330.65C378.297 1260.54 404.213 1174.32 425.841 1086.14C447.469 997.956 465.269 907.018 487.773 821.377C509.17 736.681 534.856 655.177 570.411 588.479C605.965 521.781 652.126 470.324 703.544 456.68C742.557 449.567 782.354 462.994 819.984 487.307C859.32 513.435 896.949 548.925 932.365 586.81L932.504 586.374C897.087 548.489 859.412 512.999 820.076 486.872C787.15 465.607 752.518 452.616 718.162 454.43Z" fill="#BD3A4A"/>
<path d="M721.944 461.615C716.963 461.76 711.983 462.268 707.049 462.994C655.585 476.203 609.285 526.789 573.547 592.761C537.808 658.733 511.799 739.656 490.171 823.918C467.206 909.34 449.037 1000.64 427.225 1089.04C405.412 1177.44 379.45 1264.09 342.512 1334.49C278.274 1457.08 181.387 1521.96 88.0968 1504.83C-5.19328 1487.7 -92.7652 1389.07 -141.877 1245.73L-142.108 1246.02C-92.9496 1389.43 -5.33163 1488.21 88.0507 1505.34C181.433 1522.47 278.412 1457.51 342.742 1334.86C379.68 1264.39 405.689 1177.66 427.501 1089.26C449.313 1000.86 467.437 909.485 490.402 824.135C512.076 739.946 538.084 659.096 573.777 593.196C609.47 527.297 655.677 476.711 707.049 463.575C746.661 457.406 786.966 471.921 825.102 496.96C865.315 524.103 904.051 560.029 940.574 597.769L940.712 597.406C904.143 559.593 865.453 523.668 825.195 496.452C791.761 474.534 756.76 460.671 721.944 461.688V461.615Z" fill="#BD3A4A"/>
<path d="M725.679 468.8C720.637 468.849 715.611 469.212 710.6 469.889C659.182 482.517 612.836 532.232 576.959 597.479C541.082 662.725 514.75 742.85 492.8 826.603C469.373 911.808 450.881 1003.4 428.885 1092.09C406.888 1180.78 380.879 1267.94 343.803 1338.7C279.242 1462.16 181.756 1527.48 87.9125 1510.28C-5.931 1493.07 -94.0101 1393.57 -143.261 1249.29L-143.491 1249.58C-94.1946 1394.01 -6.06934 1493.51 87.8663 1510.78C181.802 1528.06 279.381 1462.59 343.988 1339.07C381.064 1268.23 407.165 1181.07 429.115 1092.31C451.066 1003.55 469.604 912.026 493.076 826.821C514.981 743.068 541.266 662.943 577.144 597.842C613.021 532.74 659.274 482.953 710.6 470.325C750.812 465.026 791.531 480.703 830.221 506.395C871.355 534.627 911.106 571.061 948.782 608.656L948.921 608.22C911.245 570.625 871.448 534.192 830.313 505.96C796.419 483.388 761.003 468.583 725.679 468.8Z" fill="#BD3A4A"/>
<path d="M729.46 476.057C724.357 475.912 719.238 476.13 714.104 476.71C662.779 488.758 616.387 537.747 580.325 602.123C544.264 666.498 517.656 746.042 495.474 829.36C471.495 914.275 452.726 1006.08 430.545 1095.21C408.364 1184.33 382.263 1271.79 345.094 1342.91C280.211 1467.16 182.171 1533.06 87.7279 1515.72C-6.71507 1498.37 -95.2092 1398.14 -144.69 1252.84L-144.921 1253.14C-95.3937 1398.51 -6.76118 1498.81 87.7279 1516.15C182.217 1533.5 280.349 1467.67 345.279 1343.28C382.493 1272.01 408.64 1184.48 430.775 1095.35C452.91 1006.23 471.771 914.493 495.705 829.578C517.886 746.26 544.494 666.861 580.51 602.486C616.525 538.11 662.917 489.266 714.15 477.218C754.962 472.791 796.096 489.484 835.34 515.974C877.35 545.295 918.208 582.164 957.037 619.614L957.175 619.178C918.346 581.729 877.489 544.86 835.432 515.539C801.077 492.314 765.245 476.638 729.46 476.057Z" fill="#BD3A4A"/>
<path d="M733.196 483.243C728.031 483.025 722.866 483.098 717.655 483.606C666.376 495.073 619.892 543.191 583.692 606.841C547.492 670.49 520.561 749.236 498.103 832.119C473.662 916.815 454.525 1008.84 432.205 1098.26C409.885 1187.67 383.646 1275.56 346.339 1347.12C281.179 1472.24 182.54 1538.58 87.5436 1521.09C-7.45276 1503.6 -96.4542 1402.64 -146.074 1256.4L-146.304 1256.69C-96.6386 1403.08 -7.49887 1504.11 87.5436 1521.6C182.586 1539.09 281.318 1472.68 346.524 1347.49C383.877 1275.85 410.07 1187.89 432.436 1098.47C454.801 1009.06 473.939 916.961 498.38 832.336C520.791 749.454 547.676 670.781 583.876 607.204C620.076 543.626 666.468 495.581 717.701 484.041C759.066 480.557 800.662 498.339 840.459 525.482C883.391 555.892 925.31 593.196 965.245 630.573L965.383 630.138C925.448 592.761 883.484 555.456 840.551 525.047C805.688 501.242 769.488 484.622 733.196 483.243Z" fill="#BD3A4A"/>
<path d="M736.977 490.428C731.72 490.089 726.463 490.089 721.206 490.428C669.972 501.387 623.443 548.707 587.058 611.558C550.674 674.41 523.466 752.429 500.777 834.877C475.829 919.283 456.369 1011.6 433.865 1101.31C411.361 1191.01 385.076 1279.41 347.63 1351.33C282.147 1477.32 182.909 1544.17 87.4051 1526.53C-8.09851 1508.9 -97.6994 1407.22 -147.503 1260.03L-147.734 1260.25C-97.8839 1407.65 -8.23686 1509.4 87.3589 1527.04C182.955 1544.68 282.286 1477.76 347.815 1351.69C385.306 1279.7 411.545 1191.23 434.096 1101.52C456.646 1011.82 476.106 919.501 501.008 835.094C523.696 752.647 550.858 674.7 587.243 611.921C623.627 549.142 670.065 501.895 721.252 490.936C763.17 488.251 805.227 507.193 845.577 535.062C889.386 566.488 932.411 604.301 973.453 641.532L973.592 641.097C932.503 603.865 889.524 566.053 845.669 534.627C810.346 510.169 773.73 492.605 736.977 490.428Z" fill="#BD3A4A"/>
<path d="M724.757 497.323C673.523 507.701 626.994 554.15 590.425 616.203C553.856 678.256 526.371 755.623 503.406 837.635C477.997 921.751 458.214 1014.36 435.479 1104.43C412.745 1194.49 386.459 1283.25 348.876 1355.54C283.116 1482.41 183.278 1549.68 87.2208 1531.97C-8.83621 1514.27 -98.9444 1411.79 -148.887 1263.59L-149.117 1263.8C-99.1288 1412.15 -8.97453 1514.63 87.1747 1532.41C183.324 1550.19 283.254 1482.84 349.106 1355.9C386.69 1283.47 413.021 1194.64 435.756 1104.57C458.49 1014.5 478.227 921.969 503.637 837.852C526.602 755.913 554.086 678.619 590.609 616.566C627.132 554.513 673.662 508.209 724.803 497.758C767.321 496.016 809.792 515.975 850.696 544.57C895.427 577.157 939.467 615.405 981.708 652.492L981.8 651.984C939.605 614.969 895.52 576.649 850.788 544.135C809.885 515.539 767.367 495.508 724.757 497.323Z" fill="#BD3A4A"/>
<path d="M728.307 504.145C677.12 514.015 630.544 559.593 593.791 620.92C557.037 682.248 529.276 758.816 506.081 840.392C480.164 924.291 460.058 1017.12 437.139 1107.47C414.22 1197.83 387.889 1287.03 350.167 1359.75C284.084 1487.41 183.693 1555.27 87.0362 1537.35C-9.6203 1519.42 -100.143 1416.29 -150.316 1267.14L-150.547 1267.36C-100.328 1416.72 -9.71252 1519.93 87.0362 1537.85C183.785 1555.78 284.223 1487.92 350.351 1360.11C388.119 1287.32 414.497 1198.05 437.416 1107.69C460.335 1017.33 480.395 924.436 506.311 840.61C529.507 759.106 557.268 682.538 593.975 621.283C630.683 560.029 677.212 514.523 728.354 504.653C771.425 503.782 814.358 524.829 855.815 554.15C901.422 587.753 946.569 626.436 989.916 663.378L990.009 662.942C946.707 626.001 901.561 587.318 855.907 553.715C814.45 524.321 771.471 503.274 728.307 504.145Z" fill="#BD3A4A"/>
<path d="M731.859 510.967C680.717 520.329 634.095 565.109 597.204 625.638C560.312 686.167 532.228 762.009 508.709 843.15C482.332 926.758 461.857 1019.87 438.799 1110.52C415.742 1201.17 389.272 1290.88 351.458 1363.96C285.053 1492.49 184.062 1560.79 86.8519 1542.79C-10.3579 1524.79 -101.388 1420.86 -151.7 1270.7L-151.93 1270.99C-101.573 1421.22 -10.4502 1525.23 86.8519 1543.3C184.154 1561.37 285.191 1492.93 351.643 1364.25C389.503 1291.17 415.973 1201.46 439.03 1110.74C462.087 1020.02 482.562 926.976 508.94 843.368C532.458 762.3 560.496 686.457 597.388 626.001C634.28 565.544 680.81 520.837 731.859 511.475C775.575 511.475 818.923 533.611 860.934 563.657C907.464 598.349 953.671 637.54 998.125 674.337L998.263 673.901C953.809 637.105 907.556 597.914 861.072 563.222C819.016 533.175 775.621 510.967 731.859 510.967Z" fill="#BD3A4A"/>
<path d="M735.409 517.862C684.314 526.644 637.646 570.552 600.57 630.283C563.493 690.014 535.133 765.203 511.338 845.836C484.453 929.226 463.701 1022.63 440.459 1113.57C417.218 1204.51 390.655 1294.72 352.703 1368.17C286.021 1497.57 184.43 1566.38 86.6673 1548.23C-11.0959 1530.09 -102.634 1425.43 -153.129 1274.26L-153.36 1274.55C-102.818 1425.8 -11.1882 1530.52 86.6673 1548.67C184.523 1566.81 286.16 1498.01 352.934 1368.46C390.886 1294.94 417.448 1204.8 440.69 1113.79C463.932 1022.78 484.73 929.444 511.614 846.126C535.364 765.493 563.678 690.376 600.754 630.646C637.83 570.915 684.406 527.079 735.409 518.37C779.679 519.241 823.488 542.465 866.052 573.238C913.458 608.945 960.772 648.645 1006.33 685.296L1006.47 684.861C960.864 648.209 913.55 608.51 866.19 572.802C823.58 542.03 779.725 518.733 735.409 517.862Z" fill="#BD3A4A"/>
<path d="M738.96 524.684C687.911 532.958 641.197 575.996 603.936 635.001C566.676 694.005 538.038 768.396 514.013 848.594C486.62 931.766 465.546 1025.32 442.12 1116.69C418.693 1208.07 392.085 1298.5 353.994 1372.38C286.99 1502.65 184.8 1571.89 86.5291 1553.6C-11.7414 1535.31 -103.879 1429.93 -154.513 1277.81L-154.743 1278.1C-104.063 1430.37 -11.8797 1535.82 86.483 1554.11C184.846 1572.4 287.128 1503.09 354.179 1372.67C392.316 1298.79 418.924 1208.21 442.35 1116.84C465.777 1025.46 486.897 931.912 514.243 848.884C538.269 768.687 566.906 694.296 604.121 635.363C641.335 576.431 688.003 533.393 738.96 525.192C783.784 526.934 828.054 551.32 871.171 582.745C919.499 619.542 967.874 659.749 1014.59 696.255L1014.68 695.82C967.966 659.241 919.592 619.106 871.309 582.31C828.146 550.812 783.83 526.498 738.96 524.684Z" fill="#BD3A4A"/>
<path d="M742.511 531.579C691.508 539.272 644.748 581.511 607.303 639.718C569.857 697.924 540.943 771.662 516.641 851.351C488.788 934.234 467.39 1028.08 443.78 1119.74C420.169 1211.4 393.469 1302.34 355.286 1376.59C287.958 1507.66 185.214 1577.48 86.3445 1559.05C-12.5255 1540.61 -105.078 1434.5 -155.942 1281.44L-156.173 1281.66C-105.262 1434.87 -12.6177 1541.12 86.2984 1559.55C185.214 1577.99 288.096 1508.17 355.47 1376.88C393.699 1302.63 420.4 1211.62 444.01 1119.96C467.621 1028.29 489.064 934.452 516.872 851.642C541.174 771.952 570.088 698.287 607.487 640.153C644.886 582.019 691.554 539.707 742.511 532.087C787.934 534.699 832.665 560.101 876.29 592.325C925.494 630.21 974.929 670.781 1022.8 707.214L1022.89 706.706C975.068 670.345 925.632 629.775 876.428 591.89C832.757 559.666 787.98 534.191 742.511 531.579Z" fill="#BD3A4A"/>
<path d="M746.062 538.401C695.105 545.513 648.298 586.955 610.669 644.363C573.039 701.771 543.895 774.856 519.315 854.109C490.955 936.701 469.235 1030.83 445.44 1122.79C421.645 1214.74 394.852 1306.19 356.531 1380.8C288.926 1512.74 185.583 1583 86.1599 1564.49C-13.2635 1545.98 -106.323 1439 -157.326 1285L-157.603 1285.21C-106.507 1439.44 -13.3557 1546.42 86.1599 1564.92C185.675 1583.43 289.065 1513.18 356.761 1381.09C395.129 1306.41 421.829 1215.03 445.67 1123.01C469.512 1030.98 491.232 936.919 519.546 854.327C544.079 775.073 573.27 702.134 610.853 644.726C648.437 587.318 695.151 546.021 746.062 538.909C792.038 542.465 837.23 568.956 881.454 601.833C931.489 640.806 982.031 681.885 1031 718.101L1031.1 717.665C982.123 681.449 931.627 640.371 881.547 601.397C837.323 568.52 792.13 541.957 746.062 538.401Z" fill="#BD3A4A"/>
<path d="M749.612 545.296C698.656 551.828 651.849 592.47 614.081 649.08C576.313 705.69 546.8 778.049 521.944 856.867C493.122 939.242 471.08 1033.59 447.054 1125.91C423.028 1218.23 396.282 1309.96 357.822 1385.01C289.895 1517.82 185.952 1588.51 85.9755 1569.86C-14.0012 1551.21 -107.568 1443.58 -158.755 1288.55L-158.986 1288.77C-107.752 1443.94 -14.0934 1551.64 85.9755 1570.37C186.044 1589.09 290.033 1518.26 358.006 1385.3C396.512 1310.25 423.305 1218.37 447.331 1126.05C471.356 1033.74 493.399 939.387 522.175 857.085C547.031 778.339 576.498 706.053 614.22 649.443C651.942 592.833 698.748 552.336 749.612 545.731C796.188 550.158 841.796 577.81 886.527 611.413C937.53 651.403 989.132 692.989 1039.21 729.06L1039.35 728.624C989.224 692.554 937.622 650.967 886.665 610.978C841.888 577.302 796.234 549.723 749.612 545.296Z" fill="#BD3A4A"/>
<path d="M753.164 552.118H753.117C702.253 558.142 655.354 597.914 617.448 653.725C579.542 709.537 549.705 781.242 524.619 859.625C495.29 941.709 472.924 1036.35 448.714 1128.96C424.504 1221.56 397.665 1313.81 359.113 1389.22C290.863 1522.9 186.321 1594.1 85.8374 1575.3C-14.6466 1556.51 -108.767 1448.15 -160.139 1292.11L-160.369 1292.33C-108.951 1448.51 -14.831 1556.94 85.7913 1575.81C186.414 1594.68 291.002 1523.34 359.298 1389.51C397.896 1314.1 424.781 1221.78 448.991 1129.17C473.201 1036.57 495.567 941.927 524.85 859.843C549.936 781.533 579.68 709.972 617.586 654.161C655.493 598.349 702.345 558.65 753.164 552.626C800.293 557.924 846.361 586.592 891.692 620.921C943.525 661.999 996.234 704.021 1047.47 740.019L1047.56 739.583C996.326 703.585 943.663 661.563 891.784 620.485C846.454 586.156 800.385 557.416 753.164 552.118Z" fill="#BD3A4A"/>
<path d="M756.668 559.013C705.85 564.456 658.905 603.358 620.814 658.443C582.723 713.529 552.61 784.436 527.247 862.383C497.457 944.177 474.769 1039.11 450.374 1132.01C425.979 1224.9 399.095 1317.66 360.358 1393.35C291.832 1527.91 186.736 1599.62 85.6528 1580.75C-15.4307 1561.88 -110.012 1452.65 -161.568 1295.67L-161.799 1295.96C-110.196 1453.08 -15.569 1562.24 85.6067 1581.18C186.782 1600.12 291.97 1528.42 360.589 1393.72C399.325 1317.87 426.256 1225.19 450.651 1132.22C475.046 1039.25 497.688 944.395 527.478 862.601C552.841 784.727 582.908 713.892 620.999 658.806C659.089 603.72 705.942 564.964 756.714 559.449C804.443 565.69 850.927 595.447 896.811 630.501C949.566 672.668 1003.34 715.125 1055.68 750.978L1055.77 750.543C1003.43 714.69 949.658 672.233 896.903 630.066C851.019 595.011 804.489 565.182 756.714 559.013H756.668Z" fill="#BD3A4A"/>
<path d="M760.219 565.835C709.447 570.77 662.456 608.873 624.181 663.16C585.905 717.448 555.516 787.629 529.922 865.141C499.625 946.645 476.567 1041.79 452.034 1135.05C427.501 1228.31 400.478 1321.43 361.65 1397.56C292.8 1532.99 187.105 1605.2 85.4685 1586.12C-16.1684 1567.03 -111.257 1457.22 -162.952 1299.22L-163.182 1299.51C-111.441 1457.58 -16.3067 1567.54 85.4223 1586.63C187.151 1605.71 292.939 1533.43 361.834 1397.93C400.709 1321.72 427.732 1228.6 452.311 1135.27C476.89 1041.94 499.855 946.862 530.153 865.359C555.746 787.919 586.09 717.81 624.365 663.523C662.64 609.236 709.493 571.278 760.265 566.343C808.547 573.383 855.492 604.301 901.93 640.008C955.561 683.264 1010.39 726.229 1063.88 761.937L1063.98 761.429C1010.53 725.794 955.699 682.828 902.022 639.573C855.63 603.793 808.64 572.947 760.265 565.835H760.219Z" fill="#BD3A4A"/>
<path d="M763.77 572.729C713.044 577.084 666.007 614.316 627.547 667.877C589.087 721.439 558.421 790.822 532.551 867.826C501.792 949.184 478.412 1044.55 453.694 1138.17C428.977 1231.8 401.908 1325.28 362.941 1401.77C293.769 1538.07 187.474 1610.72 85.2839 1591.56C-16.9064 1572.4 -112.456 1461.72 -164.381 1302.78L-164.612 1303.07C-112.641 1462.16 -16.9986 1572.84 85.2839 1592.07C187.566 1611.3 293.907 1538.51 363.125 1402.13C402.138 1325.49 429.207 1231.94 453.925 1138.39C478.642 1044.84 502.023 949.402 532.781 868.116C558.651 791.112 589.318 721.656 627.731 668.24C666.145 614.824 713.09 577.592 763.77 573.165C812.698 581.148 860.057 613.082 907.048 649.588C961.602 693.86 1017.49 737.26 1072.14 772.896L1072.23 772.388C1017.59 736.825 961.694 693.424 907.141 649.152C860.196 612.646 812.744 580.64 763.816 572.729H763.77Z" fill="#BD3A4A"/>
<path d="M767.321 579.552C716.641 583.398 669.558 619.832 630.96 672.522C592.362 725.213 561.372 794.016 535.225 870.584C503.96 951.652 480.257 1047.31 455.355 1141.22C430.453 1235.14 403.291 1329.12 364.186 1405.98C294.737 1543.15 187.889 1616.31 85.1457 1596.93C-17.5979 1577.55 -113.701 1466.29 -165.765 1306.41L-165.995 1306.62C-113.885 1466.66 -17.7363 1578.13 85.0996 1597.44C187.935 1616.74 294.875 1543.59 364.416 1406.34C403.522 1329.34 430.683 1235.35 455.585 1141.44C480.487 1047.53 504.19 951.87 535.456 870.874C561.603 794.306 592.5 725.648 631.098 672.885C669.696 620.122 716.687 583.906 767.321 580.06C816.802 588.914 864.669 621.937 912.167 659.096C967.643 704.456 1024.59 748.365 1080.35 783.782L1080.44 783.347C1024.69 747.93 967.735 704.021 912.26 658.66C864.761 621.501 816.894 588.406 767.367 579.552H767.321Z" fill="#BD3A4A"/>
<path d="M770.871 586.374C720.191 589.713 673.108 625.275 634.326 677.24C595.543 729.205 564.277 797.209 537.854 873.342C506.081 954.12 482.101 1050.07 457.015 1144.27C431.928 1238.48 404.674 1332.9 365.477 1410.19C295.705 1548.16 188.258 1621.82 84.961 1602.37C-18.3359 1582.92 -114.946 1470.87 -167.194 1309.96L-167.425 1310.18C-115.131 1471.23 -18.4743 1583.43 84.9149 1602.88C188.304 1622.33 295.89 1548.67 365.708 1410.55C404.905 1333.19 432.159 1238.77 457.245 1144.49C482.332 1050.21 506.357 954.338 538.084 873.632C564.508 797.572 595.728 729.495 634.464 677.603C673.2 625.711 720.284 590.148 770.871 586.882C820.952 596.607 869.234 630.791 917.286 668.676C973.638 715.125 1031.7 759.469 1088.56 794.742L1088.65 794.306C1031.79 759.034 973.73 714.69 917.378 668.24C869.326 630.283 820.998 596.172 770.871 586.374Z" fill="#BD3A4A"/>
<path d="M774.422 593.27C723.788 596.027 676.659 630.719 637.692 681.886C598.725 733.052 567.183 800.476 540.528 876.101C508.248 956.661 483.945 1052.82 458.675 1147.39C433.404 1241.96 406.104 1336.74 366.768 1414.4C296.674 1553.24 188.627 1627.41 84.7765 1607.82C-19.0739 1588.22 -116.145 1475.37 -168.578 1313.52L-168.854 1313.74C-116.376 1475.8 -19.2122 1588.66 84.7303 1608.25C188.673 1627.85 296.812 1553.68 366.952 1414.76C406.334 1336.96 433.634 1242.18 458.905 1147.61C484.176 1053.04 508.525 956.878 540.759 876.391C567.413 800.766 598.909 733.415 637.83 682.321C676.751 631.227 723.88 596.463 774.422 593.705C825.056 604.374 873.799 639.573 922.404 678.184C979.679 725.722 1038.75 770.574 1096.76 805.701L1096.86 805.266C1038.89 770.066 979.771 725.286 922.542 677.749C873.891 639.138 825.148 603.866 774.468 593.27H774.422Z" fill="#BD3A4A"/>
<path d="M777.973 600.091C727.385 602.269 680.21 636.234 641.059 686.603C601.907 736.971 570.134 803.669 543.157 878.858C510.416 959.128 485.79 1055.58 460.289 1150.44C434.787 1245.3 407.487 1340.52 368.013 1418.61C297.642 1558.32 189.042 1632.93 84.5921 1613.19C-19.8577 1593.45 -117.39 1479.94 -170.007 1317.08L-170.238 1317.37C-117.575 1480.3 -19.9499 1593.96 84.5921 1613.7C189.134 1633.44 297.827 1558.76 368.244 1418.97C407.718 1340.81 435.064 1245.52 460.565 1150.66C486.067 1055.8 510.692 959.346 543.388 879.148C570.319 804.032 602.138 737.406 641.197 687.038C680.256 636.67 727.431 602.849 777.973 600.672C829.207 612.139 878.365 648.5 927.523 687.836C985.674 736.39 1045.85 781.678 1105.02 816.733V816.224C1045.95 781.243 985.766 735.955 927.615 687.401C878.411 647.992 829.207 611.704 777.973 600.164V600.091Z" fill="#BD3A4A"/>
<path d="M781.524 606.986C730.982 608.582 683.761 641.677 644.425 691.32C605.089 740.962 573.039 806.862 545.832 881.616C512.583 961.595 487.589 1058.34 461.949 1153.49C436.309 1248.64 408.871 1344.36 369.304 1422.82C298.657 1563.4 189.411 1638.52 84.4076 1618.63C-20.5956 1598.75 -118.636 1484.51 -171.391 1320.63L-171.667 1320.92C-118.82 1484.87 -20.6879 1599.25 84.4076 1619.14C189.503 1639.03 298.795 1563.84 369.489 1423.18C409.147 1344.65 436.54 1248.93 462.226 1153.71C487.911 1058.48 512.859 961.813 546.016 881.906C573.224 807.224 605.32 741.325 644.609 691.755C683.899 642.185 731.028 609.163 781.524 607.566C833.311 619.904 882.93 657.354 932.642 697.343C991.715 747.058 1052.96 792.782 1113.23 827.691L1113.32 827.183C1053.05 792.346 991.807 746.55 932.78 696.908C883.022 656.846 833.403 619.469 781.524 607.058V606.986Z" fill="#BD3A4A"/>
<path d="M785.075 613.808C734.579 614.897 687.265 647.121 647.791 695.965C608.317 744.809 575.945 810.055 548.46 884.301C514.75 964.063 489.433 1061.03 463.609 1156.61C437.785 1252.19 410.3 1348.21 370.596 1427.03C299.579 1568.41 189.78 1644.03 84.2694 1624.07C-21.2411 1604.12 -119.881 1489.01 -172.82 1324.19L-173.051 1324.48C-120.065 1489.45 -21.3795 1604.55 84.2233 1624.51C189.826 1644.47 299.717 1568.92 370.78 1427.39C410.531 1348.5 438.015 1252.41 463.84 1156.9C489.664 1061.39 514.981 964.426 548.691 884.664C576.129 810.418 608.548 745.244 647.976 696.473C687.404 647.701 734.625 615.477 785.075 614.389C837.461 627.67 887.495 666.136 937.76 706.924C997.71 757.655 1060.06 803.886 1121.44 838.578L1121.53 838.142C1060.15 803.378 997.802 757.22 937.899 706.488C887.588 665.7 837.507 627.162 785.075 613.881V613.808Z" fill="#BD3A4A"/>
<path d="M788.625 620.703C738.176 621.211 690.816 652.636 651.204 700.682C611.591 748.728 578.85 813.248 551.089 887.059C516.918 966.603 491.278 1063.78 465.269 1159.66C439.26 1255.53 411.684 1351.98 371.841 1431.24C300.547 1573.49 190.149 1649.62 84.0848 1629.45C-21.9791 1609.27 -121.08 1493.58 -174.204 1327.82L-174.48 1328.03C-121.264 1493.94 -22.1174 1609.85 84.0387 1629.95C190.195 1650.06 300.732 1573.92 372.071 1431.53C411.914 1352.28 439.491 1255.68 465.5 1159.87C491.508 1064.07 517.148 966.821 551.319 887.349C579.034 813.539 611.729 749.091 651.342 701.118C690.955 653.144 738.222 621.719 788.625 621.211C841.565 635.291 892.061 674.917 942.879 716.431C1003.75 768.178 1067.16 814.845 1129.64 849.464L1129.74 849.029C1067.25 814.41 1003.84 767.743 943.018 715.923C892.199 674.409 841.657 634.855 788.625 620.703Z" fill="#BD3A4A"/>
<path d="M792.176 627.525C741.727 627.525 694.367 658.08 654.57 705.4C614.773 752.72 581.755 816.442 553.763 889.817C519.085 969.071 493.122 1066.54 466.929 1162.71C440.736 1258.87 413.113 1355.83 373.132 1435.45C301.516 1578.57 190.564 1655.14 83.9005 1634.89C-22.7629 1614.64 -122.325 1498.08 -175.633 1331.37L-175.864 1331.59C-122.509 1498.52 -22.8551 1615.15 83.8543 1635.4C190.564 1655.65 301.654 1579 373.316 1435.74C413.344 1356.12 440.967 1259.09 467.16 1162.92C493.353 1066.76 519.316 969.288 553.994 890.107C581.985 816.732 614.958 753.01 654.708 705.763C694.459 658.515 741.819 628.033 792.13 628.033C845.67 643.057 896.672 683.699 947.998 725.939C1009.75 778.775 1074.21 825.95 1137.9 860.424V859.988C1074.26 825.514 1009.79 778.339 948.09 725.504C896.719 683.264 845.716 642.621 792.13 627.525H792.176Z" fill="#BD3A4A"/>
<path d="M795.727 634.419C745.324 633.839 697.918 663.595 657.936 710.044C617.955 756.493 584.66 819.635 556.392 892.575C521.252 971.611 494.967 1069.3 468.589 1165.75C442.212 1262.21 414.497 1359.68 374.423 1439.66C302.53 1583.65 190.933 1660.65 83.7159 1640.33C-23.5009 1620.01 -123.57 1502.65 -177.017 1334.93L-177.293 1335.15C-123.754 1503.02 -23.5931 1620.37 83.7159 1640.77C191.025 1661.16 302.669 1584.08 374.608 1439.95C414.727 1359.9 442.442 1262.5 468.82 1165.97C495.198 1069.44 521.483 971.828 556.622 892.865C584.891 819.998 618.139 756.929 658.075 710.48C698.01 664.031 745.37 634.347 795.681 634.855C849.82 650.822 901.238 692.553 953.163 735.446C1015.79 789.443 1081.32 837.053 1146.11 871.382V870.874C1081.36 836.545 1015.83 788.935 953.209 735.011C901.284 692.118 849.866 650.314 795.681 634.419H795.727Z" fill="#BD3A4A"/>
<path d="M799.232 641.242C748.921 640.153 701.469 669.039 661.303 714.762C621.137 760.485 587.612 822.828 559.067 895.332C523.42 974.078 496.812 1072.06 470.204 1168.87C443.595 1265.69 415.927 1363.45 375.668 1443.87C303.499 1588.66 191.302 1666.24 83.5316 1645.7C-24.2386 1625.16 -124.769 1507.23 -178.446 1338.49L-178.677 1338.7C-124.953 1507.59 -24.3308 1625.67 83.5316 1646.21C191.394 1666.75 303.637 1589.16 375.899 1444.16C416.157 1363.74 443.918 1265.91 470.48 1169.09C497.042 1072.27 523.65 974.296 559.251 895.623C587.796 823.191 621.321 760.848 661.441 715.197C701.561 669.547 748.967 640.661 799.232 641.75C853.924 658.515 905.803 701.408 958.236 745.026C1021.78 800.039 1088.42 848.158 1154.32 882.341L1154.41 881.833C1088.51 847.65 1021.87 799.604 958.374 744.591C905.896 700.972 854.016 658.079 799.278 641.242H799.232Z" fill="#BD3A4A"/>
<path d="M802.783 648.064C752.518 646.467 705.02 674.482 664.669 719.48C624.319 764.477 590.517 826.022 561.695 898.091C525.587 976.546 498.61 1074.81 471.864 1171.92C445.117 1269.03 417.31 1367.3 376.959 1448.08C304.421 1593.74 191.717 1671.76 83.3931 1651.15C-24.9304 1630.53 -126.014 1511.73 -179.83 1342.04L-180.106 1342.33C-126.198 1512.16 -25.0688 1630.97 83.347 1651.65C191.763 1672.34 304.605 1594.17 377.19 1448.37C417.54 1367.59 445.394 1269.25 472.14 1172.14C498.887 1075.03 525.818 976.764 561.926 898.381C590.701 826.385 624.549 764.767 664.807 719.842C705.066 674.917 752.564 646.903 802.783 648.572C858.074 666.281 910.368 710.19 963.354 754.534C1027.78 810.636 1095.52 859.189 1162.57 893.228V892.792C1095.57 858.754 1027.87 810.2 963.447 754.099C910.415 709.754 858.12 665.773 802.783 648.064Z" fill="#BD3A4A"/>
<path d="M806.334 654.959C756.115 652.709 708.571 679.998 668.082 724.125C627.593 768.251 593.422 829.288 564.37 900.849C527.755 979.014 500.455 1077.5 473.524 1174.97C446.593 1272.44 418.693 1371.15 378.251 1452.29C305.436 1598.82 192.086 1677.35 83.2088 1656.59C-25.6681 1635.83 -127.259 1516.3 -181.259 1345.6L-181.49 1345.89C-127.443 1516.66 -25.8064 1636.27 83.1627 1657.02C192.132 1677.78 305.574 1599.25 378.435 1452.58C418.97 1371.36 446.87 1272.66 473.8 1175.19C500.732 1077.72 527.985 979.304 564.554 901.139C593.607 829.579 627.731 768.687 668.22 724.56C708.709 680.434 756.161 653.217 806.334 655.467C862.179 674.047 914.934 719.044 968.519 764.115C1033.82 821.232 1102.62 870.294 1170.78 904.187V903.752C1102.67 869.859 1033.86 820.797 968.565 763.679C915.026 718.609 862.225 673.539 806.334 654.959Z" fill="#BD3A4A"/>
<path d="M809.884 661.781C759.712 659.023 712.121 685.441 671.448 728.842C630.775 772.243 596.327 832.482 566.998 903.607C529.922 981.554 502.299 1080.26 475.184 1178.09C448.068 1275.92 420.123 1374.92 379.542 1456.5C306.404 1603.9 192.454 1682.86 83.0242 1661.96C-26.4061 1641.06 -128.458 1520.8 -182.643 1349.23L-182.919 1349.44C-128.689 1521.23 -26.4983 1641.57 83.0242 1662.47C192.547 1683.37 306.542 1604.33 379.726 1456.79C420.353 1375.21 448.345 1276.07 475.461 1178.31C502.576 1080.55 530.153 981.772 567.229 903.897C596.558 832.772 630.959 772.606 671.586 729.278C712.213 685.949 759.758 659.531 809.884 662.289C866.329 681.74 919.499 727.899 973.638 773.622C1039.86 831.901 1109.68 881.398 1178.99 915.146L1179.08 914.638C1109.77 880.89 1039.95 831.393 973.73 773.186C919.637 727.391 866.421 681.304 809.931 661.781H809.884Z" fill="#BD3A4A"/>
<path d="M813.435 668.676C763.309 665.337 715.672 690.957 674.815 733.559C633.957 776.162 599.279 835.675 569.673 906.292C532.089 984.021 504.144 1083.02 476.844 1181.14C449.544 1279.26 421.506 1378.77 380.787 1460.7C307.372 1608.91 192.823 1688.45 82.8398 1667.4C-27.1438 1646.36 -129.703 1525.37 -184.072 1352.78L-184.303 1353C-129.887 1525.73 -27.236 1646.86 82.8398 1667.91C192.916 1688.96 307.511 1609.34 381.018 1460.99C421.737 1379.06 449.775 1279.48 477.075 1181.36C504.375 1083.23 532.32 984.239 569.857 906.654C599.463 836.037 634.141 776.597 674.953 733.995C715.764 691.392 763.309 665.918 813.435 669.256C870.433 689.578 924.065 736.753 978.757 783.274C1045.85 842.569 1116.78 892.502 1187.2 926.178L1187.29 925.67C1116.87 892.067 1045.95 842.134 978.849 782.839C924.203 736.317 870.525 689.142 813.482 668.748L813.435 668.676Z" fill="#BD3A4A"/>
<path d="M798.31 675.426C755.054 678.111 714.104 701.626 678.181 738.204C637.185 780.008 602.184 838.868 572.301 909.05C534.211 986.489 505.988 1085.77 478.504 1184.19C451.02 1282.6 422.936 1382.61 382.078 1464.84C308.341 1613.99 193.238 1693.97 82.7014 1672.85C-27.8356 1651.73 -130.948 1529.94 -185.456 1356.34L-185.732 1356.56C-131.133 1530.31 -27.974 1652.16 82.6553 1673.28C193.284 1694.4 308.479 1614.42 382.263 1465.2C423.166 1382.83 451.25 1282.82 478.735 1184.41C506.219 1085.99 534.441 986.779 572.532 909.413C602.368 839.304 637.369 780.517 678.319 738.712C719.269 696.908 766.905 672.232 816.986 676.079C874.583 697.344 928.63 745.607 983.875 792.855C1051.85 853.166 1123.88 903.606 1195.4 937.137L1195.5 936.629C1123.97 903.171 1051.99 852.73 983.968 792.346C928.768 745.172 874.676 696.836 817.032 675.571H816.986C810.714 675.135 804.489 675.063 798.31 675.498V675.426Z" fill="#BD3A4A"/>
<path d="M801.907 682.031C758.651 684.208 717.609 706.997 681.547 742.922C640.367 783.928 605.089 842.062 574.976 911.808C536.378 989.03 507.833 1088.53 480.164 1187.31C452.495 1286.09 424.319 1386.39 383.37 1469.05C309.309 1619.07 193.607 1699.55 82.5171 1678.22C-28.5733 1656.88 -132.147 1534.44 -186.885 1359.9L-187.116 1360.11C-132.378 1534.88 -28.7117 1657.39 82.4709 1678.73C193.654 1700.06 309.448 1619.5 383.554 1469.41C424.55 1386.68 452.726 1286.23 480.395 1187.53C508.064 1088.82 536.609 989.247 575.161 912.098C605.274 842.425 640.551 784.364 681.686 743.358C722.82 702.352 770.503 678.474 820.537 682.829C878.688 704.965 933.195 754.39 988.994 802.29C1057.89 863.69 1130.98 914.639 1203.66 947.951V947.516C1131.03 914.131 1057.94 863.254 989.086 801.855C933.288 753.881 878.734 704.529 820.537 682.393H820.491C814.266 681.813 808.04 681.74 801.907 682.031Z" fill="#BD3A4A"/>
<path d="M805.457 688.635C762.248 690.304 721.114 712.367 684.96 747.639C643.595 787.847 607.994 845.255 577.605 914.566C538.545 991.497 509.678 1091.29 481.824 1190.36C453.971 1289.42 425.703 1390.23 384.615 1473.26C310.278 1624.15 193.976 1705.07 82.3325 1683.66C-29.3113 1662.25 -133.392 1539.01 -188.269 1363.45L-188.545 1363.74C-133.577 1539.38 -29.4496 1662.69 82.2864 1684.17C194.022 1705.65 310.416 1624.58 384.845 1473.62C425.979 1390.52 454.202 1289.64 482.055 1190.57C509.908 1091.51 538.776 991.715 577.835 914.856C608.179 845.618 643.733 788.282 685.052 748.002C726.371 707.722 774.099 684.788 824.042 689.723C882.792 712.73 937.807 763.171 994.113 811.797C1063.88 874.358 1138.04 925.67 1211.87 958.91V958.474C1138.08 925.234 1063.98 873.85 994.159 811.362C937.853 762.735 882.884 712.222 824.042 689.215C817.77 688.635 811.545 688.417 805.411 688.635H805.457Z" fill="#BD3A4A"/>
<path d="M809.008 695.312C765.799 696.4 724.665 717.738 688.326 752.284C646.777 791.766 610.9 848.448 580.279 917.324C540.713 993.965 511.476 1094.05 483.438 1193.41C455.401 1292.76 427.132 1394.08 385.906 1477.47C311.246 1629.16 194.345 1710.66 82.1482 1689.1C-30.049 1667.55 -134.637 1543.59 -189.698 1367.01L-189.929 1367.3C-134.822 1543.95 -30.1873 1667.98 82.1482 1689.54C194.484 1711.09 311.384 1629.59 386.09 1477.83C427.363 1394.3 455.677 1293.05 483.715 1193.62C511.753 1094.19 540.944 994.255 580.464 917.614C611.084 848.811 646.961 792.202 688.418 752.72C729.876 713.238 777.697 691.102 827.593 696.546C886.942 720.496 942.372 772.025 999.232 821.377C1069.93 884.954 1145.14 936.774 1220.08 969.869L1220.17 969.361C1145.23 936.339 1070.06 884.519 999.37 820.942C942.511 771.59 887.081 719.988 827.639 696.11C821.413 695.384 815.188 695.167 809.008 695.312Z" fill="#BD3A4A"/>
<path d="M812.559 701.916C769.396 702.497 728.169 723.109 691.693 757.002C650.005 795.685 613.851 851.642 582.908 920.082C542.88 996.505 513.321 1096.73 485.099 1196.45C456.876 1296.17 428.516 1397.85 387.151 1481.68C312.214 1634.24 194.76 1716.17 81.9636 1694.47C-30.8331 1672.77 -135.882 1548.09 -191.082 1370.56L-191.358 1370.86C-136.067 1548.45 -30.9253 1673.28 81.9636 1694.98C194.852 1716.68 312.353 1634.67 387.381 1482.04C428.746 1398.14 457.153 1296.39 485.375 1196.67C513.597 1096.95 543.111 996.723 583.092 920.372C614.035 852.005 650.143 796.121 691.785 757.437C733.426 718.754 781.247 697.417 831.143 703.44C891.093 728.189 946.938 780.807 1004.35 830.885C1075.92 895.551 1152.24 947.879 1228.28 980.828L1228.38 980.32C1152.33 947.37 1076.06 895.115 1004.49 830.45C947.076 780.372 891.185 727.754 831.19 702.932C824.918 702.207 818.739 701.844 812.559 701.916Z" fill="#BD3A4A"/>
<path d="M816.11 708.593C772.947 708.593 731.72 728.479 695.059 761.647C653.187 799.604 616.756 854.835 585.536 922.839C545.048 998.972 515.165 1099.49 486.759 1199.57C458.352 1299.66 429.945 1401.7 388.442 1485.89C313.183 1639.32 195.129 1721.69 81.8254 1699.92C-31.4785 1678.14 -137.081 1552.66 -192.511 1374.19L-192.742 1374.41C-137.266 1553.02 -31.6168 1678.58 81.7793 1700.43C195.175 1722.27 313.321 1639.75 388.673 1486.25C430.176 1401.99 458.629 1299.8 487.035 1199.79C515.442 1099.78 545.278 999.263 585.767 923.13C616.941 855.198 653.371 800.04 695.197 762.082C737.023 724.125 784.844 703.731 834.694 710.263C895.197 735.955 951.503 789.661 1009.47 840.465C1081.96 906.147 1159.34 958.91 1236.54 991.787V991.279C1159.39 958.475 1082.01 905.711 1009.56 840.03C951.595 789.226 895.243 735.447 834.694 709.827C828.469 708.956 822.29 708.593 816.11 708.593Z" fill="#BD3A4A"/>
<path d="M819.661 715.198C776.544 714.69 735.225 733.85 698.425 766.364C656.415 803.523 619.661 858.028 588.211 925.525C547.215 1001.44 517.01 1102.25 488.419 1202.62C459.828 1303 431.329 1405.55 389.733 1490.1C314.151 1644.32 195.498 1727.28 81.6408 1705.36C-32.2165 1683.44 -138.326 1557.16 -193.895 1377.75L-194.171 1377.97C-138.511 1557.59 -32.3548 1683.88 81.5946 1705.8C195.544 1727.71 314.29 1644.83 389.918 1490.46C431.559 1405.76 460.058 1303.21 488.649 1202.84C517.24 1102.47 547.446 1001.73 588.395 925.888C619.846 858.391 656.553 803.959 698.563 766.8C740.574 729.64 788.441 710.045 838.245 717.157C899.301 743.72 956.068 798.516 1014.59 850.045C1087.96 916.815 1166.4 970.014 1244.75 1002.75V1002.24C1166.44 969.579 1088.05 916.307 1014.68 849.537C956.16 798.08 899.393 743.212 838.245 716.649C832.02 715.778 825.84 715.27 819.661 715.198Z" fill="#BD3A4A"/>
<path d="M823.258 721.875C780.095 720.786 738.776 739.221 701.792 771.082C659.597 807.443 622.567 861.294 590.84 928.283C549.383 1003.98 518.855 1105.01 490.079 1205.67C461.303 1306.33 432.712 1409.32 390.979 1494.31C315.12 1649.4 195.913 1732.79 81.4565 1710.73C-33.0003 1688.67 -139.571 1561.73 -195.324 1381.31L-195.555 1381.52C-139.756 1562.09 -33.0925 1689.18 81.4104 1711.24C195.913 1733.3 315.258 1649.84 391.209 1494.6C432.989 1409.61 461.534 1306.62 490.31 1205.89C519.085 1105.15 549.613 1004.2 591.07 928.646C622.751 861.657 659.781 807.806 701.93 771.517C744.079 735.229 792.038 716.286 841.796 723.98C903.452 751.413 960.634 807.297 1019.71 859.553C1094 927.412 1173.5 981.118 1252.95 1013.63L1253.05 1013.2C1173.59 980.61 1094.09 926.976 1019.84 859.117C960.772 806.862 903.59 750.978 841.842 723.544C835.617 722.528 829.391 722.02 823.258 721.875Z" fill="#BD3A4A"/>
<path d="M826.809 728.479C783.691 726.882 742.28 744.591 705.204 775.726C662.825 811.361 625.472 864.488 593.514 931.04C551.55 1006.45 520.699 1107.76 491.739 1208.79C462.779 1309.82 434.142 1413.17 392.27 1498.52C316.088 1654.48 196.282 1738.38 81.2719 1716.17C-33.7383 1693.97 -140.771 1566.3 -196.708 1384.86L-196.984 1385.08C-141.001 1566.67 -33.8305 1694.4 81.2719 1716.68C196.374 1738.96 316.226 1654.92 392.5 1498.81C434.372 1413.38 463.01 1309.96 491.97 1209.01C520.93 1108.05 551.78 1006.67 593.699 931.403C625.656 864.85 662.963 811.724 705.296 776.162C747.63 740.599 795.635 722.6 845.347 730.874C907.556 759.179 965.199 816.151 1024.83 869.132C1099.99 938.008 1180.6 992.222 1261.21 1024.59V1024.08C1180.69 991.714 1100.13 937.572 1024.96 868.624C965.337 815.716 907.694 758.671 845.393 730.366C839.167 729.35 832.988 728.697 826.809 728.479Z" fill="#BD3A4A"/>
<path d="M830.36 735.084C787.288 732.979 745.785 749.962 708.571 780.444C666.007 815.281 628.423 867.681 596.143 933.799C553.717 1008.92 522.544 1110.52 493.399 1211.84C464.255 1313.16 435.525 1417.01 393.561 1502.73C317.057 1659.57 196.651 1743.9 81.1336 1721.62C-34.3837 1699.34 -142.015 1570.8 -198.137 1388.42L-198.368 1388.71C-142.2 1571.17 -34.5682 1699.7 81.0875 1722.05C196.743 1744.41 317.195 1660 393.745 1503.02C435.756 1417.23 464.485 1313.37 493.63 1212.06C522.774 1110.74 553.948 1009.21 596.327 934.162C628.562 868.117 666.145 815.717 708.663 780.952C751.181 746.188 799.186 728.988 848.898 737.769C911.706 766.873 969.811 825.006 1029.94 878.641C1106.03 948.604 1187.7 1003.25 1269.42 1035.55V1035.04C1187.75 1002.82 1106.08 948.169 1030.04 878.205C969.857 824.571 911.752 766.437 848.898 737.189H848.852C842.672 736.1 836.447 735.447 830.313 735.084H830.36Z" fill="#BD3A4A"/>
<path d="M833.91 741.761C790.839 739.076 749.336 755.333 711.937 785.162C669.235 819.2 631.328 870.875 598.817 936.556C555.839 1011.38 524.342 1113.28 495.059 1214.89C465.776 1316.5 436.955 1420.79 394.806 1506.94C318.025 1664.57 197.066 1749.49 80.9491 1726.99C-35.1678 1704.49 -143.261 1575.38 -199.567 1391.97L-199.797 1392.27C-143.445 1575.74 -35.3062 1705 80.903 1727.5C197.112 1750 318.163 1665.08 395.036 1507.23C437.185 1421.08 465.961 1316.79 495.29 1215.11C524.619 1113.43 556.115 1011.67 599.002 936.919C631.467 871.31 669.373 819.636 712.029 785.67C754.685 751.704 802.783 735.302 852.448 744.664C915.81 774.711 974.376 833.861 1035.06 888.293C1112.03 959.346 1194.8 1014.43 1277.63 1046.58V1046.07C1194.85 1013.92 1112.12 958.838 1035.16 887.858C974.468 833.425 915.902 774.275 852.448 744.156H852.402C846.223 742.995 839.997 742.196 833.864 741.833L833.91 741.761Z" fill="#BD3A4A"/>
<path d="M819.108 748.148C782.631 749.89 747.491 764.913 715.303 789.807C672.417 823.047 634.234 874.068 601.446 939.315C558.006 1013.92 526.187 1115.97 496.72 1217.94C467.252 1319.91 438.338 1424.63 396.097 1511.15C318.993 1669.65 197.435 1755 80.7648 1732.43C-35.9055 1709.86 -144.46 1579.88 -200.95 1395.6L-201.181 1395.82C-144.69 1580.31 -36.0438 1710.3 80.7187 1732.94C197.481 1755.58 319.132 1670.09 396.328 1511.44C438.569 1424.85 467.437 1320.2 496.95 1218.23C526.464 1116.26 558.237 1014.14 601.631 939.605C634.418 874.431 672.555 823.482 715.442 790.315C758.328 757.147 806.38 741.543 855.953 751.414C919.96 782.404 978.941 842.643 1040.23 897.728C1118.07 969.869 1201.91 1025.46 1285.83 1057.4V1056.96C1201.91 1024.96 1118.12 969.434 1040.27 897.293C979.033 842.207 920.007 781.896 855.999 750.906H855.953C843.72 748.476 831.386 747.554 819.061 748.148H819.108Z" fill="#BD3A4A"/>
<path d="M822.704 754.534C786.181 755.84 750.996 770.138 718.716 794.524C675.644 826.965 637.139 877.261 604.121 942.072C560.173 1016.39 528.031 1118.72 498.333 1221.06C468.636 1323.39 439.768 1428.41 397.388 1515.35C319.962 1674.73 197.804 1760.59 80.5801 1737.87C-36.6435 1715.16 -145.705 1584.45 -202.334 1399.16L-202.61 1399.38C-145.889 1584.81 -36.7357 1715.59 80.5801 1738.31C197.896 1761.03 320.1 1675.17 397.573 1515.65C439.998 1428.7 468.912 1323.53 498.564 1221.27C528.216 1119.01 560.404 1016.68 604.305 942.362C637.323 877.624 675.783 827.401 718.808 794.959C761.833 762.517 809.977 747.857 859.504 758.235C924.064 790.097 983.506 851.496 1045.35 907.308C1124.11 980.465 1208.96 1036.49 1294.09 1068.36V1067.92C1209.01 1036.06 1124.16 980.03 1045.44 906.872C983.599 851.134 924.157 789.734 859.55 757.873H859.504C847.311 755.256 835.007 754.14 822.704 754.534Z" fill="#BD3A4A"/>
<path d="M826.255 760.921C789.733 761.719 754.501 775.436 722.082 799.242C678.827 830.885 640.044 880.455 606.749 944.758C562.341 1018.86 529.876 1121.48 499.994 1224.11C470.111 1326.73 441.151 1432.26 398.68 1519.56C320.93 1679.81 198.173 1766.11 80.3959 1743.25C-37.3811 1720.38 -146.95 1589.02 -203.763 1402.72L-203.994 1402.93C-147.134 1589.38 -37.4734 1720.89 80.3959 1743.75C198.265 1766.62 321.069 1680.25 398.864 1519.86C441.382 1432.55 470.388 1326.95 500.224 1224.32C530.061 1121.7 562.571 1019.15 606.934 945.121C640.229 880.818 678.965 831.32 722.174 799.677C765.384 768.034 813.528 754.172 863.055 765.131C928.215 797.863 988.072 860.279 1050.47 916.816C1130.11 991.134 1216.06 1047.6 1302.3 1079.31V1078.88C1216.11 1047.16 1130.15 990.626 1050.56 916.38C988.164 859.843 928.261 797.427 863.101 764.623H863.055C850.866 761.924 838.564 760.686 826.255 760.921Z" fill="#BD3A4A"/>
<path d="M829.806 767.381C793.283 767.598 758.005 780.735 725.448 803.887C682.054 834.804 642.995 883.648 609.424 947.516C564.508 1021.4 531.72 1124.24 501.654 1227.15C471.587 1330.07 442.535 1436.1 399.925 1523.77C321.898 1684.82 198.588 1771.7 80.2574 1748.69C-38.073 1725.68 -148.195 1593.52 -205.193 1406.27L-205.423 1406.49C-148.379 1593.96 -38.2113 1726.19 80.2113 1749.2C198.634 1772.2 322.037 1685.33 400.155 1524.06C442.811 1436.32 471.864 1330.36 501.884 1227.44C531.905 1124.53 564.739 1021.69 609.608 947.879C643.134 884.084 682.193 835.24 725.541 804.395C768.888 773.55 817.125 760.486 866.606 771.953C932.319 805.628 992.637 869.133 1055.58 926.396C1136.1 1001.73 1223.16 1058.7 1310.51 1090.27V1089.77C1223.21 1058.2 1136.19 1001.22 1055.68 925.961C992.729 868.698 932.411 805.12 866.606 771.517C854.411 768.634 842.091 767.251 829.76 767.381H829.806Z" fill="#BD3A4A"/>
<path d="M833.357 773.767C796.88 773.476 761.51 786.032 728.815 808.603C685.237 838.723 645.901 886.841 612.052 950.273C566.676 1023.87 533.565 1127 503.314 1230.27C473.063 1333.55 443.964 1439.95 401.216 1527.98C322.867 1689.9 198.957 1777.21 80.0731 1754.06C-38.8107 1730.91 -149.394 1598.09 -206.576 1409.83L-206.807 1410.05C-149.578 1598.45 -38.949 1731.42 80.0269 1754.57C199.003 1777.72 323.005 1690.34 401.4 1528.27C444.195 1440.17 473.339 1333.77 503.545 1230.49C533.75 1127.21 566.906 1024.16 612.237 950.636C646.039 887.276 685.375 839.158 728.907 809.039C772.44 778.92 820.722 766.799 870.157 778.847C936.47 813.321 997.203 877.987 1060.7 935.903C1142.14 1012.33 1230.27 1069.73 1318.71 1101.23V1100.72C1230.27 1069.3 1142.19 1011.89 1060.79 935.467C997.295 877.551 936.516 812.885 870.157 778.339C857.966 775.35 845.649 773.821 833.311 773.767H833.357Z" fill="#BD3A4A"/>
<path d="M836.954 780.153C800.431 779.355 765.015 791.258 732.227 813.321C688.464 842.642 648.806 890.107 614.727 953.031C568.843 1026.33 535.41 1129.75 504.974 1233.32C474.538 1336.89 445.348 1443.72 402.507 1532.12C323.835 1694.98 199.326 1782.73 79.8885 1759.5C-39.5487 1736.28 -150.639 1602.66 -207.96 1413.38L-208.236 1413.67C-150.823 1603.03 -39.687 1736.71 79.8424 1760.01C199.372 1783.31 323.974 1695.42 402.692 1532.48C445.578 1444.01 474.769 1337.11 505.205 1233.54C535.64 1129.97 569.073 1026.62 614.911 953.394C648.99 890.47 688.603 843.077 732.273 813.756C775.944 784.435 824.318 773.041 873.707 785.669C940.574 821.087 1001.81 886.768 1065.82 945.483C1148.14 1022.92 1237.32 1080.84 1326.97 1112.19V1111.68C1237.37 1080.4 1148.23 1022.49 1065.91 945.048C1001.91 886.333 940.666 820.651 873.707 785.234C861.525 782.079 849.208 780.381 836.862 780.153H836.954Z" fill="#BD3A4A"/>
<path d="M840.505 786.541C803.982 785.307 768.52 796.556 735.594 817.966C691.647 846.562 651.711 893.301 617.356 955.789C571.01 1028.87 537.208 1132.51 506.634 1236.37C476.06 1340.23 446.777 1447.57 403.752 1536.33C324.804 1700.06 199.695 1788.32 79.7042 1764.95C-40.2863 1741.58 -151.884 1607.16 -209.389 1417.01L-209.62 1417.23C-152.068 1607.53 -40.4247 1742.01 79.7042 1765.45C199.833 1788.9 324.942 1700.5 403.983 1536.69C447.008 1447.79 476.245 1340.52 506.865 1236.59C537.485 1132.66 571.241 1029.09 617.54 956.152C651.896 893.664 691.785 846.997 735.64 818.474C779.495 789.952 827.916 779.356 877.258 792.565C944.724 828.853 1006.38 895.623 1070.94 954.991C1154.18 1033.52 1244.42 1091.94 1335.18 1123.08V1122.64C1244.47 1091.44 1154.22 1033.08 1071.03 954.556C1006.47 895.188 944.77 828.345 877.258 792.057C865.092 788.831 852.793 786.988 840.459 786.541H840.505Z" fill="#BD3A4A"/>
<path d="M844.056 792.927C807.533 791.185 772.024 801.854 738.96 822.684C694.874 850.481 654.616 896.494 619.984 958.547C573.178 1031.34 539.053 1135.2 508.248 1239.49C477.443 1343.78 448.161 1451.34 405.043 1540.54C325.772 1705.07 200.11 1793.83 79.5657 1770.32C-40.9782 1746.8 -153.083 1611.74 -210.819 1420.57L-211.049 1420.79C-153.314 1612.1 -41.1166 1747.31 79.5195 1770.82C200.156 1794.34 325.911 1705.58 405.228 1540.9C448.391 1451.63 477.72 1343.93 508.525 1239.71C539.329 1135.49 573.408 1031.63 620.215 958.91C654.801 896.857 695.013 850.916 739.052 823.119C783.092 795.322 831.512 785.67 880.809 799.387C948.828 836.546 1010.94 904.478 1076.06 964.571C1160.22 1044.19 1251.53 1102.97 1343.39 1134.04V1133.53C1251.57 1102.54 1160.26 1043.68 1076.15 964.136C1011.04 904.042 948.92 836.11 880.809 798.951C868.665 795.563 856.382 793.55 844.056 792.927Z" fill="#BD3A4A"/>
<path d="M829.437 799.241C799.594 800.763 770.135 810.286 742.327 827.401C698.057 854.4 657.568 899.687 622.659 961.305C575.299 1033.81 540.897 1137.96 509.908 1242.54C478.919 1347.12 449.544 1455.19 406.335 1544.75C326.741 1710.15 200.479 1799.42 79.3813 1775.76C-41.7159 1752.1 -154.328 1616.24 -212.202 1424.13L-212.433 1424.34C-154.513 1616.67 -41.8542 1752.61 79.3352 1776.27C200.525 1799.93 326.879 1710.59 406.519 1545.11C449.775 1455.48 479.196 1347.34 510.185 1242.76C541.174 1138.17 575.53 1034.1 622.843 961.668C657.706 900.123 698.195 854.908 742.419 827.909C786.643 800.911 835.063 792.056 884.314 806.354C952.979 844.384 1015.51 913.332 1081.18 974.151C1166.21 1054.86 1258.63 1114.15 1351.59 1145.07V1144.56C1258.63 1113.72 1166.26 1054.42 1081.27 973.716C1015.6 912.896 953.025 843.949 884.36 805.846C866.257 800.541 847.843 798.326 829.437 799.241Z" fill="#BD3A4A"/>
<path d="M832.988 805.338C803.14 806.409 773.623 815.44 745.693 832.046C701.284 858.319 660.473 902.881 625.287 964.063C577.466 1036.28 542.742 1140.71 511.568 1245.59C480.395 1350.46 450.974 1459.04 407.58 1548.96C327.709 1715.23 200.847 1804.94 79.1968 1781.2C-42.4539 1757.47 -155.573 1620.81 -213.632 1427.68L-213.862 1427.9C-155.758 1621.17 -42.5922 1757.91 79.1507 1781.71C200.894 1805.52 327.847 1715.67 407.81 1549.32C451.204 1459.25 480.672 1350.68 511.845 1245.81C543.019 1140.93 577.697 1036.64 625.472 964.426C660.611 903.389 701.377 858.827 745.785 832.627C790.194 806.427 838.66 798.371 887.911 813.176C957.083 852.15 1020.08 922.186 1086.3 983.731C1172.21 1065.45 1265.73 1125.26 1359.8 1156.03L1359.9 1155.52C1265.77 1124.75 1172.35 1065.02 1086.43 983.296C1020.21 921.751 957.221 851.642 887.957 812.741H887.911C869.819 807.241 851.41 804.759 832.988 805.338Z" fill="#BD3A4A"/>
<path d="M836.539 811.507C806.685 812.144 777.112 820.682 749.059 836.764C704.466 862.238 663.378 906.075 627.962 966.749C579.634 1038.82 544.587 1143.47 513.229 1248.64C481.871 1353.8 452.357 1462.81 408.871 1553.17C328.678 1720.31 201.263 1810.52 79.0124 1786.57C-43.2377 1762.62 -156.772 1625.38 -215.015 1431.24L-215.246 1431.46C-157.003 1625.74 -43.3299 1763.2 79.0124 1787.08C201.355 1810.96 328.816 1720.75 409.056 1553.53C452.588 1463.1 482.147 1354.09 513.459 1248.93C544.771 1143.76 579.864 1039.11 628.147 967.112C663.517 906.51 704.605 862.674 749.151 837.199C793.698 811.725 842.257 804.612 891.415 819.926C961.187 859.771 1024.64 930.968 1091.42 993.167C1178.25 1076.05 1272.78 1136.29 1368.06 1166.91V1166.41C1272.83 1135.78 1178.3 1075.54 1091.51 992.731C1024.73 930.533 961.279 859.335 891.462 819.491C873.382 813.81 854.974 811.134 836.539 811.507Z" fill="#BD3A4A"/>
<path d="M840.136 817.603C810.271 817.773 780.636 825.844 752.472 841.481C707.694 866.157 666.283 909.268 630.59 969.506C581.801 1041.28 546.431 1146.23 514.889 1251.76C483.346 1357.28 453.741 1466.66 410.162 1557.38C329.646 1725.32 201.631 1816.04 78.8278 1792.02C-43.9757 1767.99 -158.017 1629.88 -216.445 1434.79L-216.675 1435.09C-158.202 1630.24 -44.0679 1768.43 78.8278 1792.53C201.724 1816.62 329.784 1725.83 410.346 1557.74C454.017 1466.95 483.623 1357.5 515.119 1251.97C546.616 1146.45 582.032 1041.57 630.775 969.869C666.422 909.703 707.786 866.592 752.518 841.916C798.24 816.552 847.496 811.332 894.966 826.82C965.337 867.536 1029.21 939.75 1096.53 1002.75C1184.24 1086.64 1279.89 1147.32 1376.27 1177.8V1177.37C1279.93 1146.88 1184.34 1086.21 1096.63 1002.31C1029.3 939.314 965.429 867.1 895.012 826.312H894.966C876.896 820.46 858.492 817.542 840.043 817.603H840.136Z" fill="#BD3A4A"/>
<path d="M843.687 823.772C813.818 823.482 784.127 831.037 755.838 846.126C710.876 870.004 669.235 912.461 633.265 972.264C583.969 1043.75 548.23 1148.99 516.549 1254.8C484.868 1360.62 455.17 1470.5 411.407 1561.59C330.614 1730.4 202 1821.63 78.6896 1797.46C-44.6211 1773.29 -159.262 1634.45 -217.828 1438.42L-218.059 1438.64C-159.447 1634.82 -44.8056 1773.73 78.6435 1797.9C202.093 1822.06 330.753 1730.83 411.638 1561.95C455.401 1470.79 485.099 1360.98 516.779 1255.1C548.46 1149.21 584.199 1044.19 633.404 972.699C669.373 912.969 711.015 870.584 755.884 846.706C801.808 822.167 851.095 817.653 898.517 833.643C969.442 875.302 1033.77 948.604 1101.7 1012.25C1190.28 1097.24 1286.99 1158.42 1384.47 1188.76V1188.25C1287.03 1157.91 1190.33 1096.81 1101.74 1011.82C1033.91 948.169 969.534 874.794 898.563 833.207H898.517C880.478 827.121 862.09 823.96 843.641 823.772H843.687Z" fill="#BD3A4A"/>
<path d="M847.237 829.869C817.359 829.161 787.611 836.249 759.204 850.843C714.104 873.923 672.14 915.654 635.894 975.022C586.136 1046.29 550.074 1151.67 518.209 1257.85C486.344 1364.03 456.554 1474.28 412.698 1565.8C331.583 1735.48 202.415 1827.14 78.505 1802.83C-45.4052 1778.52 -160.508 1638.95 -219.258 1441.98L-219.488 1442.2C-160.692 1639.39 -45.5436 1779.03 78.4589 1803.34C202.461 1827.65 331.721 1735.92 412.883 1566.09C456.784 1474.57 486.528 1364.25 518.439 1258.14C550.351 1152.04 586.366 1046.58 636.078 975.385C672.278 916.09 714.196 874.431 759.251 851.279C804.305 828.127 853.002 823.555 902.068 840.538C973.592 882.995 1038.38 957.386 1106.82 1021.83C1196.28 1107.84 1294.09 1169.53 1392.68 1199.72L1392.77 1199.21C1294.14 1169.02 1196.42 1107.4 1106.91 1021.4C1038.52 957.023 973.73 882.559 902.16 840.029H902.114C884.086 833.741 865.7 830.337 847.237 829.869Z" fill="#BD3A4A"/>
<path d="M850.788 836.037C820.899 834.816 791.088 841.414 762.571 855.56C717.286 877.841 675.045 918.92 638.568 977.779C588.303 1048.76 551.919 1154.43 519.869 1260.97C487.819 1367.52 457.983 1478.12 413.944 1570C332.551 1740.56 202.784 1832.73 78.3208 1808.27C-46.1429 1783.82 -161.706 1643.52 -220.641 1445.54L-220.872 1445.75C-161.891 1643.89 -46.2352 1784.32 78.2746 1808.78C202.784 1833.24 332.69 1740.99 414.174 1570.29C458.214 1478.41 488.004 1367.66 520.1 1261.19C552.196 1154.72 588.534 1049.05 638.707 978.142C675.184 919.282 717.379 878.349 762.663 855.996C807.948 833.642 856.599 829.796 905.619 847.359C977.742 890.76 1042.95 966.24 1111.94 1031.34C1202.32 1118.51 1301.14 1180.56 1400.94 1210.68V1210.17C1301.19 1180.12 1202.37 1118 1111.98 1030.91C1043.04 965.804 977.788 890.324 905.665 846.924H905.619C887.602 840.437 869.219 836.79 850.742 836.037H850.788Z" fill="#BD3A4A"/>
<path d="M836.262 842.134C812.435 843.299 788.807 849.375 765.983 860.206C720.514 881.761 677.95 922.114 641.197 980.538C590.471 1051.23 553.763 1157.19 521.483 1264.02C489.203 1370.85 459.367 1481.97 415.235 1574.21C333.519 1745.57 203.153 1838.25 78.1361 1813.72C-46.8809 1789.19 -162.952 1648.1 -222.071 1449.09L-222.301 1449.31C-163.136 1648.46 -46.9731 1789.62 78.1361 1814.15C203.245 1838.68 333.658 1746.08 415.465 1574.51C459.597 1482.19 489.479 1371.07 521.76 1264.24C554.04 1157.41 590.701 1051.52 641.381 980.901C678.089 922.477 720.606 882.197 766.029 860.714C811.452 839.231 860.196 836.11 909.169 854.255C981.846 898.454 1047.51 975.095 1117.05 1040.92C1208.32 1129.1 1308.25 1191.66 1409.15 1221.64V1221.13C1308.29 1191.16 1208.41 1128.67 1117.15 1040.49C1047.61 974.659 981.939 898.018 909.216 853.747H909.169C885.283 844.831 860.753 840.927 836.216 842.134H836.262Z" fill="#BD3A4A"/>
<path d="M839.813 847.94C815.958 848.786 792.273 854.495 769.35 864.923C723.696 885.68 680.856 925.307 643.872 983.296C592.638 1053.77 555.608 1159.95 523.143 1267.07C490.679 1374.19 460.796 1485.74 416.526 1578.42C334.488 1750.65 203.522 1843.84 77.9518 1819.09C-47.6185 1794.34 -164.197 1652.6 -223.454 1452.65L-223.685 1452.87C-164.381 1652.96 -47.7108 1794.92 77.9518 1819.6C203.614 1844.27 334.626 1751.08 416.711 1578.71C461.027 1486.03 490.955 1374.41 523.374 1267.29C555.793 1160.17 592.823 1054.06 644.01 983.659C680.994 925.743 723.789 886.116 769.396 865.359C815.003 844.602 863.793 842.425 912.721 861.077C985.951 906.219 1052.08 983.876 1122.17 1050.43C1214.36 1139.7 1315.35 1202.77 1417.4 1232.52V1232.09C1315.44 1202.26 1214.45 1139.26 1122.31 1049.99C1052.22 983.514 986.089 905.784 912.767 860.641C888.886 851.442 864.347 847.172 839.767 847.94H839.813Z" fill="#BD3A4A"/>
<path d="M843.318 853.818C819.447 854.249 795.714 859.567 772.716 869.64C726.924 889.599 683.761 928.5 646.5 985.981C594.805 1056.23 557.453 1162.7 524.803 1270.12C492.154 1377.53 462.18 1489.59 417.817 1582.63C335.456 1755.73 203.937 1849.35 77.8133 1824.53C-48.3104 1799.71 -165.396 1657.17 -224.884 1456.2L-225.114 1456.42C-165.626 1657.53 -48.4488 1800.22 77.7672 1825.04C203.983 1849.86 335.595 1756.16 418.002 1582.92C462.41 1489.81 492.431 1377.82 525.034 1270.41C557.637 1162.99 594.99 1056.53 646.685 986.416C683.899 928.935 727.016 890.034 772.762 870.076C818.508 850.117 867.39 848.738 916.271 867.971C990.101 913.984 1056.64 992.73 1127.29 1060.01C1220.35 1150.29 1322.45 1213.8 1425.61 1243.48V1243.05C1322.45 1213.36 1220.44 1149.86 1127.38 1059.57C1056.74 992.295 990.193 913.549 916.271 867.463C892.407 858.033 867.875 853.447 843.272 853.818H843.318Z" fill="#BD3A4A"/>
<path d="M846.869 859.698C822.973 859.759 799.182 864.662 776.083 874.285C730.106 893.518 686.712 931.694 649.129 988.739C596.927 1058.7 559.251 1165.46 526.464 1273.24C493.676 1381.02 463.563 1493.44 419.062 1586.84C336.425 1760.81 204.306 1854.87 77.629 1829.97C-49.0481 1805.08 -166.641 1661.67 -226.267 1459.76L-226.498 1460.05C-166.825 1662.1 -49.1865 1805.44 77.5829 1830.41C204.352 1855.38 336.563 1761.24 419.293 1587.13C463.84 1493.65 493.907 1381.23 526.694 1273.46C559.482 1165.68 597.157 1058.99 649.313 989.174C686.851 932.202 730.198 894.026 776.129 874.866C822.059 855.706 870.941 855.125 919.776 874.866H919.822C994.205 921.75 1061.21 1001.66 1132.41 1069.59C1226.39 1161.04 1329.55 1224.98 1433.82 1254.51V1254.01C1329.55 1224.54 1226.44 1160.53 1132.5 1069.15C1061.35 1001.22 994.297 921.315 919.868 874.431H919.822C896.002 864.649 871.486 859.698 846.869 859.698Z" fill="#BD3A4A"/>
<path d="M850.419 865.576C826.494 865.217 802.639 869.73 779.449 879.003C733.334 897.437 689.617 934.887 651.803 991.497C599.094 1061.24 561.096 1168.22 528.124 1276.29C495.152 1384.35 464.993 1497.21 420.354 1591.05C337.393 1765.82 204.675 1860.46 77.4444 1835.35C-49.7861 1810.23 -167.886 1666.24 -227.697 1463.39L-227.927 1463.61C-168.07 1666.6 -49.9244 1810.74 77.3983 1835.85C204.721 1860.96 337.578 1766.32 420.584 1591.34C465.223 1497.5 495.382 1384.64 528.354 1276.51C561.326 1168.37 599.325 1061.53 651.988 991.86C689.756 935.322 733.426 897.873 779.495 879.438C825.564 861.004 874.537 861.367 923.327 881.616C998.355 929.444 1065.78 1010.37 1137.53 1079.1C1232.39 1171.56 1336.61 1236.01 1442.03 1265.4V1264.89C1336.65 1235.5 1232.48 1171.12 1137.62 1078.66C1065.91 1010 998.448 929.008 923.373 881.18C899.566 871.193 875.056 865.95 850.419 865.576Z" fill="#BD3A4A"/>
<path d="M853.97 871.383C830.018 870.71 806.108 874.832 782.815 883.648C736.516 901.357 692.523 938.08 654.478 994.255C601.262 1063.71 562.94 1170.91 529.784 1279.34C496.627 1387.77 466.376 1501.06 421.645 1595.26C338.362 1770.9 205.09 1865.97 77.2602 1840.79C-50.5699 1815.6 -169.085 1670.81 -229.08 1466.95L-229.311 1467.16C-169.315 1671.18 -50.6621 1816.04 77.2602 1841.3C205.182 1866.55 338.5 1771.33 421.829 1595.55C466.607 1501.28 496.858 1387.98 530.015 1279.63C563.171 1171.27 601.492 1064 654.617 994.618C692.661 938.516 736.608 901.792 782.908 884.156C829.207 866.52 878.135 867.681 926.878 888.511C1002.46 937.21 1070.34 1019.22 1142.65 1088.6C1238.43 1182.16 1343.71 1247.11 1450.23 1276.36V1275.85C1343.75 1246.6 1238.47 1181.72 1142.74 1088.17C1070.48 1018.79 1002.55 936.774 926.924 888.075C903.131 877.84 878.63 872.234 853.97 871.383Z" fill="#BD3A4A"/>
<path d="M857.521 877.261C833.554 876.204 809.598 879.936 786.228 888.365C739.744 905.275 695.428 941.273 657.106 997.012C603.429 1066.18 564.785 1173.66 531.444 1282.46C498.103 1391.25 467.806 1504.9 422.89 1599.47C339.33 1775.98 205.459 1871.56 77.1216 1846.23C-51.2156 1820.9 -170.33 1675.31 -230.51 1470.5L-230.74 1470.72C-170.514 1675.75 -51.354 1821.34 77.0755 1846.67C205.505 1872 339.468 1776.41 423.12 1599.76C468.036 1505.12 498.287 1391.39 531.674 1282.67C565.062 1173.95 603.659 1066.54 657.291 997.375C695.566 941.709 739.836 905.711 786.274 888.873C832.711 872.035 881.731 873.995 930.428 895.332C1006.61 944.902 1074.95 1028.08 1147.77 1098.18C1244.42 1192.75 1350.81 1258.14 1458.49 1287.25V1286.81C1350.86 1257.71 1244.52 1192.32 1147.86 1097.75C1075.04 1027.64 1006.7 944.467 930.474 894.897C906.69 884.352 882.174 878.429 857.475 877.261H857.521Z" fill="#BD3A4A"/>
<path d="M842.949 882.922C825 883.639 807.134 887.041 789.594 893.083C742.926 909.195 698.379 944.467 659.735 999.771C605.597 1068.65 566.63 1176.42 533.104 1285.5C499.579 1394.59 469.189 1508.68 424.181 1603.61C340.299 1781.06 205.828 1877.08 76.9374 1851.6C-51.9533 1826.13 -171.575 1679.89 -231.893 1474.06L-232.124 1474.28C-171.759 1680.25 -52.0917 1826.64 76.8912 1852.11C205.874 1877.58 340.483 1781.49 424.412 1603.97C469.42 1508.97 499.763 1394.81 533.335 1285.72C566.906 1176.64 605.827 1069.01 659.92 1000.13C698.472 944.903 743.018 909.63 789.64 893.518C836.262 877.406 885.282 880.309 933.98 902.228C1010.71 952.668 1079.52 1036.86 1152.89 1107.69C1250.46 1203.42 1357.91 1269.25 1466.7 1298.21V1297.7C1357.91 1268.74 1250.51 1202.91 1152.98 1107.26C1079.61 1036.42 1010.81 952.233 934.026 901.72H933.98C903.544 888.003 872.97 881.761 842.903 882.922H842.949Z" fill="#BD3A4A"/>
<path d="M846.454 888.51C828.478 888.919 810.567 892.005 792.961 897.727C746.154 913.114 701.284 947.733 662.41 1002.53C607.764 1071.19 568.474 1179.18 534.718 1288.55C500.962 1397.93 470.573 1512.52 425.472 1607.82C341.267 1786.07 206.197 1882.66 76.7527 1857.05C-52.6913 1831.43 -172.774 1684.46 -233.323 1477.61L-233.553 1477.83C-173.005 1684.82 -52.8296 1831.93 76.7066 1857.55C206.243 1883.17 341.451 1786.5 425.657 1608.18C470.849 1512.74 501.239 1398.22 534.995 1288.84C568.751 1179.47 607.994 1071.48 662.548 1002.89C701.377 948.168 746.246 913.549 793.007 898.235C839.767 882.922 888.879 886.551 937.53 909.049C1014.86 960.434 1084.08 1045.71 1158 1117.27C1256.46 1214.02 1365.01 1280.35 1474.91 1309.16V1308.66C1365.01 1279.84 1256.55 1213.58 1158.14 1116.84C1084.18 1045.28 1014.96 959.998 937.576 908.614H937.53C907.187 894.534 876.567 887.857 846.454 888.51Z" fill="#BD3A4A"/>
<path d="M850.005 894.099C831.985 894.212 814.012 897.007 796.327 902.445C749.336 916.961 704.19 950.927 665.038 1005.21C609.931 1073.65 570.319 1181.94 536.378 1291.67C502.438 1401.41 472.002 1516.37 426.717 1612.03C342.235 1791.15 206.612 1888.18 76.5684 1862.49C-53.4751 1836.8 -174.019 1688.96 -234.706 1481.17L-234.937 1481.46C-174.203 1689.32 -53.5673 1837.23 76.5684 1862.92C206.704 1888.62 342.42 1791.58 426.948 1612.39C472.233 1516.59 502.715 1401.55 536.609 1291.89C570.503 1182.23 610.162 1073.94 665.223 1005.65C704.328 951.362 749.428 917.469 796.373 902.953C843.318 888.438 892.476 892.865 941.081 915.945C1018.97 968.127 1088.65 1054.57 1163.12 1126.78C1262.5 1224.61 1372.07 1291.38 1483.11 1320.12V1319.62C1372.12 1290.95 1262.55 1224.18 1163.22 1126.34C1088.79 1054.13 1019.06 967.692 941.127 915.437H941.081C910.692 901.066 880.118 893.881 849.958 894.099H850.005Z" fill="#BD3A4A"/>
<path d="M853.509 899.688C835.476 899.513 817.473 902.016 799.739 907.163C752.564 920.88 707.095 954.12 667.713 1007.97C612.099 1076.12 572.163 1184.7 538.038 1294.72C503.913 1404.75 473.385 1520.15 428.009 1616.24C343.25 1796.23 206.981 1893.77 76.3838 1867.86C-54.2131 1841.95 -175.264 1693.53 -236.136 1484.8L-236.366 1485.02C-175.449 1693.89 -54.3053 1842.46 76.3838 1868.37C207.073 1894.28 343.388 1796.66 428.239 1616.6C473.616 1520.44 504.19 1404.97 538.269 1294.94C572.348 1184.91 612.329 1076.48 667.851 1008.41C707.233 954.556 752.656 921.388 799.739 907.599C846.822 893.809 896.073 899.18 944.632 922.767C1023.12 975.893 1093.26 1063.35 1168.29 1136.36C1268.5 1235.21 1379.17 1302.49 1491.32 1331.08V1330.58C1379.22 1301.98 1268.59 1234.77 1168.33 1135.92C1093.35 1062.91 1023.21 975.458 944.678 922.332H944.632C914.334 907.526 883.714 899.978 853.509 899.688Z" fill="#BD3A4A"/>
<path d="M857.014 905.275C838.954 904.756 820.903 906.943 803.106 911.807C755.746 924.799 710.046 957.313 670.342 1010.73C614.266 1078.66 573.962 1187.45 539.699 1297.77C505.435 1408.09 474.815 1523.99 429.3 1620.45C344.172 1801.31 207.35 1899.29 76.2457 1873.3C-54.8585 1847.32 -176.509 1698.03 -237.519 1488.36L-237.75 1488.57C-176.694 1698.47 -55.043 1847.76 76.1995 1873.81C207.442 1899.87 344.357 1801.74 429.484 1620.81C475.046 1524.21 505.666 1408.38 539.929 1297.99C574.192 1187.6 614.497 1078.95 670.526 1011.16C710.139 957.748 755.838 925.307 803.152 912.315C850.466 899.324 899.67 905.493 948.183 929.661C1027.22 983.658 1097.83 1072.2 1173.41 1145.87C1274.54 1245.88 1386.27 1313.59 1499.58 1341.97V1341.53C1386.32 1313.08 1274.58 1245.37 1173.5 1145.43C1097.92 1071.77 1027.32 983.223 948.229 929.153H948.183C917.885 914.057 887.219 906.001 856.968 905.275H857.014Z" fill="#BD3A4A"/>
<path d="M860.519 910.791C842.429 910.042 824.334 911.961 806.472 916.525C758.974 928.718 712.952 960.506 673.016 1013.49C616.434 1081.13 575.806 1190.14 541.359 1300.82C506.911 1411.5 476.199 1527.84 430.545 1624.66C345.141 1806.31 207.765 1904.87 76.0611 1878.75C-55.6426 1852.62 -177.708 1702.6 -238.949 1491.91L-239.179 1492.13C-177.939 1702.97 -55.7809 1853.05 76.015 1879.18C207.811 1905.31 345.325 1806.75 430.776 1625.02C476.429 1528.06 507.142 1411.79 541.589 1301.11C576.037 1190.43 616.618 1081.42 673.155 1013.92C713.044 960.942 759.02 929.226 806.518 917.033C854.017 904.84 903.267 911.807 951.734 936.483C1031.37 991.351 1102.39 1081.06 1178.53 1155.45C1280.53 1256.47 1393.37 1324.62 1507.79 1352.93V1352.42C1393.37 1324.19 1280.62 1256.04 1178.62 1155.01C1102.48 1080.62 1031.47 990.916 951.734 936.048C921.482 920.589 890.862 912.098 860.519 910.791Z" fill="#BD3A4A"/>
<path d="M845.901 916.235C833.825 916.702 821.78 918.374 809.839 921.243C762.156 932.637 715.857 963.7 675.645 1016.25C618.601 1083.6 577.651 1192.9 543.019 1303.94C508.387 1414.98 477.582 1531.61 431.836 1628.86C346.109 1811.4 208.134 1910.39 75.8768 1884.12C-56.3803 1857.84 -178.953 1707.18 -240.332 1495.47L-240.562 1495.69C-179.138 1707.54 -56.4725 1858.35 75.8306 1884.63C208.134 1910.9 346.294 1811.83 432.021 1629.16C477.859 1531.9 508.617 1415.13 543.25 1304.16C577.882 1193.19 618.786 1083.96 675.783 1016.61C714.142 966.299 760.518 933.47 809.885 921.678C857.521 910.284 906.864 918.122 955.239 943.379C1035.48 999.118 1106.96 1089.84 1183.64 1164.96C1286.57 1267.07 1400.43 1335.73 1516.04 1363.89V1363.38C1400.52 1335.29 1286.67 1266.64 1183.78 1164.52C1107.09 1089.4 1035.62 998.682 955.377 942.871H955.331C918.992 923.928 882.147 914.784 845.854 916.235H845.901Z" fill="#BD3A4A"/>
<path d="M849.359 921.533C837.262 921.821 825.188 923.275 813.205 925.888C763.658 936.814 716.985 969.034 678.319 1019C620.722 1086.14 579.495 1195.66 544.679 1306.99C509.862 1418.32 479.011 1535.46 433.127 1633.07C347.077 1816.48 208.503 1915.91 75.6921 1889.56C-57.1183 1863.22 -180.198 1711.68 -241.762 1499.03L-241.992 1499.24C-180.383 1712.04 -57.2105 1863.65 75.6921 1890.07C208.595 1916.49 347.262 1816.91 433.312 1633.36C479.242 1535.68 510.093 1418.54 544.909 1307.21C579.726 1195.87 620.953 1086.43 678.458 1019.37C717.103 969.461 763.743 937.291 813.251 926.396C861.026 915.8 910.415 924.436 958.789 950.201C1039.63 1006.88 1111.52 1098.69 1188.76 1174.54C1292.57 1277.67 1407.53 1346.83 1524.25 1374.85V1374.34C1407.58 1346.32 1292.66 1277.23 1188.86 1174.1C1111.61 1098.26 1039.72 1006.45 958.881 949.766H958.835C922.589 930.388 885.697 920.662 849.359 921.533Z" fill="#BD3A4A"/>
<path d="M852.818 926.831C840.712 926.888 828.622 928.149 816.617 930.605C768.566 940.476 721.667 970.087 680.948 1021.76C622.89 1088.6 581.34 1198.41 546.293 1310.04C511.246 1421.66 480.395 1539.31 434.373 1637.28C348.092 1821.56 208.872 1921.49 75.554 1895C-57.7637 1868.51 -181.397 1716.25 -243.145 1502.58L-243.375 1502.8C-181.628 1716.61 -57.9482 1868.95 75.5078 1895.44C208.964 1921.93 348.23 1821.99 434.603 1637.57C480.626 1539.52 511.569 1421.95 546.57 1310.33C581.571 1198.7 623.12 1088.89 681.086 1022.12C720.061 972.683 766.969 941.183 816.617 931.113C864.577 921.243 914.012 930.75 962.34 957.096C1043.73 1014.58 1116.09 1107.47 1193.88 1184.04C1298.61 1288.34 1414.63 1357.86 1532.46 1385.81V1385.3C1414.68 1357.43 1298.65 1287.83 1193.97 1183.61C1116.18 1107.11 1043.82 1014.14 962.386 956.588C926.186 936.847 889.294 926.541 852.818 926.831Z" fill="#BD3A4A"/>
<path d="M856.322 932.056C844.178 931.944 832.041 933.035 819.984 935.322C771.794 944.394 724.573 973.28 683.623 1024.52C625.057 1091.07 583.185 1201.17 547.953 1313.16C512.721 1425.14 481.825 1543.08 435.664 1641.49C349.014 1826.56 209.286 1927.01 75.3694 1900.37C-58.5478 1873.74 -182.643 1720.75 -244.575 1506.14L-244.805 1506.43C-182.827 1721.18 -58.6861 1874.25 75.3232 1900.88C209.333 1927.52 349.199 1827 435.894 1641.78C482.055 1543.37 512.998 1425.36 548.23 1313.37C583.461 1201.39 625.287 1091.43 683.761 1024.88C724.711 973.788 771.84 944.902 819.984 935.83C868.128 926.758 917.609 937.064 965.891 963.918C1047.88 1022.34 1120.65 1116.33 1199 1193.62C1304.6 1298.93 1421.73 1368.97 1540.66 1396.69V1396.26C1421.73 1368.53 1304.65 1298.5 1199.09 1193.19C1120.74 1115.89 1047.97 1021.91 965.937 963.482C929.737 943.306 892.845 932.419 856.322 932.056Z" fill="#BD3A4A"/>
<path d="M859.827 937.354C847.646 937.061 835.464 937.933 823.35 939.967C774.976 948.313 727.524 976.546 686.251 1027.2C627.224 1093.54 584.983 1203.93 549.613 1316.2C514.243 1428.48 483.208 1546.93 436.955 1645.7C350.029 1831.64 209.656 1932.6 75.185 1905.82C-59.2855 1879.04 -183.887 1725.32 -245.958 1509.77L-246.188 1509.98C-184.072 1725.68 -59.4239 1879.47 75.1389 1906.25C209.702 1933.03 350.167 1832.08 437.139 1645.99C483.439 1547.14 514.474 1428.7 549.844 1316.42C585.214 1204.15 627.455 1093.9 686.39 1027.64C727.616 976.981 775.068 948.821 823.35 940.475C871.632 932.129 921.206 943.306 969.442 970.74C1051.99 1030.03 1125.22 1125.18 1204.12 1203.13C1310.64 1309.53 1428.84 1380.07 1548.92 1407.65V1407.22C1428.88 1379.56 1310.74 1309.09 1204.26 1202.69C1125.4 1124.75 1052.13 1029.67 969.534 970.304C933.334 949.692 896.396 938.298 859.781 937.354H859.827Z" fill="#BD3A4A"/>
<path d="M863.286 942.652C851.081 942.13 838.867 942.809 826.717 944.684C778.204 952.232 730.429 979.739 688.926 1029.96C629.392 1096.08 586.828 1206.61 551.273 1319.25C515.719 1431.89 484.637 1550.7 438.2 1649.91C350.997 1836.72 210.024 1938.11 75.0004 1911.19C-60.0235 1884.26 -185.087 1729.89 -247.388 1513.32L-247.618 1513.54C-185.317 1730.25 -60.1618 1884.77 75.0004 1911.7C210.163 1938.62 351.135 1837.16 438.431 1650.2C484.868 1550.99 515.949 1432.11 551.504 1319.54C587.058 1206.98 629.622 1096.37 689.064 1030.4C730.521 980.174 778.25 952.668 826.763 945.192C875.275 937.717 924.756 949.62 972.992 977.634C1056.14 1037.8 1129.83 1133.96 1209.24 1212.71C1316.64 1320.12 1435.89 1391.18 1557.13 1418.61V1418.1C1435.98 1390.67 1316.78 1319.69 1209.38 1212.27C1129.97 1133.6 1056.28 1037.36 973.085 977.126C936.885 956.151 899.947 944.176 863.286 942.652Z" fill="#BD3A4A"/>
</g>
</g>
</g>
</svg>
