<svg width="26" height="25" viewBox="0 0 26 25" fill="none" xmlns="http://www.w3.org/2000/svg">
<g clip-path="url(#clip0_340_2543)">
<path d="M7.21313 4.0517H7.20703C6.93735 4.0517 6.71875 4.2703 6.71875 4.53998C6.71875 4.80966 6.93735 5.02826 7.20703 5.02826H7.21313C7.48281 5.02826 7.70142 4.80966 7.70142 4.53998C7.70142 4.2703 7.48281 4.0517 7.21313 4.0517Z" fill="#231F20"/>
<path d="M23.5469 4.0517H9.39004C9.12036 4.0517 8.90176 4.2703 8.90176 4.53998C8.90176 4.80966 9.12036 5.02826 9.39004 5.02826H23.5469C23.5722 5.02826 23.597 5.03016 23.6218 5.03207L22.2574 6.39647H15.8882C15.6185 6.39647 15.3999 6.61508 15.3999 6.88475C15.3999 7.15443 15.6185 7.37303 15.8882 7.37303H21.2809L14.4748 14.1791C13.6616 14.9923 12.3384 14.9924 11.5252 14.1791L2.37817 5.03207C2.4031 5.02984 2.4281 5.02857 2.45312 5.02826H5.04102C5.31069 5.02826 5.5293 4.80966 5.5293 4.53998C5.5293 4.2703 5.31069 4.0517 5.04102 4.0517H2.45312C1.37617 4.0517 0.5 4.92787 0.5 6.00482V18.9952C0.5 20.0721 1.37617 20.9483 2.45312 20.9483H23.5469C24.6238 20.9483 25.5 20.0721 25.5 18.9952V6.00482C25.5 4.92787 24.6238 4.0517 23.5469 4.0517ZM1.47656 18.9952V6.00482C1.47656 5.86044 1.50889 5.72377 1.56538 5.60033L8.36138 12.3963L1.51069 19.247C1.48835 19.1649 1.47687 19.0802 1.47656 18.9952ZM23.5469 19.9717H2.45312C2.36592 19.9717 2.28179 19.9591 2.20127 19.9376L9.05195 13.0869L10.8348 14.8697C11.4317 15.4666 12.2158 15.7651 13 15.7651C13.7842 15.7651 14.5683 15.4666 15.1653 14.8697L16.948 13.0869L23.7987 19.9376C23.7166 19.9599 23.632 19.9714 23.5469 19.9717ZM24.5234 18.9952C24.5234 19.0824 24.5108 19.1665 24.4893 19.247L17.6386 12.3964L24.4346 5.60033C24.493 5.72718 24.5233 5.86517 24.5234 6.00482V18.9952Z" fill="#231F20"/>
<path d="M13.8447 6.39648H13.8374C13.5677 6.39648 13.3491 6.61509 13.3491 6.88477C13.3491 7.15444 13.5677 7.37305 13.8374 7.37305H13.8447C14.1144 7.37305 14.333 7.15444 14.333 6.88477C14.333 6.61509 14.1144 6.39648 13.8447 6.39648Z" fill="#231F20"/>
</g>
<defs>
<clipPath id="clip0_340_2543">
<rect width="25" height="25" fill="white" transform="translate(0.5)"/>
</clipPath>
</defs>
</svg>
