<svg width="50" height="50" viewBox="0 0 50 50" fill="none" xmlns="http://www.w3.org/2000/svg">
<g clip-path="url(#clip0_271_303)">
<path d="M47.0845 0.213135H2.91553C1.30781 0.213135 0 1.52104 0 3.12866V18.1851C0 18.5946 0.331738 18.9263 0.741211 18.9263C1.15068 18.9263 1.48242 18.5946 1.48242 18.1851V16.4001H48.5175V46.8713C48.5175 47.6615 47.8746 48.3044 47.0844 48.3044H2.91553C2.12539 48.3044 1.48242 47.6616 1.48242 46.8713V21.875C1.48242 21.4655 1.15068 21.1337 0.741211 21.1337C0.331738 21.1337 0 21.4655 0 21.875V46.8714C0 48.4792 1.30781 49.787 2.91553 49.787H47.0845C48.6922 49.787 50 48.4792 50 46.8714V3.12866C50 1.52104 48.6922 0.213135 47.0845 0.213135ZM48.5175 14.9176H1.53623V10.0872H48.5175V14.9176ZM48.5175 8.60464H1.48252V3.12866C1.48252 2.33853 2.12539 1.69565 2.91563 1.69565H47.0846C47.8747 1.69565 48.5177 2.33853 48.5177 3.12866V8.60464H48.5175Z" fill="#231F20"/>
<path d="M44.3577 2.92651C43.1429 2.92651 42.1547 3.9148 42.1547 5.12954C42.1547 6.34429 43.1429 7.33257 44.3577 7.33257C45.5724 7.33257 46.5607 6.34429 46.5607 5.12954C46.5607 3.9148 45.5724 2.92651 44.3577 2.92651ZM44.3577 5.85024C43.9604 5.85024 43.6371 5.527 43.6371 5.12964C43.6371 4.73237 43.9603 4.40903 44.3577 4.40903C44.7551 4.40903 45.0783 4.73228 45.0783 5.12964C45.0783 5.5269 44.755 5.85024 44.3577 5.85024ZM38.3878 2.92651C37.173 2.92651 36.1847 3.9148 36.1847 5.12954C36.1847 6.34429 37.173 7.33257 38.3878 7.33257C39.6025 7.33257 40.5908 6.34429 40.5908 5.12954C40.5908 3.9148 39.6025 2.92651 38.3878 2.92651ZM38.3878 5.85024C37.9905 5.85024 37.6672 5.527 37.6672 5.12964C37.6672 4.73237 37.9904 4.40903 38.3878 4.40903C38.7851 4.40903 39.1084 4.73228 39.1084 5.12964C39.1083 5.5269 38.785 5.85024 38.3878 5.85024ZM32.4177 2.92651C31.2029 2.92651 30.2146 3.9148 30.2146 5.12954C30.2146 6.34429 31.2029 7.33257 32.4177 7.33257C33.6324 7.33257 34.6207 6.34429 34.6207 5.12954C34.6207 3.9148 33.6324 2.92651 32.4177 2.92651ZM32.4177 5.85024C32.0205 5.85024 31.6971 5.527 31.6971 5.12964C31.6971 4.73237 32.0203 4.40903 32.4177 4.40903C32.8152 4.40903 33.1384 4.73228 33.1384 5.12964C33.1383 5.5269 32.815 5.85024 32.4177 5.85024ZM25.2544 2.92651H6.41677C5.20203 2.92651 4.21375 3.9148 4.21375 5.12954C4.21375 6.34429 5.20203 7.33257 6.41677 7.33257H25.2544C26.4691 7.33257 27.4574 6.34429 27.4574 5.12954C27.4574 3.9148 26.4691 2.92651 25.2544 2.92651ZM25.2544 5.85024H6.41677C6.01941 5.85024 5.69617 5.527 5.69617 5.12964C5.69617 4.73237 6.01931 4.40903 6.41677 4.40903H25.2544C25.6517 4.40903 25.975 4.73228 25.975 5.12964C25.975 5.5269 25.6516 5.85024 25.2544 5.85024ZM18.4414 25.8777C17.9203 25.8777 17.5327 26.2918 17.5327 26.7864C17.5327 27.2677 17.9202 27.6953 18.4414 27.6953C18.9226 27.6953 19.337 27.2677 19.337 26.7864C19.337 26.2918 18.9226 25.8777 18.4414 25.8777ZM24.5356 25.8242C24.2015 25.8242 24.0011 26.2251 23.1992 26.2251C22.2769 26.2251 21.8893 25.7708 21.8893 24.9955V23.9262C21.8894 23.1512 22.2769 22.6967 23.1858 22.6967C23.9743 22.6967 24.2148 23.0709 24.509 23.0709C24.9231 23.0709 25.1905 22.5498 25.1905 22.2289C25.1905 21.7077 24.3086 21.1865 23.0522 21.1865C21.0341 21.1865 20.1653 22.3893 20.1653 23.9262V24.9955C20.1653 26.5591 21.0472 27.7354 23.0654 27.7354C24.3218 27.7354 25.2708 27.1741 25.2708 26.6393C25.2709 26.3053 25.0035 25.8242 24.5356 25.8242ZM28.7851 21.1865C27.1945 21.1865 25.885 22.4562 25.885 23.8996V24.9954C25.885 26.4387 27.2215 27.7353 28.7851 27.7353C30.3354 27.7353 31.6852 26.4254 31.6852 24.9954V23.8996C31.6853 22.416 30.3355 21.1865 28.7851 21.1865ZM29.9612 24.9955C29.9612 25.6238 29.4266 26.2251 28.7852 26.2251C28.1303 26.2251 27.6091 25.6238 27.6091 24.9955V23.8997C27.6091 23.2983 28.1304 22.6967 28.7852 22.6967C29.4266 22.6967 29.9612 23.2981 29.9612 23.8997V24.9955ZM39.8507 21.1865C39.0757 21.1865 38.3004 21.614 37.8325 22.5229C37.5519 21.7344 36.9236 21.1865 36.1621 21.1865C35.28 21.1865 34.6919 21.6809 34.3978 22.2023V21.8013C34.3977 21.4806 34.0501 21.2667 33.6359 21.2667C33.128 21.2667 32.7805 21.4806 32.7805 21.8014V27.0671C32.7805 27.3345 33.128 27.6151 33.6359 27.6151C34.1036 27.6151 34.5046 27.3345 34.5046 27.0671V23.8997C34.5046 23.1112 35.0259 22.6967 35.5471 22.6967C36.1085 22.6967 36.643 23.1511 36.643 23.8997V27.0805C36.643 27.4547 37.0974 27.6151 37.4984 27.6151C37.926 27.6151 38.3672 27.4546 38.3672 27.0805V23.8862C38.3672 23.1112 38.8883 22.6833 39.423 22.6833C39.9575 22.6833 40.5055 23.0976 40.5055 23.8995V27.0669C40.5055 27.3343 40.9065 27.6149 41.3609 27.6149C41.8288 27.6149 42.2298 27.3343 42.2298 27.0669V23.8995C42.2298 22.162 41.067 21.1865 39.8507 21.1865ZM18.4414 40.9261C17.9203 40.9261 17.5327 41.3403 17.5327 41.8348C17.5327 42.3162 17.9202 42.7437 18.4414 42.7437C18.9226 42.7437 19.337 42.3162 19.337 41.8348C19.337 41.3403 18.9226 40.9261 18.4414 40.9261ZM23.7873 36.2349C22.8919 36.2349 22.2504 36.7293 21.9965 37.2507V36.8498C21.9965 36.529 21.6488 36.3151 21.2346 36.3151C20.7267 36.3151 20.3793 36.529 20.3793 36.8498V42.1155C20.3793 42.3829 20.7267 42.6634 21.2346 42.6634C21.7023 42.6634 22.1033 42.3829 22.1033 42.1155V38.948C22.1033 38.1996 22.6514 37.7451 23.1994 37.7451C23.8409 37.7451 24.3622 38.3464 24.3622 38.948V42.1155C24.3622 42.4764 24.8166 42.6634 25.2176 42.6634C25.6451 42.6634 26.0862 42.4763 26.0862 42.1155V38.948C26.086 37.4645 25.017 36.2349 23.7873 36.2349ZM32.0594 40.9127C31.6585 40.9127 31.2977 41.4207 30.4156 41.4207C29.4802 41.4207 28.8519 40.9127 28.8519 40.1375V39.9372H31.565C32.1664 39.9372 32.8081 39.8837 32.8081 38.7477C32.8081 37.264 31.525 36.235 30.0548 36.235C28.4243 36.235 27.1278 37.4645 27.1278 38.9081V40.044C27.1278 41.6878 28.4644 42.7839 30.3622 42.7839C31.7923 42.7839 32.7143 42.1291 32.7143 41.6747C32.7143 41.4072 32.4605 40.9127 32.0594 40.9127ZM28.8518 38.5472C28.8518 37.9057 29.4132 37.5047 30.0146 37.5047C30.656 37.5047 31.1908 37.9324 31.1908 38.5606C31.1908 38.8546 31.0839 38.9213 30.8031 38.9213H28.8518V38.5472ZM36.8167 41.2067H36.2956C35.7343 41.2067 35.5471 41.0196 35.5471 40.4984V37.5713H37.1242C37.405 37.5713 37.5654 37.264 37.5654 36.9433C37.5654 36.636 37.405 36.3151 37.1242 36.3151H35.5472V34.0164C35.5472 33.6956 35.1195 33.4817 34.6784 33.4817C34.2774 33.4817 33.823 33.6956 33.823 34.0164V40.4983C33.823 42.0085 34.6918 42.6634 36.2956 42.6634H36.8167C37.3113 42.6634 37.5519 42.3025 37.5519 41.9284C37.5519 41.5675 37.3114 41.2067 36.8167 41.2067ZM13.0497 20.3039H6.33816C6.24082 20.3038 6.14443 20.323 6.05449 20.3603C5.96456 20.3975 5.88285 20.4521 5.81402 20.5209C5.74519 20.5898 5.69059 20.6715 5.65334 20.7614C5.6161 20.8513 5.59694 20.9477 5.59695 21.0451V27.7566C5.59695 27.9532 5.67504 28.1417 5.81404 28.2807C5.95305 28.4197 6.14158 28.4978 6.33816 28.4978H13.0497C13.147 28.4978 13.2434 28.4787 13.3333 28.4414C13.4233 28.4042 13.505 28.3496 13.5738 28.2807C13.6427 28.2119 13.6973 28.1302 13.7345 28.0403C13.7717 27.9503 13.7909 27.8539 13.7909 27.7566V21.0451C13.7909 20.9477 13.7718 20.8513 13.7345 20.7614C13.6973 20.6714 13.6427 20.5897 13.5739 20.5209C13.505 20.4521 13.4233 20.3975 13.3334 20.3602C13.2434 20.323 13.147 20.3038 13.0497 20.3039ZM12.3085 27.0154H7.07937V21.7863H12.3085V27.0154ZM13.0497 35.1287H6.33816C6.24082 35.1287 6.14443 35.1478 6.05449 35.1851C5.96456 35.2223 5.88285 35.2769 5.81402 35.3457C5.74519 35.4146 5.69059 35.4963 5.65334 35.5862C5.6161 35.6761 5.59694 35.7725 5.59695 35.8699V42.5814C5.59694 42.6787 5.6161 42.7751 5.65334 42.8651C5.69059 42.955 5.74519 43.0367 5.81402 43.1055C5.88285 43.1744 5.96456 43.229 6.05449 43.2662C6.14443 43.3035 6.24082 43.3226 6.33816 43.3226H13.0497C13.147 43.3226 13.2434 43.3035 13.3333 43.2662C13.4233 43.229 13.505 43.1744 13.5738 43.1055C13.6427 43.0367 13.6973 42.955 13.7345 42.8651C13.7717 42.7751 13.7909 42.6787 13.7909 42.5814V35.8699C13.7909 35.7725 13.7718 35.6761 13.7345 35.5862C13.6973 35.4963 13.6427 35.4145 13.5739 35.3457C13.505 35.2769 13.4233 35.2223 13.3334 35.185C13.2434 35.1478 13.147 35.1286 13.0497 35.1287ZM12.3085 41.8402H7.07937V36.6111H12.3085V41.8402Z" fill="#BD3A4A"/>
</g>
<defs>
<clipPath id="clip0_271_303">
<rect width="50" height="50" fill="white"/>
</clipPath>
</defs>
</svg>
