<svg width="50" height="50" viewBox="0 0 50 50" fill="none" xmlns="http://www.w3.org/2000/svg">
<g clip-path="url(#clip0_452_57)">
<path d="M45.5462 8.6339C38.6668 6.74894 31.747 3.81388 25.5348 0.146119C25.3729 0.0504601 25.1882 0 25.0002 0C24.8121 0 24.6274 0.0504601 24.4655 0.146119C18.0741 3.91926 11.5282 6.69552 4.45351 8.6339C4.23117 8.6948 4.035 8.82707 3.89519 9.01036C3.75537 9.19366 3.67965 9.41781 3.67969 9.64835V20.395C3.67969 31.4617 8.78505 38.7871 13.068 42.9834C17.679 47.5015 23.0501 50 25.0002 50C26.9501 50 32.3211 47.5015 36.9321 42.9834C41.215 38.7872 46.32 31.4618 46.32 20.395V9.64825C46.32 9.17442 46.0032 8.75899 45.5462 8.6339ZM44.2165 20.3949C44.2165 30.7311 39.4547 37.5666 35.4598 41.4808C30.9255 45.9237 26.0776 47.8963 25.0002 47.8963C23.9227 47.8963 19.0745 45.9237 14.5401 41.4808C10.5453 37.5665 5.7833 30.7311 5.7833 20.3949V10.4467C12.5487 8.52579 18.8493 5.84503 25.0003 2.27053C30.9978 5.75021 37.6127 8.56427 44.2165 10.4463V20.3949Z" fill="#231F20"/>
<path d="M15.6778 10.329C15.4649 9.78849 14.8543 9.52296 14.3137 9.73595C12.4276 10.4788 10.5158 11.1544 8.58174 11.7614C8.36807 11.8285 8.18136 11.9619 8.0488 12.1424C7.91625 12.3229 7.84475 12.541 7.84473 12.765V16.8266C7.84473 17.4074 8.31572 17.8783 8.89648 17.8783C9.47725 17.8783 9.94824 17.4074 9.94824 16.8266V13.5336C11.6791 12.9735 13.3921 12.3597 15.0848 11.693C15.6253 11.4802 15.8908 10.8695 15.6778 10.329ZM17.6758 10.5285C17.8169 10.5285 17.9602 10.5001 18.0976 10.4401L18.1169 10.4318C18.649 10.1985 18.8887 9.57911 18.6555 9.04718C18.4221 8.51505 17.7991 8.27433 17.2676 8.50734L17.2506 8.51466C16.7182 8.74718 16.4777 9.36613 16.7103 9.89835C16.8828 10.2935 17.27 10.5285 17.6758 10.5285ZM37.5317 33.9144C37.0457 33.5967 36.3939 33.7333 36.0759 34.2195C35.2092 35.5461 34.1924 36.8164 33.0533 37.9948C32.1165 38.9639 31.108 39.8612 30.0364 40.6789C29.5746 41.0311 29.4857 41.691 29.8378 42.153C29.9359 42.2819 30.0626 42.3864 30.2078 42.4583C30.353 42.5301 30.5129 42.5674 30.6749 42.5672C30.8974 42.5672 31.1215 42.497 31.3119 42.3517C32.4675 41.4697 33.5551 40.5021 34.5655 39.4569C35.7971 38.1831 36.8977 36.8081 37.8369 35.3701C38.1548 34.8838 38.018 34.232 37.5317 33.9144ZM27.5938 42.3284L27.5335 42.364C27.0309 42.6551 26.8591 43.2985 27.1501 43.8011C27.2192 43.9207 27.3113 44.0255 27.4209 44.1094C27.5306 44.1934 27.6558 44.255 27.7892 44.2906C27.9227 44.3262 28.0619 44.3351 28.1988 44.3169C28.3357 44.2986 28.4677 44.2536 28.5872 44.1843L28.6568 44.1434C29.1581 43.8498 29.3265 43.2056 29.0329 42.7043C28.7392 42.2032 28.0948 42.0352 27.5938 42.3284ZM17.8313 22.8534C17.1854 22.2075 16.3266 21.8521 15.4131 21.8521C14.4996 21.8521 13.6406 22.2076 12.9945 22.8534C11.6612 24.187 11.6612 26.3569 12.9945 27.6904L19.2051 33.9008C19.851 34.5465 20.7099 34.9021 21.6234 34.9021C22.537 34.9021 23.3959 34.5465 24.0419 33.9006L37.0068 20.9356C38.34 19.6017 38.34 17.432 37.0066 16.0989C36.3607 15.453 35.5019 15.0976 34.5882 15.0976C33.6746 15.0976 32.8157 15.4531 32.1697 16.0989L21.6233 26.6453L17.8313 22.8534ZM33.6572 17.5864C33.7792 17.4638 33.9243 17.3667 34.0842 17.3005C34.244 17.2344 34.4153 17.2006 34.5883 17.2011C34.9402 17.2011 35.2707 17.3379 35.5194 17.5864C36.0326 18.0996 36.0326 18.935 35.5192 19.4484L22.5545 32.4132C22.306 32.6617 21.9752 32.7985 21.6234 32.7985C21.2717 32.7985 20.9409 32.6617 20.6923 32.4132L14.4819 26.203C13.9686 25.6897 13.9686 24.8543 14.4817 24.3411C14.7304 24.0926 15.0611 23.9556 15.413 23.9556C15.7648 23.9556 16.0954 24.0924 16.3439 24.3409L20.8796 28.8767C21.077 29.0738 21.3443 29.1847 21.6233 29.1847C21.9023 29.1847 22.1697 29.0739 22.3669 28.8767L33.6572 17.5864Z" fill="#BD3A4A"/>
</g>
<defs>
<clipPath id="clip0_452_57">
<rect width="50" height="50" fill="white"/>
</clipPath>
</defs>
</svg>
