<svg width="50" height="50" viewBox="0 0 50 50" fill="none" xmlns="http://www.w3.org/2000/svg">
<g clip-path="url(#clip0_452_66)">
<path d="M41.2875 45.8308H28.8607M28.8607 42.9011H49.268V45.8308H44.7055M26.4648 29.8501V41.2226M23.5352 29.8501V41.2226" stroke="black" stroke-width="1.5" stroke-miterlimit="10" stroke-linecap="round" stroke-linejoin="round"/>
<path d="M40.79 15.3103V27.0408C40.79 28.5925 39.5322 29.8503 37.9805 29.8503H12.0195C10.4678 29.8503 9.20996 28.5925 9.20996 27.0408V5.29956C9.20996 3.7478 10.4678 2.49097 12.0195 2.49097H22.0723C22.8496 2.49097 23.5928 2.81323 24.124 3.38062L27.748 7.25659C28.011 7.53735 28.3288 7.76117 28.6817 7.91419C29.0346 8.06722 29.4151 8.1462 29.7998 8.14624H37.9805C39.5322 8.14624 40.79 9.40405 40.79 10.9558V11.8923M21.1396 45.8305H0.732422V42.9008H21.1396M21.4468 13.5303H26.7965M24.1108 13.8397V23.2174M30.6626 19.0098V23.2174M22.2692 47.5089H27.7308C28.3546 47.5089 28.8604 47.0033 28.8604 46.3793V42.3517C28.8604 41.7279 28.3547 41.2221 27.7308 41.2221H22.2692C21.6454 41.2221 21.1396 41.7278 21.1396 42.3517V46.3793C21.1397 47.0032 21.6454 47.5089 22.2692 47.5089Z" stroke="black" stroke-width="1.5" stroke-miterlimit="10" stroke-linecap="round" stroke-linejoin="round"/>
<path d="M18.5681 13.6013H14.6707V23.2174M14.6707 18.3183H18.2584M7.0813 33.1706L8.6106 32.2868C9.16333 31.9675 9.85571 32.3669 9.85571 33.0056V34.6677H15.969C16.8284 34.6677 17.5247 35.364 17.5247 36.2233C17.5247 37.0837 16.8284 37.78 15.969 37.78H9.85571V39.4421C9.85571 40.0817 9.16333 40.4802 8.6106 40.1608L3.03735 36.9421C2.48364 36.6228 2.48364 35.8249 3.03735 35.5056L4.13403 34.8718M36.1422 16.264C36.1422 17.7737 34.8648 18.9977 33.355 18.9977C32.6063 18.9977 30.6628 19.0098 30.6628 19.0098V13.5303H33.355C34.8648 13.5303 36.1422 14.7542 36.1422 16.264ZM46.9635 35.5053L41.3899 32.287C40.8367 31.9676 40.1452 32.3668 40.1452 33.0056V34.6676H34.032C33.1725 34.6676 32.4757 35.3644 32.4757 36.2238C32.4757 37.0833 33.1725 37.7801 34.032 37.7801H40.1452V39.4425C40.1452 40.0813 40.8367 40.4805 41.3899 40.161L46.9635 36.9424C47.5166 36.623 47.5166 35.8247 46.9635 35.5053Z" stroke="#BD3A4A" stroke-width="1.5" stroke-miterlimit="10" stroke-linecap="round" stroke-linejoin="round"/>
</g>
<defs>
<clipPath id="clip0_452_66">
<rect width="50" height="50" fill="white"/>
</clipPath>
</defs>
</svg>
