<svg width="50" height="50" viewBox="0 0 50 50" fill="none" xmlns="http://www.w3.org/2000/svg">
<g clip-path="url(#clip0_448_11)">
<path d="M17.3594 11.7403C17.2158 12.1824 17.3572 12.6562 17.7195 12.9476L20.9456 15.5405L19.8597 19.5346C19.7378 19.983 19.902 20.4494 20.2783 20.723C20.6546 20.9961 21.1487 21.0081 21.5376 20.7536L25.0006 18.4867L28.4637 20.7537C28.6442 20.8727 28.8556 20.9363 29.0717 20.9366C29.3059 20.9363 29.534 20.8615 29.7229 20.723C30.0994 20.4497 30.2636 19.983 30.1415 19.5346L29.0556 15.5406L32.2815 12.9478C32.6441 12.6565 32.7855 12.1826 32.6417 11.7403C32.4981 11.2979 32.1051 10.9977 31.6408 10.9752L27.5067 10.7736L26.0375 6.9043C25.8726 6.46963 25.4655 6.18867 25.0005 6.18867C24.5356 6.18867 24.1285 6.46953 23.9636 6.9042L22.4944 10.7737L18.3606 10.9752C17.896 10.9977 17.5031 11.2979 17.3594 11.7403ZM22.8668 12.3198C23.0824 12.3094 23.2902 12.2362 23.4648 12.1094C23.6394 11.9825 23.7731 11.8074 23.8497 11.6057L25.0004 8.5749L26.1512 11.606C26.2279 11.8076 26.3617 11.9826 26.5362 12.1094C26.7108 12.2362 26.9185 12.3093 27.134 12.3198L30.372 12.4777L27.8451 14.5087C27.6769 14.6439 27.5517 14.8252 27.4851 15.0304C27.4184 15.2357 27.413 15.4559 27.4697 15.6642L28.3202 18.7925L25.6077 17.0168C25.4271 16.8986 25.216 16.8357 25.0002 16.8357C24.7844 16.8358 24.5733 16.8987 24.3927 17.0169L21.6804 18.7925L22.5309 15.6644C22.5876 15.4561 22.5823 15.2358 22.5156 15.0305C22.4489 14.8252 22.3237 14.6439 22.1554 14.5087L19.6286 12.4778L22.8668 12.3198ZM24.2192 3.64824V0.78125C24.2192 0.57405 24.3015 0.375336 24.448 0.228823C24.5945 0.0823101 24.7932 0 25.0004 0C25.2076 0 25.4064 0.0823101 25.5529 0.228823C25.6994 0.375336 25.7817 0.57405 25.7817 0.78125V3.64824C25.7817 3.85544 25.6994 4.05416 25.5529 4.20067C25.4064 4.34718 25.2076 4.42949 25.0004 4.42949C24.7932 4.42949 24.5945 4.34718 24.448 4.20067C24.3015 4.05416 24.2192 3.85544 24.2192 3.64824ZM28.9769 8.27695C28.8383 8.12298 28.7665 7.92023 28.7773 7.71332C28.7882 7.50641 28.8807 7.31228 29.0347 7.17363L32.2295 4.29688C32.3058 4.22822 32.3948 4.17525 32.4915 4.141C32.5882 4.10675 32.6907 4.09188 32.7932 4.09724C32.8956 4.10261 32.996 4.1281 33.0886 4.17226C33.1813 4.21643 33.2643 4.2784 33.3329 4.35464C33.4016 4.43088 33.4545 4.5199 33.4888 4.61661C33.523 4.71332 33.5379 4.81583 33.5325 4.91829C33.5272 5.02074 33.5017 5.12114 33.4575 5.21375C33.4134 5.30635 33.3514 5.38935 33.2751 5.45801L30.0802 8.33477C29.937 8.46415 29.7507 8.53567 29.5577 8.53545C29.4481 8.5356 29.3398 8.51266 29.2397 8.46812C29.1397 8.42358 29.0501 8.35844 28.9769 8.27695ZM16.6679 4.35469C16.7366 4.27843 16.8196 4.21645 16.9122 4.17228C17.0048 4.1281 17.1052 4.1026 17.2077 4.09723C17.3101 4.09186 17.4126 4.10673 17.5093 4.14099C17.6061 4.17524 17.6951 4.22821 17.7713 4.29688L20.9663 7.17363C21.1202 7.31229 21.2128 7.50643 21.2237 7.71335C21.2345 7.92028 21.1627 8.12303 21.024 8.277C20.8854 8.43098 20.6912 8.52357 20.4843 8.5344C20.2774 8.54523 20.0746 8.47342 19.9207 8.33477L16.7257 5.45801C16.5718 5.31936 16.4792 5.12523 16.4683 4.91832C16.4575 4.71141 16.5293 4.50866 16.6679 4.35469ZM35.0233 12.9476L38.2494 15.5405L37.1635 19.5346C37.0416 19.983 37.2058 20.4494 37.5821 20.723C37.9582 20.9961 38.4523 21.008 38.8415 20.7536L42.3044 18.4867L45.7675 20.7537C45.948 20.8727 46.1594 20.9363 46.3755 20.9366C46.6097 20.9363 46.8378 20.8615 47.0267 20.723C47.403 20.4499 47.5672 19.9834 47.4453 19.5346L46.3594 15.5406L49.5853 12.9478C49.9478 12.6566 50.0892 12.1827 49.9455 11.7403C49.8018 11.2979 49.4088 10.9977 48.9446 10.9752L44.8105 10.7736L43.3415 6.9043C43.1765 6.46963 42.7694 6.18867 42.3044 6.18867C41.8394 6.18867 41.4323 6.46953 41.2673 6.9042L39.7983 10.7736L35.6645 10.9751C35.1999 10.9976 34.8069 11.2979 34.6632 11.7403C34.5195 12.1826 34.6609 12.6565 35.0233 12.9476ZM40.1706 12.3198C40.3862 12.3094 40.594 12.2362 40.7686 12.1093C40.9433 11.9825 41.0771 11.8074 41.1537 11.6056L42.3043 8.5748L43.4549 11.6055C43.5315 11.8073 43.6653 11.9824 43.8399 12.1092C44.0145 12.2361 44.2224 12.3093 44.4379 12.3197L47.6759 12.4776L45.1493 14.5084C44.9809 14.6435 44.8557 14.8249 44.789 15.0302C44.7223 15.2355 44.7169 15.4558 44.7736 15.6641L45.6241 18.7924L42.9116 17.0167C42.731 16.8985 42.5199 16.8355 42.3041 16.8355C42.0883 16.8355 41.8772 16.8985 41.6966 17.0168L38.9843 18.7924L39.8348 15.6643C39.8915 15.456 39.8861 15.2357 39.8194 15.0304C39.7527 14.8252 39.6276 14.6438 39.4593 14.5086L36.9325 12.4776L40.1706 12.3198ZM0.415473 12.9476L3.64155 15.5405L2.55571 19.5346C2.43383 19.983 2.59799 20.4494 2.97426 20.723C3.35063 20.9961 3.84467 21.0081 4.23364 20.7536L7.69663 18.4867L11.1597 20.7537C11.3402 20.8727 11.5516 20.9363 11.7677 20.9366C12.0019 20.9363 12.23 20.8615 12.4189 20.723C12.7952 20.4499 12.9594 19.9834 12.8374 19.5346L11.7516 15.5406L14.9775 12.9478C15.3398 12.6568 15.4813 12.183 15.3376 11.7398C15.1937 11.2978 14.8007 10.9976 14.3368 10.9751L10.2027 10.7735L8.73364 6.9043C8.5687 6.46963 8.16157 6.18867 7.69663 6.18867C7.23159 6.18867 6.82446 6.46953 6.65952 6.9042L5.19047 10.7736L1.05668 10.9751C0.592134 10.9976 0.199165 11.2979 0.0556102 11.7398C-0.0884328 12.1823 0.0528758 12.6564 0.415473 12.9476ZM5.56274 12.3198C5.77834 12.3094 5.9862 12.2362 6.16083 12.1093C6.33546 11.9825 6.46927 11.8074 6.54585 11.6056L7.69653 8.5748L8.84712 11.6055C8.92367 11.8073 9.05747 11.9824 9.23208 12.1092C9.40669 12.2361 9.61454 12.3093 9.83012 12.3197L13.0681 12.4776L10.5415 14.5084C10.3731 14.6435 10.2479 14.8249 10.1812 15.0302C10.1145 15.2355 10.1091 15.4558 10.1658 15.6641L11.0163 18.7924L8.30376 17.0167C8.12321 16.8985 7.91208 16.8355 7.69627 16.8355C7.48046 16.8355 7.26934 16.8985 7.08881 17.0168L4.37651 18.7924L5.227 15.6643C5.28364 15.456 5.27828 15.2357 5.21159 15.0304C5.14489 14.8252 5.01975 14.6438 4.85151 14.5086L2.32465 12.4776L5.56274 12.3198Z" fill="#BD3A4A"/>
<path d="M24.9996 36.4049C23.7971 36.4049 22.6216 36.0364 21.6217 35.3461C20.6219 34.6558 19.8426 33.6746 19.3824 32.5265C18.9222 31.3785 18.8018 30.1153 19.0364 28.8966C19.271 27.6779 19.8501 26.5584 20.7004 25.6798C21.5507 24.8011 22.634 24.2027 23.8134 23.9603C24.9929 23.7179 26.2153 23.8423 27.3263 24.3178C28.4372 24.7934 29.3868 25.5986 30.055 26.6318C30.723 27.665 31.0795 28.8797 31.0795 30.1223C31.0777 31.788 30.4367 33.3849 29.2968 34.5628C28.1569 35.7405 26.6116 36.4031 24.9996 36.4049ZM24.9996 25.5848C24.131 25.5848 23.2822 25.8509 22.56 26.3495C21.8379 26.8481 21.2751 27.5567 20.9427 28.3858C20.6104 29.215 20.5234 30.1273 20.6929 31.0075C20.8623 31.8877 21.2805 32.6962 21.8946 33.3307C22.5088 33.9653 23.2912 34.3975 24.1429 34.5726C24.9947 34.7477 25.8776 34.6578 26.68 34.3143C27.4824 33.9709 28.1682 33.3893 28.6506 32.6431C29.1331 31.897 29.3906 31.0197 29.3906 30.1223C29.3893 28.9193 28.9262 27.766 28.103 26.9153C27.2798 26.0647 26.1637 25.5862 24.9996 25.5848ZM35.5552 49.1604C35.3311 49.1604 35.1163 49.0685 34.958 48.9049C34.7996 48.7412 34.7107 48.5192 34.7107 48.2878V46.1309C34.7089 44.4738 34.0711 42.8854 32.9374 41.7137C31.8035 40.5422 30.2663 39.8831 28.6627 39.8813H21.3364C19.7329 39.8831 18.1957 40.5422 17.0619 41.7137C15.928 42.8854 15.2903 44.4738 15.2885 46.1309V48.2878C15.2885 48.5192 15.1995 48.7412 15.0412 48.9049C14.8828 49.0685 14.668 49.1604 14.444 49.1604C14.2201 49.1604 14.0053 49.0685 13.8469 48.9049C13.6886 48.7412 13.5996 48.5192 13.5996 48.2878V46.1309C13.6021 44.0113 14.418 41.9792 15.8684 40.4806C17.3188 38.9818 19.2852 38.1387 21.3364 38.1361H28.6619C30.7133 38.1384 32.68 38.9814 34.1305 40.4802C35.5811 41.979 36.3971 44.0111 36.3996 46.1309V48.2878C36.3996 48.5192 36.3106 48.7412 36.1523 48.9049C35.9939 49.0685 35.7791 49.1604 35.5552 49.1604Z" fill="#231F20"/>
</g>
<defs>
<clipPath id="clip0_448_11">
<rect width="50" height="50" fill="white"/>
</clipPath>
</defs>
</svg>
