<svg width="26" height="25" viewBox="0 0 26 25" fill="none" xmlns="http://www.w3.org/2000/svg">
<mask id="path-1-outside-1_340_2557" maskUnits="userSpaceOnUse" x="0.5" y="-6.10352e-05" width="25" height="25" fill="black">
<rect fill="white" x="0.5" y="-6.10352e-05" width="25" height="25"/>
<path d="M23.7183 8.32381C23.7137 8.31211 23.7084 8.30069 23.7025 8.28958C23.2013 7.01515 22.4762 5.84067 21.5613 4.82164C21.5318 4.7887 21.4961 4.7619 21.4561 4.74278C21.4162 4.72366 21.373 4.71259 21.3288 4.7102C21.2846 4.70782 21.2404 4.71416 21.1986 4.72887C21.1569 4.74358 21.1185 4.76637 21.0856 4.79594C21.0526 4.82549 21.0259 4.86124 21.0068 4.90114C20.9876 4.94104 20.9766 4.98431 20.9742 5.02848C20.9718 5.07266 20.9781 5.11687 20.9928 5.1586C21.0075 5.20032 21.0303 5.23874 21.0599 5.27167C22.8439 7.25942 23.8264 9.8265 23.8264 12.4999C23.8264 12.5793 23.8251 12.6584 23.8235 12.7375C23.8229 12.7653 23.822 12.7931 23.8212 12.821C23.8198 12.8709 23.8179 12.9207 23.8158 12.9704C23.8142 13.0056 23.8129 13.0408 23.811 13.0759C23.8095 13.105 23.8075 13.134 23.8057 13.1631C23.6927 15.0128 23.1087 16.7935 22.115 18.3422C22.3326 17.4594 22.5551 16.4198 22.694 15.4003C22.9876 13.2465 22.8137 11.9032 22.1626 11.2936C21.632 10.7968 20.8982 11.2262 20.3084 11.5712C20.0714 11.7099 19.6743 11.9417 19.5473 11.9213C19.439 11.8934 19.0351 11.5414 18.5407 10.6777C18.1002 9.90821 17.8112 9.10698 17.7864 8.58674C17.7307 7.41715 18.6482 6.0264 18.6574 6.0127C18.6947 5.9566 18.7144 5.8906 18.714 5.8232C18.7136 5.7558 18.693 5.69007 18.6549 5.63446C18.5403 5.46717 18.2597 4.95366 18.336 4.59155C18.3713 4.42372 18.439 4.10149 17.294 2.55941C17.7359 2.7501 18.1644 2.97028 18.5767 3.21846C18.5795 3.22017 18.5824 3.22147 18.5853 3.22304C19.0758 3.51942 19.5422 3.85409 19.98 4.22395C20.0138 4.2525 20.0529 4.27411 20.095 4.28754C20.1372 4.30098 20.1816 4.30598 20.2257 4.30226C20.2697 4.29854 20.3127 4.28617 20.352 4.26586C20.3913 4.24555 20.4262 4.21769 20.4547 4.18388C20.4833 4.15007 20.5049 4.11098 20.5183 4.06883C20.5317 4.02667 20.5367 3.98229 20.533 3.9382C20.5293 3.89412 20.5169 3.8512 20.4966 3.8119C20.4763 3.7726 20.4484 3.73768 20.4146 3.70914C19.2291 2.70819 17.88 1.96913 16.4049 1.51254C16.3991 1.51075 16.3932 1.51012 16.3875 1.50868C15.29 1.17131 14.1482 0.999835 13 0.999939C12.8819 0.999939 12.7641 1.00232 12.6465 1.00587C12.6337 1.00627 12.621 1.00686 12.6081 1.00726C12.5105 1.0105 12.4131 1.01499 12.3159 1.02065L12.288 1.02236C9.48418 1.19252 6.87169 2.36485 4.86835 4.36824C2.69627 6.54031 1.5 9.42822 1.5 12.5C1.5 15.2103 2.46097 17.8421 4.20584 19.9107C4.23744 19.9482 4.27688 19.9784 4.3214 19.9991C4.36592 20.0198 4.41442 20.0304 4.46351 20.0304C4.52769 20.0303 4.59053 20.0119 4.64462 19.9774C4.69871 19.9428 4.74181 19.8936 4.76884 19.8353C4.79587 19.7771 4.80571 19.7124 4.79721 19.6488C4.7887 19.5852 4.7622 19.5253 4.72082 19.4762C3.07834 17.5291 2.17383 15.0515 2.17383 12.5C2.17383 11.9545 2.21399 11.4152 2.29274 10.8854L2.29508 10.8963C2.30307 10.932 2.31147 10.9681 2.32028 11.0049C2.77058 12.8807 5.33657 14.0805 6.56972 14.6571C6.66905 14.7035 6.77484 14.753 6.86284 14.7957C6.7416 15.1053 6.562 15.6421 6.49668 16.242C6.3559 17.5354 6.80831 18.4825 7.80495 18.9808C9.77109 19.9639 9.70461 20.4864 9.50709 22.0374C9.47578 22.2837 9.45426 22.5114 9.44164 22.7256C8.08856 22.2551 6.84254 21.5202 5.77609 20.5638C5.70943 20.505 5.62224 20.4749 5.53353 20.4801C5.44481 20.4854 5.36174 20.5254 5.30242 20.5916C5.24309 20.6577 5.21231 20.7447 5.21678 20.8334C5.22125 20.9222 5.26061 21.0056 5.32628 21.0655C6.57382 22.1846 8.05131 23.0169 9.65493 23.5039C9.65928 23.5054 9.66328 23.5076 9.66777 23.5089C9.81359 23.553 9.96076 23.5933 10.1085 23.6315C10.1227 23.6352 10.1369 23.639 10.1512 23.6426C10.2432 23.666 10.3355 23.6883 10.428 23.7094C10.4909 23.7238 10.5538 23.7378 10.6169 23.7511C10.6483 23.7577 10.6799 23.764 10.7114 23.7703C10.7689 23.7819 10.8264 23.7936 10.884 23.8043C10.9271 23.8123 10.9704 23.8196 11.0136 23.8272C11.0609 23.8354 11.1081 23.8441 11.1555 23.8518C11.2464 23.8665 11.3375 23.8801 11.4288 23.8926C11.4513 23.8957 11.4739 23.8982 11.4964 23.9012C11.5705 23.911 11.6447 23.9202 11.719 23.9285C11.7433 23.9312 11.7676 23.9335 11.7919 23.936C11.8664 23.9438 11.9409 23.9511 12.0156 23.9575C12.0241 23.9582 12.0327 23.9592 12.0412 23.96C12.0446 23.9602 12.048 23.9602 12.0513 23.9604C12.3658 23.9862 12.6822 24 13 24C16.0718 24 18.9597 22.8038 21.1318 20.6317C23.115 18.6485 24.2841 16.0685 24.4725 13.2966C24.4733 13.2844 24.4739 13.2722 24.4747 13.26C24.4795 13.1864 24.484 13.1126 24.4873 13.0388C24.489 13.0018 24.49 12.9647 24.4914 12.9276C24.4933 12.8761 24.4955 12.8247 24.4967 12.7731C24.4989 12.6822 24.5 12.5911 24.5 12.5C24.5001 11.0594 24.2371 9.65435 23.7183 8.32381ZM9.67069 2.19343C9.52308 2.43138 9.37371 2.66556 9.23306 2.84745C9.04839 3.08625 8.94871 3.14371 8.9169 3.15701C8.77913 3.08634 8.58951 2.91245 8.42721 2.68124C8.83112 2.49284 9.24643 2.32992 9.67069 2.19343ZM12.387 22.9926C12.2432 23.0909 12.1056 23.1848 11.9746 23.2776C11.9575 23.2759 11.9404 23.274 11.9232 23.2723C11.8635 23.2665 11.8039 23.2602 11.7443 23.2534C11.6869 23.2468 11.6297 23.2393 11.5725 23.2317C11.5515 23.2289 11.5305 23.2266 11.5095 23.2236C11.0358 23.1579 10.567 23.0609 10.1061 22.9331C10.1147 22.6875 10.1377 22.42 10.1756 22.1225C10.4005 20.3559 10.4031 19.5265 8.10637 18.3781C7.37742 18.0136 7.06072 17.3245 7.16503 16.3298C7.24957 15.5236 7.58447 14.8189 7.58766 14.8122C7.59601 14.795 7.6028 14.777 7.6081 14.7587C7.69174 14.4673 7.41287 14.3207 7.29382 14.2581C7.18718 14.202 7.04069 14.1335 6.8552 14.0467C5.80632 13.5563 3.35007 12.4078 2.9756 10.8479C2.9676 10.8144 2.95988 10.7814 2.95251 10.7486C2.71123 9.67623 2.85948 8.54011 3.36975 7.5494C4.35731 5.63239 5.93098 4.02382 7.82287 2.99008C8.05444 3.34406 8.36225 3.64167 8.64764 3.77518C8.96883 3.92531 9.30781 3.79782 9.65511 3.3959C9.88636 3.12826 10.1174 2.75347 10.3407 2.39104C10.4354 2.23754 10.5325 2.07987 10.627 1.93517C11.3171 1.78122 12.0205 1.69492 12.7273 1.6775C12.8422 2.14276 12.7762 2.86474 12.2522 3.63619C12.1834 3.73758 11.693 3.78668 11.4837 3.80761C11.0881 3.84723 10.7465 3.88142 10.5461 4.08186C10.3195 4.3084 10.3787 4.57915 10.4104 4.72461C10.4465 4.88983 10.4614 4.9582 10.1397 5.13951C9.24124 5.64596 8.82396 6.42405 8.59984 6.8421L8.57114 6.89542C8.54832 6.93774 8.37923 6.98652 8.26733 7.01873C7.9389 7.11338 7.4426 7.25646 7.2724 7.8612C7.22383 8.03379 7.18394 8.21469 7.1454 8.38966C7.08008 8.68615 6.9623 9.22059 6.82039 9.29668C6.79528 9.2346 6.76873 9.12041 6.74986 9.03937C6.67322 8.71045 6.55746 8.21334 6.0697 7.96205C5.77793 7.81174 5.49923 7.77949 5.24102 7.86605C4.80042 8.01389 4.55241 8.46608 4.35453 8.87828C4.04919 9.51438 4.34837 9.94891 4.58875 10.298C4.83187 10.6511 5.06147 10.9845 4.93532 11.6414C4.87576 11.9517 5.07948 12.2777 5.55812 12.6382C6.00119 12.9718 6.65714 13.3116 7.26988 13.5248C7.79762 13.7085 8.52177 13.8792 8.97481 13.6493C9.61315 13.3254 10.2258 13.3324 10.903 13.6716C11.5283 13.9848 12.1152 14.5405 12.633 15.0309C13.3066 15.6688 13.8884 16.2197 14.5015 16.234C15.7707 16.2635 17.1373 17.2632 17.2054 17.5528C17.314 18.3059 16.3962 19.0493 15.5863 19.7052C14.9139 20.2499 14.2786 20.7644 14.1223 21.3428C13.9683 21.9125 13.0915 22.5114 12.387 22.9926ZM21.0377 19.7532C20.9136 19.8904 20.7862 20.0245 20.6554 20.1553C18.6325 22.1783 15.9499 23.3013 13.0927 23.3251C13.8358 22.8081 14.5819 22.2248 14.7727 21.5187C14.8721 21.1509 15.4508 20.6821 16.0104 20.2289C16.9597 19.4601 18.0355 18.5887 17.8722 17.4567C17.7957 16.9262 17.0002 16.4185 16.6616 16.2248C15.9502 15.8178 15.1685 15.5757 14.5172 15.5605H14.5171C14.1633 15.5523 13.6209 15.0385 13.0963 14.5418C12.0112 13.5142 10.5251 12.107 8.66983 13.0486C8.47033 13.1499 7.84389 13.0652 7.0326 12.7073C6.13533 12.3115 5.6636 11.8877 5.60219 11.7408C5.76903 10.8241 5.40799 10.2999 5.14367 9.91607C4.90729 9.57277 4.83214 9.4403 4.96192 9.16996C5.06178 8.96188 5.24771 8.57456 5.4553 8.50493C5.48477 8.49505 5.57434 8.46495 5.76104 8.56113C5.95717 8.66216 6.02001 8.87662 6.09355 9.19229C6.16385 9.49434 6.28083 10.0002 6.81837 9.97914C7.49076 9.95304 7.65679 9.19956 7.80328 8.53476C7.83981 8.36909 7.87754 8.1978 7.92089 8.04381C7.98329 7.82212 8.12385 7.76134 8.4538 7.66628C8.7002 7.59526 9.00684 7.50685 9.16406 7.21536L9.19344 7.1606C9.39878 6.77772 9.74239 6.13691 10.4704 5.72655C10.7832 5.55023 10.9756 5.35356 11.0585 5.1254C11.1389 4.9038 11.0966 4.7096 11.0685 4.58108C11.0663 4.57097 11.0639 4.55965 11.0615 4.54847C11.1727 4.51594 11.3948 4.49371 11.5507 4.47812C12.0255 4.43055 12.5637 4.37669 12.8095 4.01484C13.3179 3.26639 13.5344 2.40061 13.4157 1.68199C14.3286 1.7167 15.2334 1.86663 16.1087 2.1282C17.5484 3.92962 17.6644 4.39672 17.6732 4.46958C17.5716 4.98866 17.82 5.53743 17.9811 5.82389C17.7083 6.28008 17.0597 7.49199 17.1133 8.61885C17.1438 9.25877 17.4662 10.1666 17.9758 11.0473C18.6994 12.2977 19.2019 12.5481 19.4371 12.5861C19.8066 12.6458 20.2154 12.4063 20.6485 12.1529C21.0241 11.9332 21.5387 11.6324 21.702 11.7856C22.3229 12.3668 22.1716 14.2429 22.0263 15.3095C21.7855 17.0763 21.2699 18.9568 21.0377 19.7532Z"/>
</mask>
<path d="M23.7183 8.32381C23.7137 8.31211 23.7084 8.30069 23.7025 8.28958C23.2013 7.01515 22.4762 5.84067 21.5613 4.82164C21.5318 4.7887 21.4961 4.7619 21.4561 4.74278C21.4162 4.72366 21.373 4.71259 21.3288 4.7102C21.2846 4.70782 21.2404 4.71416 21.1986 4.72887C21.1569 4.74358 21.1185 4.76637 21.0856 4.79594C21.0526 4.82549 21.0259 4.86124 21.0068 4.90114C20.9876 4.94104 20.9766 4.98431 20.9742 5.02848C20.9718 5.07266 20.9781 5.11687 20.9928 5.1586C21.0075 5.20032 21.0303 5.23874 21.0599 5.27167C22.8439 7.25942 23.8264 9.8265 23.8264 12.4999C23.8264 12.5793 23.8251 12.6584 23.8235 12.7375C23.8229 12.7653 23.822 12.7931 23.8212 12.821C23.8198 12.8709 23.8179 12.9207 23.8158 12.9704C23.8142 13.0056 23.8129 13.0408 23.811 13.0759C23.8095 13.105 23.8075 13.134 23.8057 13.1631C23.6927 15.0128 23.1087 16.7935 22.115 18.3422C22.3326 17.4594 22.5551 16.4198 22.694 15.4003C22.9876 13.2465 22.8137 11.9032 22.1626 11.2936C21.632 10.7968 20.8982 11.2262 20.3084 11.5712C20.0714 11.7099 19.6743 11.9417 19.5473 11.9213C19.439 11.8934 19.0351 11.5414 18.5407 10.6777C18.1002 9.90821 17.8112 9.10698 17.7864 8.58674C17.7307 7.41715 18.6482 6.0264 18.6574 6.0127C18.6947 5.9566 18.7144 5.8906 18.714 5.8232C18.7136 5.7558 18.693 5.69007 18.6549 5.63446C18.5403 5.46717 18.2597 4.95366 18.336 4.59155C18.3713 4.42372 18.439 4.10149 17.294 2.55941C17.7359 2.7501 18.1644 2.97028 18.5767 3.21846C18.5795 3.22017 18.5824 3.22147 18.5853 3.22304C19.0758 3.51942 19.5422 3.85409 19.98 4.22395C20.0138 4.2525 20.0529 4.27411 20.095 4.28754C20.1372 4.30098 20.1816 4.30598 20.2257 4.30226C20.2697 4.29854 20.3127 4.28617 20.352 4.26586C20.3913 4.24555 20.4262 4.21769 20.4547 4.18388C20.4833 4.15007 20.5049 4.11098 20.5183 4.06883C20.5317 4.02667 20.5367 3.98229 20.533 3.9382C20.5293 3.89412 20.5169 3.8512 20.4966 3.8119C20.4763 3.7726 20.4484 3.73768 20.4146 3.70914C19.2291 2.70819 17.88 1.96913 16.4049 1.51254C16.3991 1.51075 16.3932 1.51012 16.3875 1.50868C15.29 1.17131 14.1482 0.999835 13 0.999939C12.8819 0.999939 12.7641 1.00232 12.6465 1.00587C12.6337 1.00627 12.621 1.00686 12.6081 1.00726C12.5105 1.0105 12.4131 1.01499 12.3159 1.02065L12.288 1.02236C9.48418 1.19252 6.87169 2.36485 4.86835 4.36824C2.69627 6.54031 1.5 9.42822 1.5 12.5C1.5 15.2103 2.46097 17.8421 4.20584 19.9107C4.23744 19.9482 4.27688 19.9784 4.3214 19.9991C4.36592 20.0198 4.41442 20.0304 4.46351 20.0304C4.52769 20.0303 4.59053 20.0119 4.64462 19.9774C4.69871 19.9428 4.74181 19.8936 4.76884 19.8353C4.79587 19.7771 4.80571 19.7124 4.79721 19.6488C4.7887 19.5852 4.7622 19.5253 4.72082 19.4762C3.07834 17.5291 2.17383 15.0515 2.17383 12.5C2.17383 11.9545 2.21399 11.4152 2.29274 10.8854L2.29508 10.8963C2.30307 10.932 2.31147 10.9681 2.32028 11.0049C2.77058 12.8807 5.33657 14.0805 6.56972 14.6571C6.66905 14.7035 6.77484 14.753 6.86284 14.7957C6.7416 15.1053 6.562 15.6421 6.49668 16.242C6.3559 17.5354 6.80831 18.4825 7.80495 18.9808C9.77109 19.9639 9.70461 20.4864 9.50709 22.0374C9.47578 22.2837 9.45426 22.5114 9.44164 22.7256C8.08856 22.2551 6.84254 21.5202 5.77609 20.5638C5.70943 20.505 5.62224 20.4749 5.53353 20.4801C5.44481 20.4854 5.36174 20.5254 5.30242 20.5916C5.24309 20.6577 5.21231 20.7447 5.21678 20.8334C5.22125 20.9222 5.26061 21.0056 5.32628 21.0655C6.57382 22.1846 8.05131 23.0169 9.65493 23.5039C9.65928 23.5054 9.66328 23.5076 9.66777 23.5089C9.81359 23.553 9.96076 23.5933 10.1085 23.6315C10.1227 23.6352 10.1369 23.639 10.1512 23.6426C10.2432 23.666 10.3355 23.6883 10.428 23.7094C10.4909 23.7238 10.5538 23.7378 10.6169 23.7511C10.6483 23.7577 10.6799 23.764 10.7114 23.7703C10.7689 23.7819 10.8264 23.7936 10.884 23.8043C10.9271 23.8123 10.9704 23.8196 11.0136 23.8272C11.0609 23.8354 11.1081 23.8441 11.1555 23.8518C11.2464 23.8665 11.3375 23.8801 11.4288 23.8926C11.4513 23.8957 11.4739 23.8982 11.4964 23.9012C11.5705 23.911 11.6447 23.9202 11.719 23.9285C11.7433 23.9312 11.7676 23.9335 11.7919 23.936C11.8664 23.9438 11.9409 23.9511 12.0156 23.9575C12.0241 23.9582 12.0327 23.9592 12.0412 23.96C12.0446 23.9602 12.048 23.9602 12.0513 23.9604C12.3658 23.9862 12.6822 24 13 24C16.0718 24 18.9597 22.8038 21.1318 20.6317C23.115 18.6485 24.2841 16.0685 24.4725 13.2966C24.4733 13.2844 24.4739 13.2722 24.4747 13.26C24.4795 13.1864 24.484 13.1126 24.4873 13.0388C24.489 13.0018 24.49 12.9647 24.4914 12.9276C24.4933 12.8761 24.4955 12.8247 24.4967 12.7731C24.4989 12.6822 24.5 12.5911 24.5 12.5C24.5001 11.0594 24.2371 9.65435 23.7183 8.32381ZM9.67069 2.19343C9.52308 2.43138 9.37371 2.66556 9.23306 2.84745C9.04839 3.08625 8.94871 3.14371 8.9169 3.15701C8.77913 3.08634 8.58951 2.91245 8.42721 2.68124C8.83112 2.49284 9.24643 2.32992 9.67069 2.19343ZM12.387 22.9926C12.2432 23.0909 12.1056 23.1848 11.9746 23.2776C11.9575 23.2759 11.9404 23.274 11.9232 23.2723C11.8635 23.2665 11.8039 23.2602 11.7443 23.2534C11.6869 23.2468 11.6297 23.2393 11.5725 23.2317C11.5515 23.2289 11.5305 23.2266 11.5095 23.2236C11.0358 23.1579 10.567 23.0609 10.1061 22.9331C10.1147 22.6875 10.1377 22.42 10.1756 22.1225C10.4005 20.3559 10.4031 19.5265 8.10637 18.3781C7.37742 18.0136 7.06072 17.3245 7.16503 16.3298C7.24957 15.5236 7.58447 14.8189 7.58766 14.8122C7.59601 14.795 7.6028 14.777 7.6081 14.7587C7.69174 14.4673 7.41287 14.3207 7.29382 14.2581C7.18718 14.202 7.04069 14.1335 6.8552 14.0467C5.80632 13.5563 3.35007 12.4078 2.9756 10.8479C2.9676 10.8144 2.95988 10.7814 2.95251 10.7486C2.71123 9.67623 2.85948 8.54011 3.36975 7.5494C4.35731 5.63239 5.93098 4.02382 7.82287 2.99008C8.05444 3.34406 8.36225 3.64167 8.64764 3.77518C8.96883 3.92531 9.30781 3.79782 9.65511 3.3959C9.88636 3.12826 10.1174 2.75347 10.3407 2.39104C10.4354 2.23754 10.5325 2.07987 10.627 1.93517C11.3171 1.78122 12.0205 1.69492 12.7273 1.6775C12.8422 2.14276 12.7762 2.86474 12.2522 3.63619C12.1834 3.73758 11.693 3.78668 11.4837 3.80761C11.0881 3.84723 10.7465 3.88142 10.5461 4.08186C10.3195 4.3084 10.3787 4.57915 10.4104 4.72461C10.4465 4.88983 10.4614 4.9582 10.1397 5.13951C9.24124 5.64596 8.82396 6.42405 8.59984 6.8421L8.57114 6.89542C8.54832 6.93774 8.37923 6.98652 8.26733 7.01873C7.9389 7.11338 7.4426 7.25646 7.2724 7.8612C7.22383 8.03379 7.18394 8.21469 7.1454 8.38966C7.08008 8.68615 6.9623 9.22059 6.82039 9.29668C6.79528 9.2346 6.76873 9.12041 6.74986 9.03937C6.67322 8.71045 6.55746 8.21334 6.0697 7.96205C5.77793 7.81174 5.49923 7.77949 5.24102 7.86605C4.80042 8.01389 4.55241 8.46608 4.35453 8.87828C4.04919 9.51438 4.34837 9.94891 4.58875 10.298C4.83187 10.6511 5.06147 10.9845 4.93532 11.6414C4.87576 11.9517 5.07948 12.2777 5.55812 12.6382C6.00119 12.9718 6.65714 13.3116 7.26988 13.5248C7.79762 13.7085 8.52177 13.8792 8.97481 13.6493C9.61315 13.3254 10.2258 13.3324 10.903 13.6716C11.5283 13.9848 12.1152 14.5405 12.633 15.0309C13.3066 15.6688 13.8884 16.2197 14.5015 16.234C15.7707 16.2635 17.1373 17.2632 17.2054 17.5528C17.314 18.3059 16.3962 19.0493 15.5863 19.7052C14.9139 20.2499 14.2786 20.7644 14.1223 21.3428C13.9683 21.9125 13.0915 22.5114 12.387 22.9926ZM21.0377 19.7532C20.9136 19.8904 20.7862 20.0245 20.6554 20.1553C18.6325 22.1783 15.9499 23.3013 13.0927 23.3251C13.8358 22.8081 14.5819 22.2248 14.7727 21.5187C14.8721 21.1509 15.4508 20.6821 16.0104 20.2289C16.9597 19.4601 18.0355 18.5887 17.8722 17.4567C17.7957 16.9262 17.0002 16.4185 16.6616 16.2248C15.9502 15.8178 15.1685 15.5757 14.5172 15.5605H14.5171C14.1633 15.5523 13.6209 15.0385 13.0963 14.5418C12.0112 13.5142 10.5251 12.107 8.66983 13.0486C8.47033 13.1499 7.84389 13.0652 7.0326 12.7073C6.13533 12.3115 5.6636 11.8877 5.60219 11.7408C5.76903 10.8241 5.40799 10.2999 5.14367 9.91607C4.90729 9.57277 4.83214 9.4403 4.96192 9.16996C5.06178 8.96188 5.24771 8.57456 5.4553 8.50493C5.48477 8.49505 5.57434 8.46495 5.76104 8.56113C5.95717 8.66216 6.02001 8.87662 6.09355 9.19229C6.16385 9.49434 6.28083 10.0002 6.81837 9.97914C7.49076 9.95304 7.65679 9.19956 7.80328 8.53476C7.83981 8.36909 7.87754 8.1978 7.92089 8.04381C7.98329 7.82212 8.12385 7.76134 8.4538 7.66628C8.7002 7.59526 9.00684 7.50685 9.16406 7.21536L9.19344 7.1606C9.39878 6.77772 9.74239 6.13691 10.4704 5.72655C10.7832 5.55023 10.9756 5.35356 11.0585 5.1254C11.1389 4.9038 11.0966 4.7096 11.0685 4.58108C11.0663 4.57097 11.0639 4.55965 11.0615 4.54847C11.1727 4.51594 11.3948 4.49371 11.5507 4.47812C12.0255 4.43055 12.5637 4.37669 12.8095 4.01484C13.3179 3.26639 13.5344 2.40061 13.4157 1.68199C14.3286 1.7167 15.2334 1.86663 16.1087 2.1282C17.5484 3.92962 17.6644 4.39672 17.6732 4.46958C17.5716 4.98866 17.82 5.53743 17.9811 5.82389C17.7083 6.28008 17.0597 7.49199 17.1133 8.61885C17.1438 9.25877 17.4662 10.1666 17.9758 11.0473C18.6994 12.2977 19.2019 12.5481 19.4371 12.5861C19.8066 12.6458 20.2154 12.4063 20.6485 12.1529C21.0241 11.9332 21.5387 11.6324 21.702 11.7856C22.3229 12.3668 22.1716 14.2429 22.0263 15.3095C21.7855 17.0763 21.2699 18.9568 21.0377 19.7532Z" fill="#231F20"/>
<path d="M23.7183 8.32381C23.7137 8.31211 23.7084 8.30069 23.7025 8.28958C23.2013 7.01515 22.4762 5.84067 21.5613 4.82164C21.5318 4.7887 21.4961 4.7619 21.4561 4.74278C21.4162 4.72366 21.373 4.71259 21.3288 4.7102C21.2846 4.70782 21.2404 4.71416 21.1986 4.72887C21.1569 4.74358 21.1185 4.76637 21.0856 4.79594C21.0526 4.82549 21.0259 4.86124 21.0068 4.90114C20.9876 4.94104 20.9766 4.98431 20.9742 5.02848C20.9718 5.07266 20.9781 5.11687 20.9928 5.1586C21.0075 5.20032 21.0303 5.23874 21.0599 5.27167C22.8439 7.25942 23.8264 9.8265 23.8264 12.4999C23.8264 12.5793 23.8251 12.6584 23.8235 12.7375C23.8229 12.7653 23.822 12.7931 23.8212 12.821C23.8198 12.8709 23.8179 12.9207 23.8158 12.9704C23.8142 13.0056 23.8129 13.0408 23.811 13.0759C23.8095 13.105 23.8075 13.134 23.8057 13.1631C23.6927 15.0128 23.1087 16.7935 22.115 18.3422C22.3326 17.4594 22.5551 16.4198 22.694 15.4003C22.9876 13.2465 22.8137 11.9032 22.1626 11.2936C21.632 10.7968 20.8982 11.2262 20.3084 11.5712C20.0714 11.7099 19.6743 11.9417 19.5473 11.9213C19.439 11.8934 19.0351 11.5414 18.5407 10.6777C18.1002 9.90821 17.8112 9.10698 17.7864 8.58674C17.7307 7.41715 18.6482 6.0264 18.6574 6.0127C18.6947 5.9566 18.7144 5.8906 18.714 5.8232C18.7136 5.7558 18.693 5.69007 18.6549 5.63446C18.5403 5.46717 18.2597 4.95366 18.336 4.59155C18.3713 4.42372 18.439 4.10149 17.294 2.55941C17.7359 2.7501 18.1644 2.97028 18.5767 3.21846C18.5795 3.22017 18.5824 3.22147 18.5853 3.22304C19.0758 3.51942 19.5422 3.85409 19.98 4.22395C20.0138 4.2525 20.0529 4.27411 20.095 4.28754C20.1372 4.30098 20.1816 4.30598 20.2257 4.30226C20.2697 4.29854 20.3127 4.28617 20.352 4.26586C20.3913 4.24555 20.4262 4.21769 20.4547 4.18388C20.4833 4.15007 20.5049 4.11098 20.5183 4.06883C20.5317 4.02667 20.5367 3.98229 20.533 3.9382C20.5293 3.89412 20.5169 3.8512 20.4966 3.8119C20.4763 3.7726 20.4484 3.73768 20.4146 3.70914C19.2291 2.70819 17.88 1.96913 16.4049 1.51254C16.3991 1.51075 16.3932 1.51012 16.3875 1.50868C15.29 1.17131 14.1482 0.999835 13 0.999939C12.8819 0.999939 12.7641 1.00232 12.6465 1.00587C12.6337 1.00627 12.621 1.00686 12.6081 1.00726C12.5105 1.0105 12.4131 1.01499 12.3159 1.02065L12.288 1.02236C9.48418 1.19252 6.87169 2.36485 4.86835 4.36824C2.69627 6.54031 1.5 9.42822 1.5 12.5C1.5 15.2103 2.46097 17.8421 4.20584 19.9107C4.23744 19.9482 4.27688 19.9784 4.3214 19.9991C4.36592 20.0198 4.41442 20.0304 4.46351 20.0304C4.52769 20.0303 4.59053 20.0119 4.64462 19.9774C4.69871 19.9428 4.74181 19.8936 4.76884 19.8353C4.79587 19.7771 4.80571 19.7124 4.79721 19.6488C4.7887 19.5852 4.7622 19.5253 4.72082 19.4762C3.07834 17.5291 2.17383 15.0515 2.17383 12.5C2.17383 11.9545 2.21399 11.4152 2.29274 10.8854L2.29508 10.8963C2.30307 10.932 2.31147 10.9681 2.32028 11.0049C2.77058 12.8807 5.33657 14.0805 6.56972 14.6571C6.66905 14.7035 6.77484 14.753 6.86284 14.7957C6.7416 15.1053 6.562 15.6421 6.49668 16.242C6.3559 17.5354 6.80831 18.4825 7.80495 18.9808C9.77109 19.9639 9.70461 20.4864 9.50709 22.0374C9.47578 22.2837 9.45426 22.5114 9.44164 22.7256C8.08856 22.2551 6.84254 21.5202 5.77609 20.5638C5.70943 20.505 5.62224 20.4749 5.53353 20.4801C5.44481 20.4854 5.36174 20.5254 5.30242 20.5916C5.24309 20.6577 5.21231 20.7447 5.21678 20.8334C5.22125 20.9222 5.26061 21.0056 5.32628 21.0655C6.57382 22.1846 8.05131 23.0169 9.65493 23.5039C9.65928 23.5054 9.66328 23.5076 9.66777 23.5089C9.81359 23.553 9.96076 23.5933 10.1085 23.6315C10.1227 23.6352 10.1369 23.639 10.1512 23.6426C10.2432 23.666 10.3355 23.6883 10.428 23.7094C10.4909 23.7238 10.5538 23.7378 10.6169 23.7511C10.6483 23.7577 10.6799 23.764 10.7114 23.7703C10.7689 23.7819 10.8264 23.7936 10.884 23.8043C10.9271 23.8123 10.9704 23.8196 11.0136 23.8272C11.0609 23.8354 11.1081 23.8441 11.1555 23.8518C11.2464 23.8665 11.3375 23.8801 11.4288 23.8926C11.4513 23.8957 11.4739 23.8982 11.4964 23.9012C11.5705 23.911 11.6447 23.9202 11.719 23.9285C11.7433 23.9312 11.7676 23.9335 11.7919 23.936C11.8664 23.9438 11.9409 23.9511 12.0156 23.9575C12.0241 23.9582 12.0327 23.9592 12.0412 23.96C12.0446 23.9602 12.048 23.9602 12.0513 23.9604C12.3658 23.9862 12.6822 24 13 24C16.0718 24 18.9597 22.8038 21.1318 20.6317C23.115 18.6485 24.2841 16.0685 24.4725 13.2966C24.4733 13.2844 24.4739 13.2722 24.4747 13.26C24.4795 13.1864 24.484 13.1126 24.4873 13.0388C24.489 13.0018 24.49 12.9647 24.4914 12.9276C24.4933 12.8761 24.4955 12.8247 24.4967 12.7731C24.4989 12.6822 24.5 12.5911 24.5 12.5C24.5001 11.0594 24.2371 9.65435 23.7183 8.32381ZM9.67069 2.19343C9.52308 2.43138 9.37371 2.66556 9.23306 2.84745C9.04839 3.08625 8.94871 3.14371 8.9169 3.15701C8.77913 3.08634 8.58951 2.91245 8.42721 2.68124C8.83112 2.49284 9.24643 2.32992 9.67069 2.19343ZM12.387 22.9926C12.2432 23.0909 12.1056 23.1848 11.9746 23.2776C11.9575 23.2759 11.9404 23.274 11.9232 23.2723C11.8635 23.2665 11.8039 23.2602 11.7443 23.2534C11.6869 23.2468 11.6297 23.2393 11.5725 23.2317C11.5515 23.2289 11.5305 23.2266 11.5095 23.2236C11.0358 23.1579 10.567 23.0609 10.1061 22.9331C10.1147 22.6875 10.1377 22.42 10.1756 22.1225C10.4005 20.3559 10.4031 19.5265 8.10637 18.3781C7.37742 18.0136 7.06072 17.3245 7.16503 16.3298C7.24957 15.5236 7.58447 14.8189 7.58766 14.8122C7.59601 14.795 7.6028 14.777 7.6081 14.7587C7.69174 14.4673 7.41287 14.3207 7.29382 14.2581C7.18718 14.202 7.04069 14.1335 6.8552 14.0467C5.80632 13.5563 3.35007 12.4078 2.9756 10.8479C2.9676 10.8144 2.95988 10.7814 2.95251 10.7486C2.71123 9.67623 2.85948 8.54011 3.36975 7.5494C4.35731 5.63239 5.93098 4.02382 7.82287 2.99008C8.05444 3.34406 8.36225 3.64167 8.64764 3.77518C8.96883 3.92531 9.30781 3.79782 9.65511 3.3959C9.88636 3.12826 10.1174 2.75347 10.3407 2.39104C10.4354 2.23754 10.5325 2.07987 10.627 1.93517C11.3171 1.78122 12.0205 1.69492 12.7273 1.6775C12.8422 2.14276 12.7762 2.86474 12.2522 3.63619C12.1834 3.73758 11.693 3.78668 11.4837 3.80761C11.0881 3.84723 10.7465 3.88142 10.5461 4.08186C10.3195 4.3084 10.3787 4.57915 10.4104 4.72461C10.4465 4.88983 10.4614 4.9582 10.1397 5.13951C9.24124 5.64596 8.82396 6.42405 8.59984 6.8421L8.57114 6.89542C8.54832 6.93774 8.37923 6.98652 8.26733 7.01873C7.9389 7.11338 7.4426 7.25646 7.2724 7.8612C7.22383 8.03379 7.18394 8.21469 7.1454 8.38966C7.08008 8.68615 6.9623 9.22059 6.82039 9.29668C6.79528 9.2346 6.76873 9.12041 6.74986 9.03937C6.67322 8.71045 6.55746 8.21334 6.0697 7.96205C5.77793 7.81174 5.49923 7.77949 5.24102 7.86605C4.80042 8.01389 4.55241 8.46608 4.35453 8.87828C4.04919 9.51438 4.34837 9.94891 4.58875 10.298C4.83187 10.6511 5.06147 10.9845 4.93532 11.6414C4.87576 11.9517 5.07948 12.2777 5.55812 12.6382C6.00119 12.9718 6.65714 13.3116 7.26988 13.5248C7.79762 13.7085 8.52177 13.8792 8.97481 13.6493C9.61315 13.3254 10.2258 13.3324 10.903 13.6716C11.5283 13.9848 12.1152 14.5405 12.633 15.0309C13.3066 15.6688 13.8884 16.2197 14.5015 16.234C15.7707 16.2635 17.1373 17.2632 17.2054 17.5528C17.314 18.3059 16.3962 19.0493 15.5863 19.7052C14.9139 20.2499 14.2786 20.7644 14.1223 21.3428C13.9683 21.9125 13.0915 22.5114 12.387 22.9926ZM21.0377 19.7532C20.9136 19.8904 20.7862 20.0245 20.6554 20.1553C18.6325 22.1783 15.9499 23.3013 13.0927 23.3251C13.8358 22.8081 14.5819 22.2248 14.7727 21.5187C14.8721 21.1509 15.4508 20.6821 16.0104 20.2289C16.9597 19.4601 18.0355 18.5887 17.8722 17.4567C17.7957 16.9262 17.0002 16.4185 16.6616 16.2248C15.9502 15.8178 15.1685 15.5757 14.5172 15.5605H14.5171C14.1633 15.5523 13.6209 15.0385 13.0963 14.5418C12.0112 13.5142 10.5251 12.107 8.66983 13.0486C8.47033 13.1499 7.84389 13.0652 7.0326 12.7073C6.13533 12.3115 5.6636 11.8877 5.60219 11.7408C5.76903 10.8241 5.40799 10.2999 5.14367 9.91607C4.90729 9.57277 4.83214 9.4403 4.96192 9.16996C5.06178 8.96188 5.24771 8.57456 5.4553 8.50493C5.48477 8.49505 5.57434 8.46495 5.76104 8.56113C5.95717 8.66216 6.02001 8.87662 6.09355 9.19229C6.16385 9.49434 6.28083 10.0002 6.81837 9.97914C7.49076 9.95304 7.65679 9.19956 7.80328 8.53476C7.83981 8.36909 7.87754 8.1978 7.92089 8.04381C7.98329 7.82212 8.12385 7.76134 8.4538 7.66628C8.7002 7.59526 9.00684 7.50685 9.16406 7.21536L9.19344 7.1606C9.39878 6.77772 9.74239 6.13691 10.4704 5.72655C10.7832 5.55023 10.9756 5.35356 11.0585 5.1254C11.1389 4.9038 11.0966 4.7096 11.0685 4.58108C11.0663 4.57097 11.0639 4.55965 11.0615 4.54847C11.1727 4.51594 11.3948 4.49371 11.5507 4.47812C12.0255 4.43055 12.5637 4.37669 12.8095 4.01484C13.3179 3.26639 13.5344 2.40061 13.4157 1.68199C14.3286 1.7167 15.2334 1.86663 16.1087 2.1282C17.5484 3.92962 17.6644 4.39672 17.6732 4.46958C17.5716 4.98866 17.82 5.53743 17.9811 5.82389C17.7083 6.28008 17.0597 7.49199 17.1133 8.61885C17.1438 9.25877 17.4662 10.1666 17.9758 11.0473C18.6994 12.2977 19.2019 12.5481 19.4371 12.5861C19.8066 12.6458 20.2154 12.4063 20.6485 12.1529C21.0241 11.9332 21.5387 11.6324 21.702 11.7856C22.3229 12.3668 22.1716 14.2429 22.0263 15.3095C21.7855 17.0763 21.2699 18.9568 21.0377 19.7532Z" stroke="#231F20" stroke-width="0.4" mask="url(#path-1-outside-1_340_2557)"/>
</svg>
