<svg width="50" height="50" viewBox="0 0 50 50" fill="none" xmlns="http://www.w3.org/2000/svg">
<g clip-path="url(#clip0_452_61)">
<path d="M6.5582 2.74194C5.20371 2.74194 4.10156 3.84399 4.10156 5.19858C4.10156 6.55288 5.20361 7.65493 6.55781 7.65493C7.9124 7.65493 9.01455 6.55288 9.01455 5.19858C9.01455 3.84409 7.9124 2.74194 6.5582 2.74194ZM6.5582 6.19009C6.01123 6.19009 5.56641 5.74526 5.56641 5.19858C5.56641 4.65161 6.01123 4.20679 6.55781 4.20679C7.10488 4.20679 7.54971 4.65161 7.54971 5.19858C7.54971 5.74526 7.10488 6.19009 6.5582 6.19009ZM12.3939 2.74194C11.0397 2.74194 9.9377 3.84399 9.9377 5.19858C9.9377 6.55288 11.0397 7.65493 12.3939 7.65493C13.7485 7.65493 14.8506 6.55288 14.8506 5.19858C14.8506 3.84409 13.7485 2.74194 12.3939 2.74194ZM12.3939 6.19009C11.8473 6.19009 11.4025 5.74526 11.4025 5.19858C11.4025 4.65161 11.8473 4.20679 12.3939 4.20679C12.941 4.20679 13.3857 4.65161 13.3857 5.19858C13.3857 5.74526 12.941 6.19009 12.3939 6.19009ZM18.2301 2.74194C16.8755 2.74194 15.7734 3.84399 15.7734 5.19858C15.7734 6.55288 16.8755 7.65493 18.2301 7.65493C19.5843 7.65493 20.6863 6.55288 20.6863 5.19858C20.6863 3.84409 19.5843 2.74194 18.2301 2.74194ZM18.2301 6.19009C17.683 6.19009 17.2383 5.74526 17.2383 5.19858C17.2383 4.65161 17.683 4.20679 18.2301 4.20679C18.7767 4.20679 19.2215 4.65161 19.2215 5.19858C19.2215 5.74526 18.7767 6.19009 18.2301 6.19009ZM44.9055 5.19858C44.9055 4.7939 44.5778 4.46616 44.173 4.46616H26.3348C26.2386 4.46612 26.1433 4.48504 26.0544 4.52184C25.9656 4.55863 25.8848 4.61258 25.8168 4.6806C25.7488 4.74862 25.6948 4.82937 25.658 4.91825C25.6212 5.00713 25.6023 5.10239 25.6023 5.19858C25.6023 5.39283 25.6795 5.57913 25.8169 5.71648C25.9542 5.85384 26.1405 5.93101 26.3348 5.93101H44.1734C44.5777 5.93101 44.9055 5.60298 44.9055 5.19858Z" fill="#231F20"/>
<path d="M46.9418 0.0976562H3.0582C1.36943 0.0976562 5.60147e-09 1.47207 5.60147e-09 3.15586V43.9029C-1.24743e-05 44.1097 0.0208286 44.316 0.062207 44.5187C0.0698242 44.5557 0.0782227 44.5927 0.0874023 44.6297C0.0990629 44.6786 0.112154 44.7272 0.12666 44.7754C0.503125 46.0381 1.675 46.9612 3.0583 46.9612H46.9418C48.6278 46.9612 50 45.5895 50 43.9029V3.15586C50 1.47168 48.6302 0.0976562 46.9418 0.0976562ZM15.7734 45.4964H3.0582C2.33076 45.4964 1.71543 45.0062 1.52549 44.3386C1.52167 44.326 1.51825 44.3133 1.51523 44.3005C1.48179 44.1706 1.46486 44.0371 1.46484 43.903V10.2992H15.7734V45.4964ZM46.9418 45.4964H17.2383V10.2993H33.8867C34.081 10.2993 34.2673 10.2222 34.4046 10.0848C34.542 9.94744 34.6191 9.76114 34.6191 9.56689C34.6191 9.37264 34.542 9.18635 34.4046 9.04899C34.2673 8.91164 34.081 8.83447 33.8867 8.83447H1.46484V3.15586C1.46484 2.2793 2.17744 1.5625 3.0582 1.5625H46.9418C47.8164 1.5625 48.5352 2.27354 48.5352 3.15586V8.83447H36.6211C36.4268 8.83447 36.2405 8.91164 36.1032 9.04899C35.9658 9.18635 35.8887 9.37264 35.8887 9.56689C35.8887 9.76114 35.9658 9.94744 36.1032 10.0848C36.2405 10.2222 36.4268 10.2993 36.6211 10.2993H48.5352V43.9029C48.5352 44.7815 47.8203 45.4964 46.9418 45.4964Z" fill="#231F20"/>
<path d="M3.78516 14.3984H13.4531C13.8574 14.3984 14.1855 14.0704 14.1855 13.666C14.1855 13.2616 13.8574 12.9336 13.4531 12.9336H3.78516C3.59091 12.9336 3.40461 13.0108 3.26726 13.1481C3.1299 13.2855 3.05273 13.4718 3.05273 13.666C3.05273 13.8603 3.1299 14.0466 3.26726 14.1839C3.40461 14.3213 3.59091 14.3984 3.78516 14.3984ZM3.78516 18.9804H13.4531C13.6474 18.9804 13.8337 18.9032 13.971 18.7658C14.1084 18.6285 14.1855 18.4422 14.1855 18.2479C14.1855 18.0537 14.1084 17.8674 13.971 17.73C13.8337 17.5927 13.6474 17.5155 13.4531 17.5155H3.78516C3.68896 17.5155 3.5937 17.5344 3.50483 17.5712C3.41595 17.608 3.33519 17.6619 3.26717 17.73C3.19915 17.798 3.1452 17.8787 3.10841 17.9676C3.07161 18.0565 3.0527 18.1518 3.05273 18.2479C3.05273 18.4422 3.1299 18.6285 3.26726 18.7658C3.40461 18.9032 3.59091 18.9804 3.78516 18.9804ZM3.78516 23.5617H13.4531C13.8574 23.5617 14.1855 23.2337 14.1855 22.8293C14.1855 22.425 13.8574 22.0969 13.4531 22.0969H3.78516C3.59091 22.0969 3.40461 22.174 3.26726 22.3114C3.1299 22.4488 3.05273 22.635 3.05273 22.8293C3.05273 23.0235 3.1299 23.2098 3.26726 23.3472C3.40461 23.4846 3.59091 23.5617 3.78516 23.5617ZM3.78516 28.1433H13.4531C13.6474 28.1433 13.8337 28.0661 13.971 27.9287C14.1084 27.7914 14.1855 27.6051 14.1855 27.4108C14.1855 27.2166 14.1084 27.0303 13.971 26.8929C13.8337 26.7556 13.6474 26.6784 13.4531 26.6784H3.78516C3.59091 26.6784 3.40461 26.7556 3.26726 26.8929C3.1299 27.0303 3.05273 27.2166 3.05273 27.4108C3.05273 27.8155 3.38037 28.1433 3.78516 28.1433ZM20.3047 23.0414H30.4762C31.3066 23.0414 31.9822 22.3658 31.9822 21.5354V13.9221C31.9822 13.0916 31.3066 12.416 30.4762 12.416H20.3047C19.4742 12.416 18.7986 13.0916 18.7986 13.922V21.5354C18.7986 22.3658 19.4742 23.0414 20.3047 23.0414ZM20.2635 13.9221C20.2635 13.8995 20.2818 13.8809 20.3047 13.8809H30.4762C30.4986 13.8809 30.5174 13.8995 30.5174 13.9221V21.5354C30.5174 21.5578 30.499 21.5766 30.4762 21.5766H20.3047C20.2938 21.5765 20.2833 21.5721 20.2756 21.5644C20.2679 21.5567 20.2636 21.5463 20.2635 21.5354V13.9221ZM35.4414 23.0414H45.6129C46.4434 23.0414 47.1189 22.3658 47.1189 21.5354V13.9221C47.1189 13.0916 46.4434 12.416 45.6129 12.416H35.4414C34.6109 12.416 33.9354 13.0916 33.9354 13.922V21.5354C33.9354 22.3658 34.6109 23.0414 35.4414 23.0414ZM45.4768 13.8809C45.5744 13.8809 45.6541 13.9605 45.6541 14.0582V21.3992C45.6541 21.4969 45.5744 21.5766 45.4768 21.5766H35.5775C35.4799 21.5766 35.4002 21.4969 35.4002 21.3992V14.0582C35.4002 13.9605 35.4799 13.8809 35.5775 13.8809H45.4768ZM45.6641 38.1552H20.3047C19.4742 38.1552 18.7986 38.8309 18.7986 39.6613V41.3169C18.7986 42.1474 19.4742 42.8229 20.3047 42.8229H45.6641C46.4944 42.8229 47.17 42.1474 47.17 41.3169V39.6613C47.17 38.8309 46.4944 38.1553 45.6641 38.1553V38.1552ZM45.7052 41.3169C45.7052 41.3394 45.6869 41.3581 45.6641 41.3581H20.3047C20.2993 41.3581 20.2939 41.3571 20.2889 41.355C20.2839 41.353 20.2793 41.3499 20.2755 41.3461C20.2717 41.3423 20.2686 41.3377 20.2666 41.3327C20.2645 41.3277 20.2635 41.3223 20.2635 41.3169V39.6613C20.2635 39.6559 20.2645 39.6505 20.2666 39.6455C20.2686 39.6405 20.2717 39.636 20.2755 39.6321C20.2793 39.6283 20.2839 39.6253 20.2889 39.6232C20.2939 39.6211 20.2993 39.6201 20.3047 39.6201H45.6641C45.6865 39.6201 45.7052 39.6384 45.7052 39.6613V41.3169ZM20.3047 36.1259H24.0232C24.2175 36.1259 24.4038 36.0487 24.5411 35.9114C24.6785 35.774 24.7557 35.5877 24.7557 35.3935C24.7557 35.1992 24.6785 35.0129 24.5411 34.8756C24.4038 34.7382 24.2175 34.661 24.0232 34.661H20.3047C20.2938 34.661 20.2833 34.6567 20.2756 34.6489C20.2679 34.6412 20.2635 34.6307 20.2635 34.6198V26.2062C20.2635 26.1837 20.2818 26.1649 20.3047 26.1649H45.6129C45.6354 26.1649 45.6541 26.1836 45.6541 26.2062V34.6198C45.6541 34.6252 45.6531 34.6306 45.651 34.6356C45.649 34.6406 45.6459 34.6452 45.6421 34.649C45.6383 34.6529 45.6337 34.6559 45.6287 34.658C45.6237 34.66 45.6183 34.6611 45.6129 34.661H26.7576C26.5634 34.661 26.3771 34.7382 26.2397 34.8756C26.1024 35.0129 26.0252 35.1992 26.0252 35.3935C26.0252 35.5877 26.1024 35.774 26.2397 35.9114C26.3771 36.0487 26.5634 36.1259 26.7576 36.1259H45.6129C46.4434 36.1259 47.1189 35.4503 47.1189 34.6198V26.2062C47.1189 25.3757 46.4434 24.7001 45.6129 24.7001H20.3047C19.4742 24.7001 18.7986 25.3757 18.7986 26.2062V34.6198C18.7986 35.4503 19.4742 36.1259 20.3047 36.1259Z" fill="#BD3A4A"/>
</g>
<defs>
<clipPath id="clip0_452_61">
<rect width="50" height="50" fill="white"/>
</clipPath>
</defs>
</svg>
