<svg width="50" height="50" viewBox="0 0 50 50" fill="none" xmlns="http://www.w3.org/2000/svg">
<g clip-path="url(#clip0_452_2)">
<path d="M42.7166 7.36191C38.0229 2.64727 31.7765 0.0334961 25.1263 0.00146484H25.124C25.0393 -0.000488281 24.947 -0.000488281 24.8737 0.00146484C18.2235 0.0334961 11.9771 2.64727 7.28301 7.36182C2.58633 12.0792 0 18.3434 0 25.0004C0 28.2833 0.626758 31.4755 1.86309 34.4875C1.93695 34.6673 2.0792 34.8103 2.25855 34.8852C2.43789 34.9602 2.63965 34.9608 2.81943 34.8869C2.99916 34.8131 3.14221 34.6709 3.21712 34.4917C3.29202 34.3124 3.29264 34.1107 3.21885 33.931C2.7329 32.7469 2.34517 31.5249 2.05957 30.2772C4.2332 32.9285 8.03418 35.1608 13.0088 36.5807C14.4467 41.7168 16.7572 45.6471 19.5202 47.8897C17.2588 47.3499 15.0825 46.4767 13.0715 45.2923C9.60693 43.2515 6.70283 40.3382 4.67227 36.8679C4.62368 36.7848 4.55921 36.7121 4.48253 36.654C4.40585 36.5958 4.31846 36.5533 4.22536 36.529C4.13226 36.5046 4.03527 36.4988 3.93993 36.5119C3.8446 36.5251 3.75278 36.5568 3.66973 36.6055C3.58665 36.654 3.51395 36.7185 3.4558 36.7952C3.39764 36.8718 3.35516 36.9592 3.3308 37.0523C3.30643 37.1454 3.30064 37.2424 3.31377 37.3377C3.3269 37.4331 3.35869 37.5249 3.40732 37.6079C5.56377 41.2934 8.64834 44.3874 12.3275 46.555C16.1159 48.7865 20.454 49.9775 24.8734 49.9993C24.9149 50 24.9573 50 24.9996 50C25.0436 50 25.0865 50 25.124 49.9992H25.126C31.7764 49.9668 38.0227 47.353 42.7166 42.6384C47.4133 37.9211 49.9996 31.657 49.9996 25.0004C49.9996 18.3434 47.4133 12.0791 42.7166 7.36191ZM37.7403 16.6377C37.6411 16.115 37.5315 15.5943 37.4115 15.076C40.6006 16.0743 43.2877 17.4426 45.2328 19.0685C47.1378 20.6614 48.2502 22.4452 48.4863 24.2675H39.7175V18.9948C39.7175 17.8168 38.8622 16.8356 37.7403 16.6377ZM25.7328 13.2983C29.2366 13.3536 32.6896 13.8053 35.791 14.6125C35.9593 15.2709 36.1098 15.9338 36.2423 16.6003H25.7328V13.2983ZM25.7328 11.8327V1.51045C27.6752 1.74707 29.5719 2.92275 31.2538 4.9418C32.9323 6.95713 34.3312 9.72246 35.3358 12.989C32.3345 12.2798 29.0531 11.8838 25.7328 11.8327ZM24.2672 1.51094V11.8327C22.4938 11.8594 20.7344 11.9826 19.0266 12.2005C18.6252 12.252 18.341 12.6185 18.3926 13.0202C18.4437 13.4216 18.8114 13.7058 19.2119 13.6542C20.8588 13.4444 22.556 13.3246 24.2672 13.2983V16.6007H13.7578C13.8903 15.9337 14.0409 15.2705 14.2095 14.6117C14.7781 14.4635 15.3502 14.3287 15.9253 14.2074C16.0195 14.1876 16.1088 14.1494 16.1882 14.095C16.2676 14.0406 16.3355 13.9711 16.388 13.8905C16.4405 13.8098 16.4767 13.7197 16.4943 13.6251C16.512 13.5305 16.5109 13.4333 16.491 13.3392C16.4075 12.9432 16.0187 12.6895 15.6229 12.7734C15.3024 12.8414 14.9828 12.9132 14.6642 12.989C15.6686 9.72236 17.0678 6.95713 18.7459 4.9418C20.4267 2.92422 22.3218 1.74893 24.2674 1.51094H24.2672ZM12.2598 16.6376C11.1375 16.8355 10.2822 17.8167 10.2822 18.9947V24.2675H1.51367C1.74941 22.4448 2.86182 20.661 4.76719 19.0685C6.71191 17.4422 9.39902 16.0739 12.5881 15.076C12.4683 15.5943 12.3588 16.115 12.2597 16.6377L12.2598 16.6376ZM11.7479 18.9947C11.7479 18.4824 12.1648 18.0658 12.6771 18.0658H37.3231C37.8354 18.0658 38.2523 18.4824 38.2523 18.9947V31.0053C38.2523 31.5176 37.8354 31.9342 37.3231 31.9342H12.6771C12.1646 31.9342 11.7478 31.5176 11.7478 31.0053L11.7479 18.9947ZM14.209 35.3876C14.0405 34.7292 13.89 34.0664 13.7577 33.3998H24.2672V36.7018C20.763 36.6465 17.3104 36.1948 14.209 35.3876ZM25.7328 33.3998H36.2422C36.1097 34.0663 35.9592 34.7292 35.7909 35.3876C32.6896 36.1948 29.2365 36.6464 25.7327 36.7018L25.7328 33.3998ZM37.7403 33.3627C38.8622 33.1645 39.7175 32.1833 39.7175 31.0053V25.733H48.4863C48.2502 27.5553 47.1378 29.3391 45.2328 30.9316C43.2881 32.5579 40.601 33.9262 37.4115 34.9241C37.5314 34.4059 37.641 33.8853 37.7403 33.3627ZM47.9435 19.7268C45.7703 17.074 41.9682 14.8397 36.9907 13.4195C35.5515 8.27773 33.2375 4.34473 30.4702 2.10322C34.6832 3.10156 38.5479 5.25146 41.6778 8.39561C44.8318 11.5633 46.9737 15.4718 47.9435 19.7267V19.7268ZM8.32178 8.3957C11.4524 5.25117 15.3176 3.10078 19.5316 2.10293C16.7625 4.34414 14.4481 8.27744 13.0089 13.4196C8.03144 14.8398 4.22979 17.0741 2.05654 19.7269C3.02578 15.472 5.16816 11.5634 8.32178 8.3957ZM1.51367 25.7326H10.2825V31.0054C10.2825 32.1834 11.1374 33.1645 12.2597 33.3625C12.3589 33.8852 12.4685 34.4059 12.5885 34.9242C9.39902 33.9259 6.71191 32.5576 4.76719 30.9317C2.86182 29.3388 1.74941 27.5554 1.51367 25.7327V25.7326ZM14.6641 37.0112C17.665 37.7204 20.9465 38.1164 24.2672 38.1671V48.4896C22.3248 48.2531 20.4277 47.0775 18.7462 45.0583C17.0677 43.0431 15.6684 40.2777 14.6641 37.0112ZM41.6782 41.6045C38.546 44.7505 34.6779 46.9016 30.4614 47.8987C31.7383 46.8677 32.9263 45.4719 33.9779 43.7441C34.0749 43.5783 34.1029 43.3811 34.0558 43.1948C34.0088 43.0086 33.8905 42.8483 33.7265 42.7484C33.5624 42.6484 33.3657 42.6169 33.1787 42.6606C32.9916 42.7043 32.8292 42.8197 32.7264 42.9819C30.74 46.2443 28.2795 48.1742 25.7328 48.4878V38.1671C29.0535 38.1163 32.3349 37.7204 35.3363 37.0108C35.0678 37.8829 34.7706 38.7244 34.4467 39.5232C34.4105 39.6124 34.3923 39.7078 34.393 39.8041C34.3937 39.9003 34.4134 39.9954 34.4508 40.0841C34.4883 40.1727 34.5429 40.2531 34.6114 40.3206C34.68 40.3881 34.7612 40.4415 34.8503 40.4777C34.9395 40.5138 35.0349 40.5321 35.1312 40.5314C35.2274 40.5307 35.3225 40.511 35.4112 40.4735C35.4998 40.436 35.5802 40.3815 35.6477 40.3129C35.7152 40.2444 35.7686 40.1632 35.8048 40.074C36.2503 38.9754 36.6481 37.8016 36.9903 36.5806C41.9678 35.1604 45.7702 32.9261 47.9435 30.2733C46.9737 34.5282 44.8318 38.4368 41.6782 41.6045Z" fill="#231F20"/>
<path d="M14.3532 29.7611C14.5065 29.8763 14.705 29.9346 14.9423 29.9346H17.3593C18.3407 29.9346 19.1373 29.6779 19.7263 29.1717C20.3176 28.6636 20.6174 27.8518 20.6174 26.7585V23.0304C20.6174 21.9375 20.3176 21.1253 19.7263 20.6173C19.1373 20.111 18.3407 19.8543 17.3593 19.8543H14.9423C14.705 19.8543 14.5066 19.913 14.3532 20.0279C14.1953 20.1465 14.1152 20.2884 14.1152 20.4494V29.3396C14.1152 29.5009 14.1953 29.6424 14.3532 29.7611ZM18.7443 26.7585C18.7443 27.7824 18.2916 28.2802 17.3596 28.2802H15.9883V21.5091H17.3597C18.2916 21.5091 18.7444 22.0066 18.7444 23.0304L18.7443 26.7585ZM22.319 29.7779C22.4984 29.882 22.7182 29.9346 22.9718 29.9346C23.2159 29.9346 23.4334 29.882 23.6173 29.7783C23.8103 29.6691 23.9083 29.5169 23.9083 29.3258V24.031L26.7521 29.3491C26.9604 29.7377 27.3198 29.9346 27.8195 29.9346C28.0637 29.9346 28.2812 29.882 28.4646 29.7783C28.6579 29.6692 28.7556 29.5173 28.7556 29.3258V20.4499C28.7556 20.2492 28.6599 20.0969 28.4704 19.997C28.2907 19.9023 28.0717 19.8547 27.8195 19.8547C27.567 19.8547 27.348 19.9024 27.1684 19.997C26.9792 20.0966 26.883 20.2492 26.883 20.4498V25.7388L24.3394 20.8228C24.1238 20.4208 23.9312 20.1648 23.7504 20.0409C23.5695 19.9172 23.3075 19.8547 22.9714 19.8547C22.7185 19.8547 22.4992 19.905 22.3199 20.0041C22.1307 20.1083 22.035 20.2632 22.035 20.4635V29.3261C22.0354 29.5168 22.1307 29.6687 22.3191 29.7778L22.319 29.7779ZM34.0188 28.1113C33.7373 28.305 33.3791 28.4031 32.9541 28.4031C32.6436 28.4031 32.356 28.3469 32.0992 28.2368C31.8417 28.1261 31.6422 28.0029 31.5064 27.8706C31.3671 27.7351 31.2197 27.6082 31.065 27.4906C30.9068 27.3711 30.7614 27.3105 30.6324 27.3105C30.417 27.3105 30.2224 27.425 30.0542 27.6511C29.889 27.8724 29.8055 28.0959 29.8055 28.3153C29.8055 28.7509 30.1263 29.1557 30.7588 29.5184C31.382 29.8758 32.1393 30.0575 33.0087 30.0575C33.9901 30.0575 34.7936 29.7977 35.3959 29.285C36.0009 28.7704 36.3076 28.0307 36.3076 27.0862C36.3076 26.5258 36.1955 26.0288 35.9742 25.6091C35.7533 25.1899 35.4745 24.8645 35.1461 24.6425C34.8229 24.4243 34.4674 24.2187 34.089 24.0314C33.7102 23.8445 33.3546 23.6876 33.0331 23.5653C32.7165 23.4452 32.4482 23.2872 32.2358 23.0968C32.026 22.9091 31.9241 22.6951 31.9241 22.4433C31.9241 22.1298 32.0492 21.8906 32.306 21.7121C32.565 21.532 32.9393 21.4409 33.4187 21.4409C33.8548 21.4409 34.2568 21.5267 34.6131 21.6958C35.1113 21.9321 35.2456 21.9596 35.3032 21.9596C35.539 21.9596 35.7277 21.8421 35.864 21.611C35.9956 21.3874 36.0619 21.1673 36.0619 20.9572C36.0619 20.7283 35.962 20.5268 35.7647 20.359C35.5733 20.1958 35.323 20.0744 35.0213 19.9981C34.7249 19.9234 34.4402 19.8688 34.1756 19.8356C33.9101 19.8028 33.6557 19.7864 33.4187 19.7864C32.9979 19.7864 32.5944 19.8356 32.2183 19.9333C31.8421 20.0309 31.4839 20.187 31.1528 20.3967C30.8194 20.6084 30.5493 20.9083 30.3506 21.2886C30.1522 21.6678 30.0515 22.1115 30.0515 22.607C30.0515 23.0495 30.1331 23.4493 30.2949 23.7953C30.4562 24.1419 30.6726 24.4236 30.9369 24.6326C31.1975 24.8382 31.4893 25.0259 31.8051 25.1903C32.1121 25.3511 32.4253 25.4997 32.7439 25.6359C33.051 25.767 33.3371 25.9044 33.5931 26.0436C33.8448 26.181 34.0513 26.3553 34.2054 26.5625C34.3575 26.7669 34.4346 27.0031 34.4346 27.264C34.4346 27.6416 34.2988 27.9191 34.0188 28.1113Z" fill="#BD3A4A"/>
</g>
<defs>
<clipPath id="clip0_452_2">
<rect width="50" height="50" fill="white"/>
</clipPath>
</defs>
</svg>
