<svg width="17" height="18" viewBox="0 0 17 18" fill="none" xmlns="http://www.w3.org/2000/svg">
<path d="M8.5 16.1055C6.60078 16.1055 4.81777 15.365 3.47637 14.0236C2.13496 12.6822 1.39453 10.8992 1.39453 9C1.39453 7.10078 2.13496 5.31777 3.47637 3.97637C4.81777 2.63496 6.60078 1.89453 8.5 1.89453C10.3992 1.89453 12.1822 2.63496 13.5236 3.97637C14.865 5.31777 15.6055 7.10078 15.6055 9C15.6055 10.8992 14.865 12.6822 13.5236 14.0236C12.1822 15.365 10.3992 16.1055 8.5 16.1055ZM8.5 2.69141C5.02031 2.69141 2.19141 5.52031 2.19141 9C2.19141 12.4797 5.02031 15.3086 8.5 15.3086C11.9797 15.3086 14.8086 12.4797 14.8086 9C14.8086 5.52031 11.9797 2.69141 8.5 2.69141Z" fill="white"/>
<path d="M8.52653 11.6563C8.35056 11.6563 8.18786 11.56 8.08825 11.4006L8.07829 11.3807L6.04958 7.6752C5.94333 7.48262 6.01306 7.24024 6.20895 7.13399C6.40153 7.02774 6.64392 7.09747 6.75017 7.29337L8.52985 10.5406L10.2597 7.31993C10.3627 7.12735 10.605 7.0543 10.7976 7.15723C10.9902 7.26016 11.0633 7.50255 10.9603 7.69512L8.97146 11.3906L8.96481 11.4006C8.8652 11.56 8.70251 11.6563 8.52653 11.6563Z" fill="white"/>
</svg>
