<svg width="50" height="50" viewBox="0 0 50 50" fill="none" xmlns="http://www.w3.org/2000/svg">
<path d="M46.9519 2.58875H37.5299C37.3356 2.58875 37.1493 2.66591 37.012 2.80327C36.8746 2.94062 36.7975 3.12692 36.7975 3.32117C36.7975 3.51542 36.8746 3.70171 37.012 3.83907C37.1493 3.97642 37.3356 4.05359 37.5299 4.05359H46.9519C47.8249 4.05359 48.5352 4.76384 48.5352 5.63689V33.4664H1.46484V5.63689C1.46484 4.76384 2.1751 4.05359 3.04814 4.05359H34.1118C34.3061 4.05359 34.4924 3.97642 34.6297 3.83907C34.7671 3.70171 34.8442 3.51542 34.8442 3.32117C34.8442 3.12692 34.7671 2.94062 34.6297 2.80327C34.4924 2.66591 34.3061 2.58875 34.1118 2.58875H3.04814C1.36738 2.58875 0 3.95613 0 5.63689V35.7893C0 37.4701 1.36738 38.8375 3.04814 38.8375H10.06C10.2542 38.8375 10.4405 38.7603 10.5779 38.623C10.7152 38.4856 10.7924 38.2993 10.7924 38.1051C10.7924 37.9108 10.7152 37.7245 10.5779 37.5872C10.4405 37.4498 10.2542 37.3726 10.06 37.3726H3.04814C2.1751 37.3726 1.46484 36.6624 1.46484 35.7893V34.9312H48.5352V35.7893C48.5352 36.6624 47.8249 37.3726 46.9519 37.3726H13.4457C13.2515 37.3726 13.0652 37.4498 12.9278 37.5872C12.7904 37.7245 12.7133 37.9108 12.7133 38.1051C12.7133 38.2993 12.7904 38.4856 12.9278 38.623C13.0652 38.7603 13.2515 38.8375 13.4457 38.8375H18.0555L17.3323 43.0167H15.9958C14.7842 43.0167 13.7985 44.0023 13.7985 45.2139C13.7985 46.4256 14.7842 47.4112 15.9958 47.4112H34.0042C35.2158 47.4112 36.2015 46.4256 36.2015 45.2139C36.2015 44.0023 35.2158 43.0167 34.0042 43.0167H32.6677L31.9445 38.8375H46.9518C48.6325 38.8375 49.9999 37.4701 49.9999 35.7893V5.63689C50 3.95613 48.6326 2.58875 46.9519 2.58875ZM31.1811 43.0167H29.1871C28.9929 43.0167 28.8066 43.0938 28.6692 43.2312C28.5319 43.3686 28.4547 43.5548 28.4547 43.7491C28.4547 43.9433 28.5319 44.1296 28.6692 44.267C28.8066 44.4044 28.9929 44.4815 29.1871 44.4815H34.0042C34.4081 44.4815 34.7366 44.81 34.7366 45.2139C34.7366 45.6178 34.4081 45.9464 34.0042 45.9464H15.9958C15.5919 45.9464 15.2634 45.6178 15.2634 45.2139C15.2634 44.81 15.5919 44.4815 15.9958 44.4815H25.768C25.9622 44.4815 26.1485 44.4044 26.2859 44.267C26.4232 44.1296 26.5004 43.9433 26.5004 43.7491C26.5004 43.5548 26.4232 43.3686 26.2859 43.2312C26.1485 43.0938 25.9622 43.0167 25.768 43.0167H18.8189L19.5421 38.8375H30.458L31.1811 43.0167Z" fill="#231F20"/>
<path d="M39.621 21.1208C39.4858 21.1208 39.3533 21.1582 39.2381 21.2288C39.1229 21.2995 39.0295 21.4006 38.9682 21.5211L35.5117 28.3146L32.5949 22.5816C32.5336 22.4612 32.4402 22.3601 32.325 22.2894C32.2098 22.2188 32.0772 22.1814 31.9421 22.1814C31.8069 22.1814 31.6744 22.2188 31.5592 22.2894C31.444 22.3601 31.3506 22.4612 31.2893 22.5816L29.7081 25.6894H27.1836C26.9893 25.6894 26.803 25.7665 26.6657 25.9039C26.5283 26.0412 26.4512 26.2275 26.4512 26.4218C26.4512 26.616 26.5283 26.8023 26.6657 26.9397C26.803 27.077 26.9893 27.1542 27.1836 27.1542H30.1572C30.2924 27.1542 30.4249 27.1168 30.5401 27.0462C30.6553 26.9755 30.7488 26.8744 30.8101 26.7539L31.9421 24.529L34.8589 30.2619C34.9202 30.3824 35.0136 30.4835 35.1288 30.5541C35.244 30.6248 35.3766 30.6622 35.5117 30.6622C35.6469 30.6622 35.7794 30.6248 35.8946 30.5541C36.0098 30.4835 36.1032 30.3824 36.1645 30.2619L39.621 23.4685L41.2926 26.754C41.3539 26.8745 41.4473 26.9756 41.5625 27.0463C41.6777 27.1169 41.8103 27.1543 41.9454 27.1543H44.919C45.1133 27.1543 45.2996 27.0771 45.4369 26.9398C45.5743 26.8024 45.6515 26.6161 45.6515 26.4219C45.6515 26.2276 45.5743 26.0413 45.4369 25.904C45.2996 25.7666 45.1133 25.6895 44.919 25.6895H42.3945L40.2738 21.5212C40.2125 21.4007 40.1191 21.2995 40.0039 21.2289C39.8887 21.1582 39.7562 21.1208 39.621 21.1208ZM27.1839 18.9511H30.9846C31.1788 18.9511 31.3651 18.8739 31.5025 18.7366C31.6398 18.5992 31.717 18.4129 31.717 18.2187V10.5083C31.717 10.3141 31.6398 10.1278 31.5025 9.9904C31.3651 9.85304 31.1788 9.77588 30.9846 9.77588H27.1839C26.9896 9.77588 26.8033 9.85304 26.666 9.9904C26.5286 10.1278 26.4515 10.3141 26.4515 10.5083V18.2187C26.4515 18.4129 26.5286 18.5992 26.666 18.7366C26.8033 18.8739 26.9896 18.9511 27.1839 18.9511ZM27.9163 11.2407H30.2521V17.4862H27.9163V11.2407ZM37.9776 11.8711H34.1769C33.9827 11.8711 33.7964 11.9483 33.659 12.0856C33.5217 12.223 33.4445 12.4093 33.4445 12.6035V18.2187C33.4445 18.4129 33.5217 18.5992 33.659 18.7366C33.7964 18.8739 33.9827 18.9511 34.1769 18.9511H37.9776C38.1719 18.9511 38.3582 18.8739 38.4955 18.7366C38.6329 18.5992 38.7101 18.4129 38.7101 18.2187V12.6035C38.7101 12.4093 38.6329 12.223 38.4955 12.0856C38.3582 11.9483 38.1719 11.8711 37.9776 11.8711ZM37.2452 17.4862H34.9094V13.3359H37.2452V17.4862ZM44.919 18.9511C45.1133 18.9511 45.2996 18.8739 45.4369 18.7366C45.5743 18.5992 45.6515 18.4129 45.6515 18.2187V8.5752C45.6515 8.38094 45.5743 8.19465 45.4369 8.0573C45.2996 7.91994 45.1133 7.84277 44.919 7.84277H41.1184C40.9241 7.84277 40.7378 7.91994 40.6005 8.0573C40.4631 8.19465 40.3859 8.38094 40.3859 8.5752V18.2187C40.3859 18.4129 40.4631 18.5992 40.6005 18.7366C40.7378 18.8739 40.9241 18.9511 41.1184 18.9511H44.919ZM41.8508 9.30762H44.1866V17.4862H41.8508V9.30762ZM21.6697 16.1281H5.06816C4.87391 16.1281 4.68762 16.2053 4.55026 16.3426C4.4129 16.48 4.33574 16.6663 4.33574 16.8605C4.33574 17.0548 4.4129 17.2411 4.55026 17.3784C4.68762 17.5158 4.87391 17.593 5.06816 17.593H21.6697C21.864 17.593 22.0503 17.5158 22.1876 17.3784C22.325 17.2411 22.4021 17.0548 22.4021 16.8605C22.4021 16.6663 22.325 16.48 22.1876 16.3426C22.0503 16.2053 21.864 16.1281 21.6697 16.1281ZM5.06816 21.4837H8.03906C8.23331 21.4837 8.4196 21.4065 8.55696 21.2692C8.69432 21.1318 8.77148 20.9455 8.77148 20.7513C8.77148 20.557 8.69432 20.3707 8.55696 20.2334C8.4196 20.096 8.23331 20.0188 8.03906 20.0188H5.06816C4.87391 20.0188 4.68762 20.096 4.55026 20.2334C4.4129 20.3707 4.33574 20.557 4.33574 20.7513C4.33574 20.9455 4.4129 21.1318 4.55026 21.2692C4.68762 21.4065 4.87391 21.4837 5.06816 21.4837ZM21.6697 20.0188H11.395C11.2008 20.0188 11.0145 20.096 10.8771 20.2334C10.7398 20.3707 10.6626 20.557 10.6626 20.7513C10.6626 20.9455 10.7398 21.1318 10.8771 21.2692C11.0145 21.4065 11.2008 21.4837 11.395 21.4837H21.6697C21.864 21.4837 22.0503 21.4065 22.1876 21.2692C22.325 21.1318 22.4021 20.9455 22.4021 20.7513C22.4021 20.557 22.325 20.3707 22.1876 20.2334C22.0503 20.096 21.864 20.0188 21.6697 20.0188ZM21.6697 7.84277H5.06816C4.87391 7.84277 4.68762 7.91994 4.55026 8.0573C4.4129 8.19465 4.33574 8.38094 4.33574 8.5752C4.33574 8.76945 4.4129 8.95574 4.55026 9.0931C4.68762 9.23045 4.87391 9.30762 5.06816 9.30762H21.6697C21.864 9.30762 22.0503 9.23045 22.1876 9.0931C22.325 8.95574 22.4021 8.76945 22.4021 8.5752C22.4021 8.38094 22.325 8.19465 22.1876 8.0573C22.0503 7.91994 21.864 7.84277 21.6697 7.84277ZM5.06816 13.1984H15.3633C15.5575 13.1984 15.7438 13.1213 15.8812 12.9839C16.0185 12.8466 16.0957 12.6603 16.0957 12.466C16.0957 12.2718 16.0185 12.0855 15.8812 11.9481C15.7438 11.8108 15.5575 11.7336 15.3633 11.7336H5.06816C4.87391 11.7336 4.68762 11.8108 4.55026 11.9481C4.4129 12.0855 4.33574 12.2718 4.33574 12.466C4.33574 12.6603 4.4129 12.8466 4.55026 12.9839C4.68762 13.1213 4.87391 13.1984 5.06816 13.1984ZM21.6697 11.7336H18.7192C18.525 11.7336 18.3387 11.8108 18.2013 11.9481C18.064 12.0855 17.9868 12.2718 17.9868 12.466C17.9868 12.6603 18.064 12.8466 18.2013 12.9839C18.3387 13.1213 18.525 13.1984 18.7192 13.1984H21.6697C21.864 13.1984 22.0503 13.1213 22.1876 12.9839C22.325 12.8466 22.4021 12.6603 22.4021 12.466C22.4021 12.2718 22.325 12.0855 22.1876 11.9481C22.0503 11.8108 21.864 11.7336 21.6697 11.7336ZM22.4021 24.5948C22.4021 24.4006 22.325 24.2143 22.1876 24.0769C22.0503 23.9396 21.864 23.8624 21.6697 23.8624H5.06816C4.87391 23.8624 4.68762 23.9396 4.55026 24.0769C4.4129 24.2143 4.33574 24.4006 4.33574 24.5948C4.33574 24.7891 4.4129 24.9754 4.55026 25.1127C4.68762 25.2501 4.87391 25.3272 5.06816 25.3272H21.6697C21.864 25.3272 22.0503 25.2501 22.1876 25.1127C22.325 24.9754 22.4021 24.7891 22.4021 24.5948ZM5.06816 27.7325C4.87391 27.7325 4.68762 27.8097 4.55026 27.947C4.4129 28.0844 4.33574 28.2707 4.33574 28.4649C4.33574 28.6592 4.4129 28.8455 4.55026 28.9828C4.68762 29.1202 4.87391 29.1974 5.06816 29.1974H12.8807C13.0749 29.1974 13.2612 29.1202 13.3986 28.9828C13.5359 28.8455 13.6131 28.6592 13.6131 28.4649C13.6131 28.2707 13.5359 28.0844 13.3986 27.947C13.2612 27.8097 13.0749 27.7325 12.8807 27.7325H5.06816Z" fill="#BD3A4A"/>
</svg>
