<svg width="50" height="50" viewBox="0 0 50 50" fill="none" xmlns="http://www.w3.org/2000/svg">
<path d="M3.90625 23.8281C4.11345 23.8281 4.31216 23.7458 4.45868 23.5993C4.60519 23.4528 4.6875 23.2541 4.6875 23.0469V6.25C4.6875 5.38828 5.38828 4.6875 6.25 4.6875H10.1562C11.1797 4.67422 11.1852 3.14062 10.1562 3.125H6.25C4.52656 3.125 3.125 4.52656 3.125 6.25V23.0469C3.125 23.2541 3.20731 23.4528 3.35382 23.5993C3.50034 23.7458 3.69905 23.8281 3.90625 23.8281ZM30.4688 20.2633C30.4688 20.0561 30.3864 19.8574 30.2399 19.7109C30.0934 19.5643 29.8947 19.482 29.6875 19.482H10.1562C9.94905 19.482 9.75034 19.5643 9.60382 19.7109C9.45731 19.8574 9.375 20.0561 9.375 20.2633C9.375 20.4705 9.45731 20.6692 9.60382 20.8157C9.75034 20.9622 9.94905 21.0445 10.1562 21.0445H29.6875C29.8947 21.0445 30.0934 20.9622 30.2399 20.8157C30.3864 20.6692 30.4688 20.4705 30.4688 20.2633ZM10.1562 27.2969H22.6094C23.6328 27.2812 23.6398 25.7516 22.6094 25.7344H10.1562C9.13281 25.75 9.12656 27.2797 10.1562 27.2969ZM10.1562 33.5469H21.8906C22.9141 33.5312 22.9203 32.0016 21.8906 31.9844H10.1562C9.13281 32 9.12656 33.5297 10.1562 33.5469ZM10.1562 39.7969H23.2344C23.4416 39.7969 23.6403 39.7146 23.7868 39.5681C23.9333 39.4215 24.0156 39.2228 24.0156 39.0156C24.0156 38.8084 23.9333 38.6097 23.7868 38.4632C23.6403 38.3167 23.4416 38.2344 23.2344 38.2344H10.1562C9.13281 38.25 9.12578 39.7797 10.1562 39.7969Z" fill="#BD3A4A"/>
<path d="M46.0938 28.0094C45.503 28.0088 44.9366 27.7738 44.5189 27.3561C44.1012 26.9384 43.8662 26.372 43.8656 25.7812C43.8656 25.574 43.7833 25.3753 43.6368 25.2288C43.4903 25.0823 43.2916 25 43.0844 25H36.7188V6.25C36.7188 4.52656 35.3172 3.125 33.5938 3.125H14.0625C13.0391 3.15156 13.0297 4.6625 14.0625 4.6875H25.7812V10.9375C25.7812 12.6609 27.1828 14.0625 28.9062 14.0625H35.1562V25H28.7906C28.5834 25 28.3847 25.0823 28.2382 25.2288C28.0917 25.3753 28.0094 25.574 28.0094 25.7812C28.0088 26.372 27.7738 26.9384 27.3561 27.3561C26.9384 27.7738 26.372 28.0088 25.7812 28.0094C25.574 28.0094 25.3753 28.0917 25.2288 28.2382C25.0823 28.3847 25 28.5834 25 28.7906V32.0023C24.9979 34.6714 25.6802 37.2965 26.9818 39.6267C28.2833 41.957 30.1606 43.9146 32.4344 45.3125H6.25C5.38828 45.3125 4.6875 44.6117 4.6875 43.75V26.9531C4.6875 26.7459 4.60519 26.5472 4.45868 26.4007C4.31216 26.2542 4.11345 26.1719 3.90625 26.1719C3.69905 26.1719 3.50034 26.2542 3.35382 26.4007C3.20731 26.5472 3.125 26.7459 3.125 26.9531V43.75C3.125 45.4734 4.52656 46.875 6.25 46.875H33.5938C34.3891 46.8953 34.9367 46.3602 35.6906 46.8352C42.3391 45.35 46.8727 38.718 46.875 32.0031V28.7906C46.875 28.5834 46.7927 28.3847 46.6462 28.2382C46.4997 28.0917 46.301 28.0094 46.0938 28.0094ZM28.9062 12.5C28.0445 12.5 27.3438 11.7992 27.3438 10.9375V5.79219L34.0516 12.5H28.9062ZM28.4484 4.6875H33.5938C34.4555 4.6875 35.1562 5.38828 35.1562 6.25V11.3953L28.4484 4.6875ZM45.3125 32.0023C45.3152 34.9119 44.4148 37.7506 42.7355 40.1267C41.0563 42.5028 38.6811 44.2992 35.9375 45.268C33.1939 44.2992 30.8187 42.5028 29.1395 40.1267C27.4602 37.7506 26.5598 34.9119 26.5625 32.0023V29.4922C27.2815 29.3391 27.9407 28.9809 28.4604 28.4609C28.9801 27.941 29.3379 27.2816 29.4906 26.5625H42.3844C42.5372 27.2814 42.8951 27.9407 43.4148 28.4605C43.9344 28.9803 44.5936 29.3384 45.3125 29.4914V32.0023Z" fill="#231F20"/>
<path d="M39.0785 31.6923L35.9379 34.8329L34.6441 33.5384C33.9199 32.8196 32.8191 33.9173 33.5394 34.643L35.3855 36.4899C35.5326 36.6352 35.7311 36.7167 35.9379 36.7167C36.1447 36.7167 36.3431 36.6352 36.4902 36.4899L40.184 32.797C40.9012 32.0727 39.8051 30.972 39.0785 31.6923Z" fill="black"/>
</svg>
