<svg width="50" height="50" viewBox="0 0 50 50" fill="none" xmlns="http://www.w3.org/2000/svg">
<g clip-path="url(#clip0_475_2)">
<path d="M42.6776 7.32236C37.9558 2.60049 31.6777 0 25 0C18.3223 0 12.0442 2.60049 7.32236 7.32236C2.60049 12.0442 0 18.3223 0 25C0 31.6777 2.60049 37.9558 7.32236 42.6776C12.0442 47.3995 18.3223 50 25 50C31.6777 50 37.9558 47.3995 42.6776 42.6776C47.3995 37.9558 50 31.6777 50 25C50 18.3223 47.3995 12.0442 42.6776 7.32236ZM41.2912 41.2912C36.9396 45.6428 31.154 48.0393 25 48.0393C18.846 48.0393 13.0604 45.6428 8.70879 41.2912C4.35723 36.9396 1.96074 31.154 1.96074 25C1.96074 18.846 4.35723 13.0604 8.70879 8.70879C13.0604 4.35723 18.846 1.96074 25 1.96074C31.154 1.96074 36.9396 4.35723 41.2912 8.70879C45.6428 13.0604 48.0393 18.846 48.0393 25C48.0393 31.154 45.6427 36.9396 41.2912 41.2912Z" fill="#231F20"/>
<path d="M24.9995 7.01807C15.0843 7.01807 7.01758 15.0848 7.01758 25C7.01758 25.5415 7.45654 25.9804 7.99795 25.9804C8.53936 25.9804 8.97842 25.5415 8.97842 25C8.97842 16.1659 16.1655 8.97891 24.9995 8.97891C25.541 8.97891 25.9799 8.53994 25.9799 7.99844C25.9799 7.45693 25.5409 7.01807 24.9995 7.01807ZM42.0011 24.0196C41.4596 24.0196 41.0207 24.4586 41.0207 25C41.0207 33.8341 33.8336 41.0211 24.9996 41.0211C24.4581 41.0211 24.0192 41.4601 24.0192 42.0015C24.0192 42.543 24.4582 42.9818 24.9996 42.9818C34.9148 42.9818 42.9815 34.9152 42.9815 24.9999C42.9814 24.4585 42.5425 24.0196 42.0011 24.0196ZM26.4114 24.0195H23.5876C22.2215 24.0195 21.1101 22.9081 21.1101 21.542V19.8995C21.1101 18.5334 22.2215 17.422 23.5876 17.422H26.7163C27.9144 17.422 28.889 18.3966 28.889 19.5946C28.889 20.1361 29.3279 20.575 29.8693 20.575C30.4107 20.575 30.8497 20.136 30.8497 19.5946C30.8497 17.3154 28.9954 15.4612 26.7163 15.4612H25.9799V13.027C25.9799 12.4854 25.5409 12.0466 24.9995 12.0466C24.458 12.0466 24.0191 12.4855 24.0191 13.027V15.4612H23.5876C21.1403 15.4612 19.1493 17.4522 19.1493 19.8995V21.542C19.1493 23.9893 21.1403 25.9803 23.5876 25.9803H26.4114C27.7775 25.9803 28.889 27.0917 28.889 28.4578V30.1003C28.889 31.4664 27.7775 32.5778 26.4114 32.5778H23.2827C22.0847 32.5778 21.1101 31.6032 21.1101 30.4052C21.1101 29.8637 20.6711 29.4248 20.1297 29.4248C19.5883 29.4248 19.1493 29.8638 19.1493 30.4052C19.1493 32.6844 21.0036 34.5386 23.2827 34.5386H24.0191V36.9729C24.0191 37.5144 24.4581 37.9532 24.9995 37.9532C25.541 37.9532 25.9799 37.5143 25.9799 36.9729V34.5386H26.4114C28.8587 34.5386 30.8497 32.5476 30.8497 30.1003V28.4578C30.8497 26.0105 28.8587 24.0195 26.4114 24.0195Z" fill="#231F20"/>
<path d="M28.4602 9.57998C29.0061 9.57998 29.4486 9.13742 29.4486 8.5915C29.4486 8.04558 29.0061 7.60303 28.4602 7.60303C27.9142 7.60303 27.4717 8.04558 27.4717 8.5915C27.4717 9.13742 27.9142 9.57998 28.4602 9.57998Z" fill="#231F20"/>
<path d="M21.5402 42.4962C22.0862 42.4962 22.5287 42.0537 22.5287 41.5078C22.5287 40.9618 22.0862 40.5193 21.5402 40.5193C20.9943 40.5193 20.5518 40.9618 20.5518 41.5078C20.5518 42.0537 20.9943 42.4962 21.5402 42.4962Z" fill="#231F20"/>
</g>
<defs>
<clipPath id="clip0_475_2">
<rect width="50" height="50" fill="white"/>
</clipPath>
</defs>
</svg>
