<svg width="31" height="31" viewBox="0 0 31 31" fill="none" xmlns="http://www.w3.org/2000/svg">
<g clip-path="url(#clip0_335_522)">
<path d="M7.14863 18.6729L6.10438 22.5713L2.28764 22.652C1.14699 20.5364 0.5 18.1158 0.5 15.5436C0.5 13.0562 1.10492 10.7106 2.17719 8.6452H2.17801L5.57598 9.26817L7.06449 12.6457C6.75295 13.554 6.58314 14.529 6.58314 15.5436C6.58326 16.6447 6.78271 17.6996 7.14863 18.6729Z" fill="#FBBB00"/>
<path d="M30.238 12.7414C30.4102 13.6488 30.5001 14.5859 30.5001 15.5436C30.5001 16.6175 30.3872 17.665 30.1721 18.6755C29.4419 22.1139 27.5339 25.1164 24.8908 27.2411L24.89 27.2403L20.61 27.0219L20.0043 23.2406C21.7581 22.212 23.1287 20.6024 23.8507 18.6755H15.8298V12.7414H30.238Z" fill="#518EF8"/>
<path d="M24.8898 27.2403L24.8906 27.2411C22.32 29.3073 19.0546 30.5436 15.5 30.5436C9.7876 30.5436 4.82113 27.3508 2.2876 22.6521L7.14859 18.673C8.41533 22.0538 11.6766 24.4604 15.5 24.4604C17.1433 24.4604 18.6829 24.0161 20.0041 23.2406L24.8898 27.2403Z" fill="#28B446"/>
<path d="M25.0745 3.99686L20.2152 7.97514C18.8479 7.12049 17.2316 6.62678 15.5001 6.62678C11.5902 6.62678 8.26789 9.14379 7.06461 12.6458L2.17807 8.64522H2.17725C4.67369 3.83204 9.70279 0.543579 15.5001 0.543579C19.1396 0.543579 22.4767 1.84002 25.0745 3.99686Z" fill="#F14336"/>
</g>
<defs>
<clipPath id="clip0_335_522">
<rect width="30" height="30" fill="white" transform="translate(0.5 0.543579)"/>
</clipPath>
</defs>
</svg>
