<svg width="25" height="26" viewBox="0 0 25 26" fill="none" xmlns="http://www.w3.org/2000/svg">
<g clip-path="url(#clip0_335_487)">
<path d="M16.3604 25.5436C16.2734 25.5436 16.1864 25.5391 16.0998 25.5303C12.9947 25.2133 9.79202 23.7347 7.08181 21.3667C4.3616 18.9899 2.46682 16.0019 1.74651 12.953C1.65266 12.5566 1.65454 12.1435 1.752 11.7479C1.84946 11.3523 2.03969 10.9856 2.30696 10.6781L4.76336 7.86687C4.82227 7.79945 4.89388 7.7443 4.97411 7.70457C5.05434 7.66483 5.14161 7.6413 5.23094 7.6353C5.32027 7.62931 5.4099 7.64097 5.49472 7.66963C5.57954 7.69829 5.65788 7.74337 5.72527 7.80231L10.1651 11.6816C10.301 11.8007 10.3842 11.9688 10.3963 12.1492C10.4084 12.3295 10.3484 12.5073 10.2296 12.6435L8.06292 15.1232C8.04939 15.1388 8.04171 15.1586 8.04119 15.1793C8.04068 15.1999 8.04736 15.2201 8.06009 15.2363C9.42939 16.9802 11.1136 18.4517 13.0254 19.5747C13.0432 19.5852 13.064 19.5891 13.0844 19.5859C13.1048 19.5826 13.1234 19.5723 13.137 19.5568L15.304 17.0768C15.4231 16.9409 15.5912 16.8578 15.7715 16.8456C15.9517 16.8335 16.1295 16.8933 16.2657 17.012L20.6944 20.8815C20.7618 20.9404 20.817 21.012 20.8567 21.0922C20.8964 21.1725 20.9199 21.2597 20.9259 21.3491C20.9319 21.4384 20.9202 21.528 20.8916 21.6128C20.8629 21.6976 20.8179 21.776 20.7589 21.8434L18.2886 24.6705C18.048 24.945 17.7514 25.1649 17.4189 25.3154C17.0863 25.466 16.7255 25.5438 16.3604 25.5436ZM5.32766 9.07268L3.22439 11.4799C3.08448 11.6413 2.98501 11.8337 2.9342 12.0412C2.8834 12.2486 2.88271 12.4652 2.9322 12.673C3.59456 15.4767 5.35296 18.2384 7.88338 20.4493C10.4053 22.6528 13.3671 24.0269 16.2232 24.3184C16.4365 24.3405 16.6519 24.3113 16.8515 24.2332C17.0512 24.155 17.2292 24.0302 17.3707 23.8692L19.4881 21.4458L15.8679 18.2826L14.0541 20.3585C13.854 20.5871 13.5805 20.7389 13.2806 20.788C12.9807 20.837 12.6731 20.7801 12.4105 20.627C10.3655 19.4262 8.56406 17.8522 7.09973 15.9867C6.91277 15.7471 6.81505 15.4499 6.82334 15.1461C6.83164 14.8422 6.94543 14.5508 7.14519 14.3217L8.95891 12.2458L5.32766 9.07268Z" fill="white"/>
<path d="M21.4142 15.8264H10.8942C10.7326 15.8264 10.5777 15.7623 10.4634 15.648C10.3492 15.5338 10.285 15.3788 10.285 15.2173C10.285 15.0557 10.3492 14.9007 10.4634 14.7865C10.5777 14.6723 10.7326 14.6081 10.8942 14.6081H21.4142C21.5971 14.6079 21.7724 14.5352 21.9017 14.4059C22.031 14.2766 22.1037 14.1012 22.104 13.9184V2.45159C22.1037 2.26872 22.031 2.09341 21.9017 1.96411C21.7724 1.83481 21.5971 1.76208 21.4142 1.76189H4.06914C3.88629 1.7621 3.71098 1.83483 3.58168 1.96413C3.45238 2.09342 3.37965 2.26873 3.37944 2.45159V7.76526C3.37801 7.92587 3.31319 8.07942 3.19911 8.19248C3.08503 8.30555 2.93091 8.36898 2.77029 8.36898C2.60967 8.36898 2.45555 8.30555 2.34147 8.19248C2.22738 8.07942 2.16257 7.92587 2.16113 7.76526V2.45159C2.1617 1.94573 2.36291 1.46075 2.7206 1.10305C3.0783 0.745352 3.56328 0.544148 4.06914 0.543579L21.4142 0.543579C21.9201 0.544135 22.4051 0.745332 22.7628 1.10303C23.1205 1.46073 23.3217 1.94571 23.3223 2.45159V13.9184C23.3217 14.4243 23.1205 14.9093 22.7628 15.267C22.4051 15.6247 21.9201 15.8259 21.4142 15.8264Z" fill="white"/>
<path d="M20.7994 13.842C20.7132 13.8422 20.6279 13.8239 20.5493 13.7886C20.4706 13.7532 20.4004 13.7015 20.3433 13.6369L17.1192 9.99925C17.0656 9.93946 17.0243 9.86968 16.9978 9.7939C16.9713 9.71813 16.96 9.63786 16.9646 9.55771C16.9693 9.47756 16.9897 9.39911 17.0247 9.32688C17.0597 9.25464 17.1087 9.19004 17.1688 9.1368C17.2288 9.08355 17.2989 9.0427 17.3748 9.0166C17.4507 8.9905 17.531 8.97966 17.6111 8.98471C17.6913 8.98976 17.7696 9.0106 17.8416 9.04603C17.9137 9.08145 17.978 9.13077 18.0309 9.19114L21.2549 12.8287C21.3327 12.9165 21.3836 13.025 21.4012 13.141C21.4189 13.257 21.4027 13.3756 21.3546 13.4826C21.3065 13.5896 21.2285 13.6805 21.13 13.7442C21.0315 13.808 20.9166 13.8419 20.7993 13.8419L20.7994 13.842ZM12.7417 9.58733C12.2174 9.58712 11.7068 9.42011 11.2837 9.11048L4.32507 4.03734C4.26015 3.99031 4.20515 3.93094 4.16322 3.86262C4.1213 3.79431 4.09326 3.71838 4.08073 3.63921C4.0682 3.56004 4.07142 3.47917 4.0902 3.40124C4.10898 3.32332 4.14296 3.24986 4.19018 3.18509C4.23741 3.12032 4.29695 3.06551 4.3654 3.02379C4.43385 2.98207 4.50986 2.95428 4.58907 2.94199C4.66828 2.92971 4.74914 2.93318 4.82701 2.95221C4.90487 2.97123 4.97822 3.00544 5.04284 3.05286L12.0014 8.1261C12.2162 8.28345 12.4755 8.36828 12.7417 8.36828C13.0079 8.36828 13.2673 8.28345 13.482 8.1261L20.4405 3.05286C20.5052 3.00544 20.5785 2.97123 20.6564 2.95221C20.7343 2.93318 20.8151 2.92971 20.8943 2.94199C20.9735 2.95428 21.0495 2.98207 21.118 3.02379C21.1864 3.06551 21.246 3.12032 21.2932 3.18509C21.3404 3.24986 21.3744 3.32332 21.3932 3.40124C21.412 3.47917 21.4152 3.56004 21.4027 3.63921C21.3901 3.71838 21.3621 3.79431 21.3202 3.86262C21.2782 3.93094 21.2232 3.99031 21.1583 4.03734L14.1998 9.11048C13.7766 9.42006 13.266 9.58705 12.7417 9.58733Z" fill="white"/>
</g>
<defs>
<clipPath id="clip0_335_487">
<rect width="25" height="25" fill="white" transform="translate(0 0.543579)"/>
</clipPath>
</defs>
</svg>
