<svg width="50" height="50" viewBox="0 0 50 50" fill="none" xmlns="http://www.w3.org/2000/svg">
<path d="M42.9688 10.6094H7.03125C5.99563 10.6106 5.00278 11.0226 4.27048 11.7549C3.53819 12.4872 3.12624 13.48 3.125 14.5156V35.4844C3.12624 36.52 3.53819 37.5128 4.27048 38.2451C5.00278 38.9774 5.99563 39.3894 7.03125 39.3906H11.0234C11.2306 39.3906 11.4294 39.3083 11.5759 39.1618C11.7224 39.0153 11.8047 38.8166 11.8047 38.6094C11.8047 38.4022 11.7224 38.2035 11.5759 38.057C11.4294 37.9104 11.2306 37.8281 11.0234 37.8281H7.03125C6.40984 37.8275 5.81406 37.5804 5.37465 37.141C4.93525 36.7016 4.68812 36.1058 4.6875 35.4844V24.2969H45.3125V35.4844C45.3119 36.1058 45.0647 36.7016 44.6253 37.141C44.1859 37.5804 43.5902 37.8275 42.9688 37.8281H14.1484C13.9412 37.8281 13.7425 37.9104 13.596 38.057C13.4495 38.2035 13.3672 38.4022 13.3672 38.6094C13.3672 38.8166 13.4495 39.0153 13.596 39.1618C13.7425 39.3083 13.9412 39.3906 14.1484 39.3906H42.9688C44.0044 39.3894 44.9972 38.9774 45.7295 38.2451C46.4618 37.5128 46.8738 36.52 46.875 35.4844V14.5156C46.8738 13.48 46.4618 12.4872 45.7295 11.7549C44.9972 11.0226 44.0044 10.6106 42.9688 10.6094ZM45.3125 17.5391H38.8594C38.6522 17.5391 38.4535 17.6214 38.3069 17.7679C38.1604 17.9144 38.0781 18.1131 38.0781 18.3203C38.0781 18.5275 38.1604 18.7262 38.3069 18.8727C38.4535 19.0193 38.6522 19.1016 38.8594 19.1016H45.3125V22.7344H4.6875V19.1016H35.7344C35.9416 19.1016 36.1403 19.0193 36.2868 18.8727C36.4333 18.7262 36.5156 18.5275 36.5156 18.3203C36.5156 18.1131 36.4333 17.9144 36.2868 17.7679C36.1403 17.6214 35.9416 17.5391 35.7344 17.5391H4.6875V14.5156C4.68812 13.8942 4.93525 13.2984 5.37465 12.859C5.81406 12.4196 6.40984 12.1725 7.03125 12.1719H42.9688C43.5902 12.1725 44.1859 12.4196 44.6253 12.859C45.0647 13.2984 45.3119 13.8942 45.3125 14.5156V17.5391Z" fill="white"/>
<path d="M41.7133 35.7094C42.024 35.709 42.3218 35.5854 42.5415 35.3657C42.7611 35.146 42.8847 34.8482 42.8852 34.5375V31.4219C42.8847 31.1112 42.7611 30.8134 42.5415 30.5937C42.3218 30.374 42.024 30.2504 41.7133 30.25H26.35C26.0393 30.2504 25.7415 30.374 25.5218 30.5937C25.3021 30.8134 25.1785 31.1112 25.1781 31.4219V34.5375C25.1785 34.8482 25.3021 35.146 25.5218 35.3657C25.7415 35.5854 26.0393 35.709 26.35 35.7094H41.7133ZM26.7406 31.8125H41.3227V34.1469H26.7406V31.8125ZM14.3984 34.9281C14.3984 34.7209 14.3161 34.5222 14.1696 34.3757C14.0231 34.2292 13.8244 34.1469 13.6172 34.1469H8.42188C8.21467 34.1469 8.01596 34.2292 7.86945 34.3757C7.72294 34.5222 7.64062 34.7209 7.64062 34.9281C7.64062 35.1353 7.72294 35.334 7.86945 35.4806C8.01596 35.6271 8.21467 35.7094 8.42188 35.7094H13.6172C13.8244 35.7094 14.0231 35.6271 14.1696 35.4806C14.3161 35.334 14.3984 35.1353 14.3984 34.9281Z" fill="white"/>
</svg>
