<svg width="30" height="31" viewBox="0 0 30 31" fill="none" xmlns="http://www.w3.org/2000/svg">
<path d="M22.5 9.25H20C19.6685 9.25 19.3505 9.3817 19.1161 9.61612C18.8817 9.85054 18.75 10.1685 18.75 10.5C18.75 10.8315 18.8817 11.1495 19.1161 11.3839C19.3505 11.6183 19.6685 11.75 20 11.75H22.5C23.4946 11.75 24.4484 12.1451 25.1517 12.8483C25.8549 13.5516 26.25 14.5054 26.25 15.5C26.25 16.4946 25.8549 17.4484 25.1517 18.1517C24.4484 18.8549 23.4946 19.25 22.5 19.25H20C19.6685 19.25 19.3505 19.3817 19.1161 19.6161C18.8817 19.8505 18.75 20.1685 18.75 20.5C18.75 20.8315 18.8817 21.1495 19.1161 21.3839C19.3505 21.6183 19.6685 21.75 20 21.75H22.5C24.1576 21.75 25.7473 21.0915 26.9194 19.9194C28.0915 18.7473 28.75 17.1576 28.75 15.5C28.75 13.8424 28.0915 12.2527 26.9194 11.0806C25.7473 9.90848 24.1576 9.25 22.5 9.25ZM10 9.25H7.5C5.8424 9.25 4.25269 9.90848 3.08058 11.0806C1.90848 12.2527 1.25 13.8424 1.25 15.5C1.25 17.1576 1.90848 18.7473 3.08058 19.9194C4.25269 21.0915 5.8424 21.75 7.5 21.75H10C10.3315 21.75 10.6495 21.6183 10.8839 21.3839C11.1183 21.1495 11.25 20.8315 11.25 20.5C11.25 20.1685 11.1183 19.8505 10.8839 19.6161C10.6495 19.3817 10.3315 19.25 10 19.25H7.5C6.50544 19.25 5.55161 18.8549 4.84835 18.1517C4.14509 17.4484 3.75 16.4946 3.75 15.5C3.75 14.5054 4.14509 13.5516 4.84835 12.8483C5.55161 12.1451 6.50544 11.75 7.5 11.75H10C10.3315 11.75 10.6495 11.6183 10.8839 11.3839C11.1183 11.1495 11.25 10.8315 11.25 10.5C11.25 10.1685 11.1183 9.85054 10.8839 9.61612C10.6495 9.3817 10.3315 9.25 10 9.25Z" fill="white"/>
<path d="M8.75 15.5C8.75 15.8315 8.8817 16.1495 9.11612 16.3839C9.35054 16.6183 9.66848 16.75 10 16.75H20C20.3315 16.75 20.6495 16.6183 20.8839 16.3839C21.1183 16.1495 21.25 15.8315 21.25 15.5C21.25 15.1685 21.1183 14.8505 20.8839 14.6161C20.6495 14.3817 20.3315 14.25 20 14.25H10C9.66848 14.25 9.35054 14.3817 9.11612 14.6161C8.8817 14.8505 8.75 15.1685 8.75 15.5Z" fill="white"/>
</svg>
