<svg width="50" height="50" viewBox="0 0 50 50" fill="none" xmlns="http://www.w3.org/2000/svg">
<g clip-path="url(#clip0_448_22)">
<path d="M4.16661 5.00065H14.9998V6.66729H4.16661V5.00065ZM4.16661 8.33394H14.9998V10.0006H4.16661V8.33394ZM4.16661 11.6672H11.6665V13.3339H4.16661V11.6672ZM4.16661 15.0005H11.6665V16.6672H4.16661V15.0005ZM0 48.3334H49.9994V50.0001H0V48.3334ZM48.2452 7.12812L44.9119 0.461539C44.8133 0.263776 44.6401 0.113308 44.4305 0.0432369C44.2209 -0.0268344 43.992 -0.0107694 43.7942 0.0878977L43.7936 0.0882102L37.127 3.4215C36.9322 3.52199 36.7847 3.6952 36.7166 3.90362C36.6485 4.11204 36.6653 4.3389 36.7633 4.53505C36.8612 4.73121 37.0325 4.88088 37.2401 4.95164C37.4476 5.02241 37.6746 5.00858 37.872 4.91315L42.7003 2.50068L41.3828 6.2623C35.592 22.7546 20.6766 34.3249 3.26246 35.8336L3.40412 37.5002C21.4744 35.9348 36.951 23.927 42.957 6.81229L44.3019 2.96901L46.7536 7.87311C46.8541 8.06799 47.0273 8.21544 47.2357 8.28353C47.4441 8.35161 47.671 8.33486 47.8671 8.23689C48.0633 8.13892 48.213 7.96763 48.2837 7.7601C48.3545 7.55257 48.3407 7.32552 48.2452 7.12812ZM9.99988 40.0002H4.16661C3.9456 40.0002 3.73364 40.088 3.57737 40.2443C3.42109 40.4006 3.33329 40.6125 3.33329 40.8335V45.8335C3.33329 46.0545 3.42109 46.2664 3.57737 46.4227C3.73364 46.579 3.9456 46.6668 4.16661 46.6668H9.99988C10.2209 46.6668 10.4328 46.579 10.5891 46.4227C10.7454 46.2664 10.8332 46.0545 10.8332 45.8335V40.8335C10.8332 40.6125 10.7454 40.4006 10.5891 40.2443C10.4328 40.088 10.2209 40.0002 9.99988 40.0002ZM9.16655 45.0002H4.99994V41.6669H9.16655V45.0002ZM19.1664 37.5002H13.3332C13.1122 37.5002 12.9002 37.588 12.7439 37.7443C12.5876 37.9006 12.4998 38.1126 12.4998 38.3336V45.8335C12.4998 46.0545 12.5876 46.2664 12.7439 46.4227C12.9002 46.579 13.1122 46.6668 13.3332 46.6668H19.1664C19.3874 46.6668 19.5994 46.579 19.7557 46.4227C19.912 46.2664 19.9998 46.0545 19.9998 45.8335V38.3336C19.9998 38.1126 19.912 37.9006 19.7557 37.7443C19.5994 37.588 19.3874 37.5002 19.1664 37.5002ZM18.3331 45.0002H14.1665V39.1669H18.3331V45.0002ZM28.333 33.3336H22.4997C22.2787 33.3336 22.0667 33.4214 21.9105 33.5777C21.7542 33.734 21.6664 33.9459 21.6664 34.167V45.8335C21.6664 46.0545 21.7542 46.2664 21.9105 46.4227C22.0667 46.579 22.2787 46.6668 22.4997 46.6668H28.333C28.554 46.6668 28.766 46.579 28.9222 46.4227C29.0785 46.2664 29.1663 46.0545 29.1663 45.8335V34.167C29.1663 33.9459 29.0785 33.734 28.9222 33.5777C28.766 33.4214 28.554 33.3336 28.333 33.3336ZM27.4997 45.0002H23.333V35.0003H27.4997V45.0002Z" fill="#231F20"/>
<path d="M37.4996 27.5003H31.6663C31.4453 27.5003 31.2334 27.5881 31.0771 27.7443C30.9208 27.9006 30.833 28.1126 30.833 28.3336V45.8334C30.833 46.0544 30.9208 46.2663 31.0771 46.4226C31.2334 46.5789 31.4453 46.6667 31.6663 46.6667H37.4996C37.7206 46.6667 37.9326 46.5789 38.0888 46.4226C38.2451 46.2663 38.3329 46.0544 38.3329 45.8334V28.3336C38.3329 28.1126 38.2451 27.9006 38.0888 27.7443C37.9326 27.5881 37.7206 27.5003 37.4996 27.5003ZM36.6663 45H32.4997V29.1669H36.6663V45ZM46.6661 15.8337H40.8329C40.6119 15.8337 40.3999 15.9215 40.2436 16.0778C40.0874 16.2341 39.9996 16.4461 39.9996 16.6671V45.8334C39.9996 46.0544 40.0874 46.2663 40.2436 46.4226C40.3999 46.5789 40.6119 46.6667 40.8329 46.6667H46.6661C46.8872 46.6667 47.0991 46.5789 47.2554 46.4226C47.4117 46.2663 47.4995 46.0544 47.4995 45.8334V16.6671C47.4995 16.4461 47.4117 16.2341 47.2554 16.0778C47.0991 15.9215 46.8872 15.8337 46.6661 15.8337ZM45.8328 45H41.6662V17.5004H45.8328V45Z" fill="#BD3A4A"/>
</g>
<defs>
<clipPath id="clip0_448_22">
<rect width="50" height="50" fill="white"/>
</clipPath>
</defs>
</svg>
