<svg width="25" height="25" viewBox="0 0 25 25" fill="none" xmlns="http://www.w3.org/2000/svg">
<g clip-path="url(#clip0_340_2551)">
<path d="M5.09437 16.6183C7.56018 19.5659 10.5285 21.8867 13.9164 23.5288C15.2063 24.1401 16.9313 24.8653 18.8532 24.9896C18.9723 24.9948 19.0863 25 19.2054 25C20.4953 25 21.5314 24.5545 22.3758 23.6376C22.3809 23.6324 22.3913 23.622 22.3965 23.6117C22.6969 23.2491 23.0388 22.9227 23.3963 22.5756C23.6397 22.3425 23.8884 22.099 24.1267 21.8504C25.2301 20.7004 25.2301 19.2395 24.1163 18.1258L21.003 15.0124C20.4746 14.4633 19.8426 14.1732 19.1795 14.1732C18.5165 14.1732 17.8793 14.4633 17.3354 15.0073L15.4808 16.8618C15.3099 16.7634 15.1337 16.6753 14.968 16.5924C14.7608 16.4888 14.5691 16.3904 14.3981 16.2816C12.7094 15.2093 11.176 13.8106 9.70999 12.0131C8.96921 11.0754 8.47191 10.288 8.12483 9.48508C8.61177 9.04476 9.06764 8.58371 9.50796 8.13303C9.66337 7.97244 9.82396 7.81185 9.98455 7.65126C10.544 7.09179 10.8445 6.44426 10.8445 5.78637C10.8445 5.12847 10.5492 4.48094 9.98455 3.92147L8.44083 2.37775C8.25952 2.19644 8.08857 2.02031 7.91244 1.839C7.57054 1.48674 7.2131 1.12412 6.86084 0.797762C6.32727 0.274554 5.70046 0 5.03739 0C4.37949 0 3.7475 0.274555 3.19321 0.802942L1.25579 2.74036C0.551269 3.44488 0.152388 4.29963 0.0695033 5.28906C-0.0289219 6.52714 0.19901 7.84293 0.789561 9.43328C1.69611 11.8939 3.0637 14.1784 5.09437 16.6183ZM1.33349 5.39784C1.39565 4.70887 1.65985 4.13386 2.15715 3.63655L4.08422 1.70949C4.38467 1.41939 4.71621 1.26917 5.03739 1.26917C5.35338 1.26917 5.67456 1.41939 5.96983 1.71985C6.31691 2.04103 6.64327 2.37775 6.99553 2.73518C7.17166 2.91649 7.35297 3.0978 7.53428 3.28429L9.078 4.82801C9.39918 5.14919 9.56495 5.47555 9.56495 5.79673C9.56495 6.1179 9.39918 6.44426 9.078 6.76544C8.91741 6.92603 8.75682 7.09179 8.59623 7.25238C8.11447 7.73933 7.66378 8.20037 7.16648 8.6407L7.14058 8.6666C6.71061 9.09656 6.77796 9.5058 6.88156 9.81662C6.88674 9.83216 6.89192 9.84252 6.8971 9.85806C7.29599 10.8164 7.85027 11.7281 8.71538 12.816C10.2695 14.7327 11.9064 16.2194 13.7092 17.3643C13.9319 17.5093 14.1702 17.6233 14.393 17.7373C14.6002 17.8409 14.7918 17.9393 14.9628 18.0481C14.9835 18.0584 14.9991 18.0688 15.0198 18.0792C15.1907 18.1672 15.3565 18.2087 15.5223 18.2087C15.9367 18.2087 16.2061 17.9445 16.2941 17.8564L18.2315 15.919C18.532 15.6185 18.8584 15.4579 19.1795 15.4579C19.5732 15.4579 19.8944 15.7014 20.0964 15.919L23.2201 19.0375C23.8418 19.6591 23.8366 20.3326 23.2046 20.9905C22.987 21.2236 22.7591 21.4463 22.5156 21.6794C22.153 22.0317 21.7748 22.3943 21.433 22.8036C20.8372 23.4459 20.1275 23.7464 19.2106 23.7464C19.1225 23.7464 19.0293 23.7412 18.9412 23.736C17.2421 23.6272 15.6621 22.9642 14.4758 22.3995C11.2537 20.8402 8.42528 18.6283 6.07862 15.8206C4.14638 13.4946 2.84613 11.3293 1.9862 9.0085C1.45264 7.58392 1.25061 6.43908 1.33349 5.39784Z" fill="#231F20"/>
</g>
<defs>
<clipPath id="clip0_340_2551">
<rect width="25" height="25" fill="white"/>
</clipPath>
</defs>
</svg>
