<svg width="17" height="18" viewBox="0 0 17 18" fill="none" xmlns="http://www.w3.org/2000/svg">
<path d="M4.53214 1.5625H2.07617C1.86489 1.56271 1.66233 1.64673 1.51293 1.79613C1.36353 1.94553 1.27951 2.1481 1.2793 2.35938V4.81508C1.27951 5.02636 1.36353 5.22892 1.51293 5.37832C1.66233 5.52772 1.86489 5.61174 2.07617 5.61195H4.53214C4.74342 5.61174 4.94599 5.52772 5.09538 5.37832C5.24478 5.22892 5.3288 5.02636 5.32902 4.81508V2.35938C5.3288 2.1481 5.24478 1.94553 5.09538 1.79613C4.94599 1.64673 4.74342 1.56271 4.53214 1.5625ZM4.79777 4.81508C4.7977 4.8855 4.76969 4.95303 4.71989 5.00283C4.67009 5.05262 4.60257 5.08063 4.53214 5.0807H2.07617C2.00575 5.08063 1.93822 5.05262 1.88842 5.00283C1.83863 4.95303 1.81062 4.8855 1.81055 4.81508V2.35938C1.81062 2.28895 1.83863 2.22143 1.88842 2.17163C1.93822 2.12183 2.00575 2.09382 2.07617 2.09375H4.53214C4.60257 2.09382 4.67009 2.12183 4.71989 2.17163C4.76969 2.22143 4.7977 2.28895 4.79777 2.35938V4.81508ZM4.53214 6.97514H2.07617C1.86489 6.97535 1.66233 7.05938 1.51293 7.20877C1.36353 7.35817 1.27951 7.56074 1.2793 7.77202V10.228C1.27951 10.4393 1.36353 10.6418 1.51293 10.7912C1.66233 10.9406 1.86489 11.0246 2.07617 11.0249H4.53214C4.74342 11.0246 4.94599 10.9406 5.09538 10.7912C5.24478 10.6418 5.3288 10.4393 5.32902 10.228V7.77202C5.3288 7.56074 5.24478 7.35817 5.09538 7.20877C4.94599 7.05938 4.74342 6.97535 4.53214 6.97514ZM4.79777 10.228C4.7977 10.2984 4.76969 10.3659 4.71989 10.4157C4.67009 10.4655 4.60257 10.4935 4.53214 10.4936H2.07617C2.00575 10.4935 1.93822 10.4655 1.88842 10.4157C1.83863 10.3659 1.81062 10.2984 1.81055 10.228V7.77202C1.81062 7.70159 1.83863 7.63407 1.88842 7.58427C1.93822 7.53447 2.00575 7.50646 2.07617 7.50639H4.53214C4.60257 7.50646 4.67009 7.53447 4.71989 7.58427C4.76969 7.63407 4.7977 7.70159 4.79777 7.77202V10.228ZM4.53214 12.388H2.07617C1.86489 12.3883 1.66233 12.4723 1.51293 12.6217C1.36353 12.7711 1.27951 12.9736 1.2793 13.1849V15.6406C1.27951 15.8519 1.36353 16.0545 1.51293 16.2039C1.66233 16.3533 1.86489 16.4373 2.07617 16.4375H4.53214C4.74342 16.4373 4.94599 16.3533 5.09538 16.2039C5.24478 16.0545 5.3288 15.8519 5.32902 15.6406V13.1849C5.3288 12.9736 5.24478 12.7711 5.09538 12.6217C4.94599 12.4723 4.74342 12.3883 4.53214 12.388ZM4.79777 15.6406C4.7977 15.7111 4.76969 15.7786 4.71989 15.8284C4.67009 15.8782 4.60257 15.9062 4.53214 15.9062H2.07617C2.00575 15.9062 1.93822 15.8782 1.88842 15.8284C1.83863 15.7786 1.81062 15.7111 1.81055 15.6406V13.1849C1.81062 13.1145 1.83863 13.047 1.88842 12.9972C1.93822 12.9474 2.00575 12.9194 2.07617 12.9193H4.53214C4.60257 12.9194 4.67009 12.9474 4.71989 12.9972C4.76969 13.047 4.7977 13.1145 4.79777 13.1849V15.6406ZM6.01034 2.22922H15.4552C15.5256 2.22922 15.5932 2.20123 15.643 2.15142C15.6928 2.1016 15.7208 2.03404 15.7208 1.96359C15.7208 1.89315 15.6928 1.82558 15.643 1.77577C15.5932 1.72595 15.5256 1.69797 15.4552 1.69797H6.01034C5.9399 1.69797 5.87233 1.72595 5.82252 1.77577C5.7727 1.82558 5.74472 1.89315 5.74472 1.96359C5.74472 2.03404 5.7727 2.1016 5.82252 2.15142C5.87233 2.20123 5.9399 2.22922 6.01034 2.22922ZM6.01034 3.85298H12.75C12.8205 3.85298 12.8881 3.825 12.9379 3.77518C12.9877 3.72537 13.0157 3.65781 13.0157 3.58736C13.0157 3.51691 12.9877 3.44935 12.9379 3.39953C12.8881 3.34972 12.8205 3.32173 12.75 3.32173H6.01034C5.9399 3.32173 5.87233 3.34972 5.82252 3.39953C5.7727 3.44935 5.74472 3.51691 5.74472 3.58736C5.74472 3.65781 5.7727 3.72537 5.82252 3.77518C5.87233 3.825 5.9399 3.85298 6.01034 3.85298ZM6.01034 5.47675H10.9146C10.985 5.47675 11.0526 5.44876 11.1024 5.39895C11.1522 5.34914 11.1802 5.28157 11.1802 5.21112C11.1802 5.14068 11.1522 5.07311 11.1024 5.0233C11.0526 4.97349 10.985 4.9455 10.9146 4.9455H6.01034C5.9399 4.9455 5.87233 4.97349 5.82252 5.0233C5.7727 5.07311 5.74472 5.14068 5.74472 5.21112C5.74472 5.28157 5.7727 5.34914 5.82252 5.39895C5.87233 5.44876 5.9399 5.47675 6.01034 5.47675ZM15.4552 7.11061H6.01034C5.9399 7.11061 5.87233 7.13859 5.82252 7.18841C5.7727 7.23822 5.74472 7.30579 5.74472 7.37623C5.74472 7.44668 5.7727 7.51425 5.82252 7.56406C5.87233 7.61387 5.9399 7.64186 6.01034 7.64186H15.4552C15.5256 7.64186 15.5932 7.61387 15.643 7.56406C15.6928 7.51425 15.7208 7.44668 15.7208 7.37623C15.7208 7.30579 15.6928 7.23822 15.643 7.18841C15.5932 7.13859 15.5256 7.11061 15.4552 7.11061ZM6.01034 9.26562H12.75C12.8205 9.26562 12.8881 9.23764 12.9379 9.18783C12.9877 9.13801 13.0157 9.07045 13.0157 9C13.0157 8.92955 12.9877 8.86199 12.9379 8.81217C12.8881 8.76236 12.8205 8.73438 12.75 8.73438H6.01034C5.9399 8.73438 5.87233 8.76236 5.82252 8.81217C5.7727 8.86199 5.74472 8.92955 5.74472 9C5.74472 9.07045 5.7727 9.13801 5.82252 9.18783C5.87233 9.23764 5.9399 9.26562 6.01034 9.26562ZM6.01034 10.8894H10.9146C10.985 10.8894 11.0526 10.8614 11.1024 10.8116C11.1522 10.7618 11.1802 10.6942 11.1802 10.6238C11.1802 10.5533 11.1522 10.4858 11.1024 10.4359C11.0526 10.3861 10.985 10.3581 10.9146 10.3581H6.01034C5.9399 10.3581 5.87233 10.3861 5.82252 10.4359C5.7727 10.4858 5.74472 10.5533 5.74472 10.6238C5.74472 10.6942 5.7727 10.7618 5.82252 10.8116C5.87233 10.8614 5.9399 10.8894 6.01034 10.8894ZM15.4552 12.5232H6.01034C5.9399 12.5232 5.87233 12.5512 5.82252 12.601C5.7727 12.6509 5.74472 12.7184 5.74472 12.7889C5.74472 12.8593 5.7727 12.9269 5.82252 12.9767C5.87233 13.0265 5.9399 13.0545 6.01034 13.0545H15.4552C15.5256 13.0545 15.5932 13.0265 15.643 12.9767C15.6928 12.9269 15.7208 12.8593 15.7208 12.7889C15.7208 12.7184 15.6928 12.6509 15.643 12.601C15.5932 12.5512 15.5256 12.5232 15.4552 12.5232ZM12.75 14.147H6.01034C5.9399 14.147 5.87233 14.175 5.82252 14.2248C5.7727 14.2746 5.74472 14.3422 5.74472 14.4126C5.74472 14.4831 5.7727 14.5507 5.82252 14.6005C5.87233 14.6503 5.9399 14.6783 6.01034 14.6783H12.75C12.8205 14.6783 12.8881 14.6503 12.9379 14.6005C12.9877 14.5507 13.0157 14.4831 13.0157 14.4126C13.0157 14.3422 12.9877 14.2746 12.9379 14.2248C12.8881 14.175 12.8205 14.147 12.75 14.147ZM10.9111 15.7708H6.01034C5.9399 15.7708 5.87233 15.7988 5.82252 15.8486C5.7727 15.8984 5.74472 15.966 5.74472 16.0364C5.74472 16.1069 5.7727 16.1744 5.82252 16.2242C5.87233 16.274 5.9399 16.302 6.01034 16.302H10.9111C10.9816 16.302 11.0491 16.274 11.099 16.2242C11.1488 16.1744 11.1768 16.1069 11.1768 16.0364C11.1768 15.966 11.1488 15.8984 11.099 15.8486C11.0491 15.7988 10.9816 15.7708 10.9111 15.7708Z" fill="white"/>
</svg>
