<svg width="18" height="19" viewBox="0 0 18 19" fill="none" xmlns="http://www.w3.org/2000/svg">
<g clip-path="url(#clip0_265_66)">
<path d="M18 9.49989C18 12.8081 15.3082 15.4999 12 15.4999H2.25L3.96975 17.2196C4.11038 17.3603 4.18939 17.551 4.18939 17.7499C4.18939 17.9488 4.11038 18.1395 3.96975 18.2801C3.82912 18.4208 3.63838 18.4998 3.4395 18.4998C3.24062 18.4998 3.04988 18.4208 2.90925 18.2801L0.4395 15.8104C0.158477 15.529 0.000630555 15.1476 0.000630555 14.7499C0.000630555 14.3522 0.158477 13.9708 0.4395 13.6894L2.90925 11.2196C2.97888 11.15 3.06155 11.0948 3.15253 11.0571C3.24351 11.0194 3.34102 11 3.4395 11C3.53798 11 3.63549 11.0194 3.72647 11.0571C3.81745 11.0948 3.90012 11.15 3.96975 11.2196C4.03938 11.2893 4.09462 11.3719 4.13231 11.4629C4.16999 11.5539 4.18939 11.6514 4.18939 11.7499C4.18939 11.8484 4.16999 11.9459 4.13231 12.0369C4.09462 12.1278 4.03938 12.2105 3.96975 12.2801L2.25 13.9999H12C14.4818 13.9999 16.5 11.9816 16.5 9.49989C16.5 9.30097 16.579 9.11021 16.7197 8.96956C16.8603 8.82891 17.0511 8.74989 17.25 8.74989C17.4489 8.74989 17.6397 8.82891 17.7803 8.96956C17.921 9.11021 18 9.30097 18 9.49989ZM0.75 10.2499C0.948912 10.2499 1.13968 10.1709 1.28033 10.0302C1.42098 9.88957 1.5 9.6988 1.5 9.49989C1.5 7.01814 3.51825 4.99989 6 4.99989H15.75L14.0303 6.71964C13.9606 6.78927 13.9054 6.87194 13.8677 6.96292C13.83 7.0539 13.8106 7.15141 13.8106 7.24989C13.8106 7.34836 13.83 7.44588 13.8677 7.53686C13.9054 7.62784 13.9606 7.7105 14.0303 7.78014C14.0999 7.84977 14.1826 7.90501 14.2735 7.94269C14.3645 7.98038 14.462 7.99977 14.5605 7.99977C14.659 7.99977 14.7565 7.98038 14.8475 7.94269C14.9384 7.90501 15.0211 7.84977 15.0907 7.78014L17.5605 5.31039C18.1455 4.72614 18.1455 3.77364 17.5605 3.18939L15.0907 0.719637C15.0211 0.650003 14.9384 0.594767 14.8475 0.557082C14.7565 0.519396 14.659 0.5 14.5605 0.5C14.462 0.5 14.3645 0.519396 14.2735 0.557082C14.1826 0.594767 14.0999 0.650003 14.0303 0.719637C13.9606 0.78927 13.9054 0.871937 13.8677 0.962918C13.83 1.0539 13.8106 1.15141 13.8106 1.24989C13.8106 1.34836 13.83 1.44588 13.8677 1.53686C13.9054 1.62784 13.9606 1.7105 14.0303 1.78014L15.75 3.49989H6C2.69175 3.49989 0 6.19164 0 9.49989C0 9.6988 0.0790176 9.88957 0.21967 10.0302C0.360322 10.1709 0.551088 10.2499 0.75 10.2499Z" fill="white"/>
</g>
<defs>
<clipPath id="clip0_265_66">
<rect width="18" height="18" fill="white" transform="translate(0 0.5)"/>
</clipPath>
</defs>
</svg>
