<svg width="50" height="50" viewBox="0 0 50 50" fill="none" xmlns="http://www.w3.org/2000/svg">
<path d="M32.1778 8.74463H8.93393C6.7529 8.74463 4.98145 10.5161 4.98145 12.6971V46.0475C4.98145 48.2285 6.7529 50 8.93393 50H32.1778C34.3589 50 36.1303 48.2285 36.1303 46.0475V12.6971C36.1201 10.5161 34.3486 8.74463 32.1778 8.74463ZM33.3554 46.0373C33.3554 46.6926 32.8229 47.2251 32.1676 47.2251H8.92369C8.26836 47.2251 7.7359 46.6926 7.7359 46.0373V12.6971C7.7359 12.0418 8.26836 11.5093 8.92369 11.5093H32.1676C32.8229 11.5093 33.3554 12.0418 33.3554 12.6971V46.0373Z" fill="#231F20"/>
<path d="M41.0655 0H17.8216C15.6406 0 13.8691 1.77145 13.8691 3.95249C13.8691 4.72046 14.4835 5.33483 15.2515 5.33483C16.0195 5.33483 16.6338 4.72046 16.6338 3.95249C16.6338 3.29715 17.1663 2.76469 17.8216 2.76469H41.0655C41.7209 2.76469 42.2533 3.29715 42.2533 3.95249V37.3029C42.2533 37.9582 41.7209 38.4907 41.0655 38.4907C40.2976 38.4907 39.6832 39.1051 39.6832 39.873C39.6832 40.641 40.2976 41.2554 41.0655 41.2554C43.2466 41.2554 45.018 39.4839 45.018 37.3029V3.95249C45.018 1.77145 43.2466 0 41.0655 0Z" fill="#BD3A4A"/>
</svg>
