<svg width="50" height="50" viewBox="0 0 50 50" fill="none" xmlns="http://www.w3.org/2000/svg">
<g clip-path="url(#clip0_452_6)">
<path d="M47.6562 24.2188H2.34375C1.72215 24.2188 1.12601 24.4657 0.686468 24.9052C0.24693 25.3448 0 25.9409 0 26.5625L0 34.375C0 34.9966 0.24693 35.5927 0.686468 36.0323C1.12601 36.4718 1.72215 36.7188 2.34375 36.7188H47.6562C48.2779 36.7188 48.874 36.4718 49.3135 36.0323C49.7531 35.5927 50 34.9966 50 34.375V26.5625C50 25.9409 49.7531 25.3448 49.3135 24.9052C48.874 24.4657 48.2779 24.2188 47.6562 24.2188ZM10.9375 35.1562H2.34375C2.13655 35.1562 1.93784 35.0739 1.79132 34.9274C1.64481 34.7809 1.5625 34.5822 1.5625 34.375V26.5625C1.5625 26.3553 1.64481 26.1566 1.79132 26.0101C1.93784 25.8636 2.13655 25.7812 2.34375 25.7812H10.9375V35.1562ZM48.4375 34.375C48.4375 34.5822 48.3552 34.7809 48.2087 34.9274C48.0622 35.0739 47.8635 35.1562 47.6562 35.1562H12.5V25.7812H47.6562C47.8635 25.7812 48.0622 25.8636 48.2087 26.0101C48.3552 26.1566 48.4375 26.3553 48.4375 26.5625V34.375Z" fill="black"/>
<path d="M5.46875 32.8125C6.02486 32.8098 6.56988 32.6567 7.0461 32.3695L8.82266 34.1461C8.97 34.2884 9.16735 34.3672 9.37219 34.3654C9.57703 34.3636 9.77298 34.2814 9.91783 34.1366C10.0627 33.9917 10.1448 33.7958 10.1466 33.5909C10.1484 33.3861 10.0697 33.1888 9.92735 33.0414L8.15078 31.2648C8.43797 30.7886 8.59103 30.2436 8.59375 29.6875C8.59375 29.0694 8.41047 28.4652 8.06709 27.9513C7.72371 27.4374 7.23566 27.0369 6.66464 26.8004C6.09362 26.5639 5.46528 26.502 4.85909 26.6225C4.2529 26.7431 3.69608 27.0408 3.25904 27.4778C2.822 27.9148 2.52438 28.4717 2.4038 29.0778C2.28322 29.684 2.3451 30.3124 2.58163 30.8834C2.81815 31.4544 3.21869 31.9425 3.73259 32.2858C4.2465 32.6292 4.85068 32.8125 5.46875 32.8125ZM5.46875 28.125C5.77778 28.125 6.07988 28.2166 6.33683 28.3883C6.59378 28.56 6.79405 28.804 6.91231 29.0896C7.03058 29.3751 7.06152 29.6892 7.00123 29.9923C6.94094 30.2954 6.79213 30.5738 6.57361 30.7924C6.35509 31.0109 6.07668 31.1597 5.77358 31.22C5.47048 31.2803 5.15632 31.2493 4.87081 31.1311C4.5853 31.0128 4.34127 30.8125 4.16958 30.5556C3.99789 30.2986 3.90625 29.9965 3.90625 29.6875C3.90625 29.2731 4.07087 28.8757 4.3639 28.5826C4.65692 28.2896 5.05435 28.125 5.46875 28.125ZM46.875 38.2812C46.6678 38.2812 46.4691 38.3636 46.3226 38.5101C46.1761 38.6566 46.0938 38.8553 46.0938 39.0625V41.4062C46.0938 42.2351 45.7645 43.0299 45.1785 43.616C44.5924 44.202 43.7976 44.5312 42.9688 44.5312H7.03125C6.20245 44.5312 5.40759 44.202 4.82154 43.616C4.23549 43.0299 3.90625 42.2351 3.90625 41.4062V39.0625C3.90625 38.8553 3.82394 38.6566 3.67743 38.5101C3.53092 38.3636 3.3322 38.2812 3.125 38.2812C2.9178 38.2812 2.71909 38.3636 2.57257 38.5101C2.42606 38.6566 2.34375 38.8553 2.34375 39.0625V41.4062C2.34499 42.6491 2.83925 43.8406 3.71806 44.7194C4.59687 45.5983 5.78843 46.0925 7.03125 46.0938H42.9688C44.2116 46.0925 45.4031 45.5983 46.2819 44.7194C47.1608 43.8406 47.655 42.6491 47.6562 41.4062V39.0625C47.6562 38.8553 47.5739 38.6566 47.4274 38.5101C47.2809 38.3636 47.0822 38.2812 46.875 38.2812ZM3.125 22.6562C3.3322 22.6562 3.53092 22.5739 3.67743 22.4274C3.82394 22.2809 3.90625 22.0822 3.90625 21.875V16.4062H18.75C20.0647 16.4046 21.3349 15.9302 22.3287 15.0696C23.3226 14.209 23.9737 13.0197 24.1633 11.7188H46.0938V21.875C46.0938 22.0822 46.1761 22.2809 46.3226 22.4274C46.4691 22.5739 46.6678 22.6562 46.875 22.6562C47.0822 22.6562 47.2809 22.5739 47.4274 22.4274C47.5739 22.2809 47.6562 22.0822 47.6562 21.875V8.59375C47.655 7.35093 47.1608 6.15937 46.2819 5.28056C45.4031 4.40175 44.2116 3.90749 42.9688 3.90625H7.03125C5.78843 3.90749 4.59687 4.40175 3.71806 5.28056C2.83925 6.15937 2.34499 7.35093 2.34375 8.59375V21.875C2.34375 22.0822 2.42606 22.2809 2.57257 22.4274C2.71909 22.5739 2.9178 22.6562 3.125 22.6562ZM3.90625 8.59375C3.90625 7.76495 4.23549 6.97009 4.82154 6.38404C5.40759 5.79799 6.20245 5.46875 7.03125 5.46875H42.9688C43.7976 5.46875 44.5924 5.79799 45.1785 6.38404C45.7645 6.97009 46.0938 7.76495 46.0938 8.59375V10.1562H23.4375C23.2303 10.1562 23.0316 10.2386 22.8851 10.3851C22.7386 10.5316 22.6563 10.7303 22.6563 10.9375C22.655 11.9731 22.2431 12.966 21.5108 13.6983C20.7785 14.4306 19.7856 14.8425 18.75 14.8438H3.90625V8.59375Z" fill="#231F20"/>
<path d="M7.8125 8.59375C7.34895 8.59375 6.89581 8.73121 6.51038 8.98874C6.12496 9.24628 5.82455 9.61232 5.64716 10.0406C5.46977 10.4689 5.42335 10.9401 5.51379 11.3947C5.60422 11.8494 5.82744 12.267 6.15522 12.5948C6.483 12.9226 6.90062 13.1458 7.35526 13.2362C7.8099 13.3266 8.28115 13.2802 8.70942 13.1028C9.13768 12.9254 9.50372 12.625 9.76126 12.2396C10.0188 11.8542 10.1563 11.401 10.1563 10.9375C10.1563 10.3159 9.90932 9.71976 9.46978 9.28022C9.03024 8.84068 8.4341 8.59375 7.8125 8.59375ZM7.8125 11.7188C7.65798 11.7188 7.50694 11.6729 7.37846 11.5871C7.24999 11.5012 7.14985 11.3792 7.09072 11.2365C7.03159 11.0937 7.01612 10.9366 7.04626 10.7851C7.07641 10.6335 7.15081 10.4943 7.26007 10.3851C7.36933 10.2758 7.50854 10.2014 7.66009 10.1713C7.81163 10.1411 7.96872 10.1566 8.11147 10.2157C8.25423 10.2749 8.37624 10.375 8.46209 10.5035C8.54793 10.6319 8.59375 10.783 8.59375 10.9375C8.59375 11.1447 8.51144 11.3434 8.36493 11.4899C8.21842 11.6364 8.0197 11.7188 7.8125 11.7188ZM13.2813 8.59375C12.8177 8.59375 12.3646 8.73121 11.9791 8.98874C11.5937 9.24628 11.2933 9.61232 11.1159 10.0406C10.9385 10.4689 10.8921 10.9401 10.9825 11.3947C11.073 11.8494 11.2962 12.267 11.624 12.5948C11.9517 12.9226 12.3694 13.1458 12.824 13.2362C13.2787 13.3266 13.7499 13.2802 14.1782 13.1028C14.6064 12.9254 14.9725 12.625 15.23 12.2396C15.4875 11.8542 15.625 11.401 15.625 10.9375C15.625 10.3159 15.3781 9.71976 14.9385 9.28022C14.499 8.84068 13.9029 8.59375 13.2813 8.59375ZM13.2813 11.7188C13.1267 11.7188 12.9757 11.6729 12.8472 11.5871C12.7187 11.5012 12.6186 11.3792 12.5595 11.2365C12.5003 11.0937 12.4849 10.9366 12.515 10.7851C12.5452 10.6335 12.6196 10.4943 12.7288 10.3851C12.8381 10.2758 12.9773 10.2014 13.1288 10.1713C13.2804 10.1411 13.4375 10.1566 13.5802 10.2157C13.723 10.2749 13.845 10.375 13.9308 10.5035C14.0167 10.6319 14.0625 10.783 14.0625 10.9375C14.0625 11.1447 13.9802 11.3434 13.8337 11.4899C13.6872 11.6364 13.4885 11.7188 13.2813 11.7188ZM21.0938 10.9375C21.0938 10.474 20.9563 10.0208 20.6988 9.63538C20.4412 9.24995 20.0752 8.94955 19.6469 8.77216C19.2187 8.59476 18.7474 8.54835 18.2928 8.63878C17.8381 8.72922 17.4205 8.95244 17.0927 9.28022C16.7649 9.608 16.5417 10.0256 16.4513 10.4803C16.3609 10.9349 16.4073 11.4061 16.5847 11.8344C16.7621 12.2627 17.0625 12.6287 17.4479 12.8863C17.8333 13.1438 18.2865 13.2812 18.75 13.2812C19.3716 13.2812 19.9677 13.0343 20.4073 12.5948C20.8468 12.1552 21.0938 11.5591 21.0938 10.9375ZM17.9688 10.9375C17.9688 10.783 18.0146 10.6319 18.1004 10.5035C18.1863 10.375 18.3083 10.2749 18.451 10.2157C18.5938 10.1566 18.7509 10.1411 18.9024 10.1713C19.054 10.2014 19.1932 10.2758 19.3024 10.3851C19.4117 10.4943 19.4861 10.6335 19.5162 10.7851C19.5464 10.9366 19.5309 11.0937 19.4718 11.2365C19.4127 11.3792 19.3125 11.5012 19.184 11.5871C19.0556 11.6729 18.9045 11.7188 18.75 11.7188C18.5428 11.7188 18.3441 11.6364 18.1976 11.4899C18.0511 11.3434 17.9688 11.1447 17.9688 10.9375ZM29.6875 8.59375H42.9688C43.176 8.59375 43.3747 8.51144 43.5212 8.36493C43.6677 8.21841 43.75 8.0197 43.75 7.8125C43.75 7.6053 43.6677 7.40659 43.5212 7.26007C43.3747 7.11356 43.176 7.03125 42.9688 7.03125H29.6875C29.4803 7.03125 29.2816 7.11356 29.1351 7.26007C28.9886 7.40659 28.9063 7.6053 28.9063 7.8125C28.9063 8.0197 28.9886 8.21841 29.1351 8.36493C29.2816 8.51144 29.4803 8.59375 29.6875 8.59375ZM16.4063 29.6875H14.8438C14.6366 29.6875 14.4378 29.7698 14.2913 29.9163C14.1448 30.0628 14.0625 30.2615 14.0625 30.4688C14.0625 30.676 14.1448 30.8747 14.2913 31.0212C14.4378 31.1677 14.6366 31.25 14.8438 31.25H16.4063C16.6135 31.25 16.8122 31.1677 16.9587 31.0212C17.1052 30.8747 17.1875 30.676 17.1875 30.4688C17.1875 30.2615 17.1052 30.0628 16.9587 29.9163C16.8122 29.7698 16.6135 29.6875 16.4063 29.6875ZM21.0938 29.6875H19.5313C19.3241 29.6875 19.1253 29.7698 18.9788 29.9163C18.8323 30.0628 18.75 30.2615 18.75 30.4688C18.75 30.676 18.8323 30.8747 18.9788 31.0212C19.1253 31.1677 19.3241 31.25 19.5313 31.25H21.0938C21.301 31.25 21.4997 31.1677 21.6462 31.0212C21.7927 30.8747 21.875 30.676 21.875 30.4688C21.875 30.2615 21.7927 30.0628 21.6462 29.9163C21.4997 29.7698 21.301 29.6875 21.0938 29.6875ZM25.7813 29.6875H24.2188C24.0116 29.6875 23.8128 29.7698 23.6663 29.9163C23.5198 30.0628 23.4375 30.2615 23.4375 30.4688C23.4375 30.676 23.5198 30.8747 23.6663 31.0212C23.8128 31.1677 24.0116 31.25 24.2188 31.25H25.7813C25.9885 31.25 26.1872 31.1677 26.3337 31.0212C26.4802 30.8747 26.5625 30.676 26.5625 30.4688C26.5625 30.2615 26.4802 30.0628 26.3337 29.9163C26.1872 29.7698 25.9885 29.6875 25.7813 29.6875ZM30.4688 29.6875H28.9063C28.6991 29.6875 28.5003 29.7698 28.3538 29.9163C28.2073 30.0628 28.125 30.2615 28.125 30.4688C28.125 30.676 28.2073 30.8747 28.3538 31.0212C28.5003 31.1677 28.6991 31.25 28.9063 31.25H30.4688C30.676 31.25 30.8747 31.1677 31.0212 31.0212C31.1677 30.8747 31.25 30.676 31.25 30.4688C31.25 30.2615 31.1677 30.0628 31.0212 29.9163C30.8747 29.7698 30.676 29.6875 30.4688 29.6875ZM35.1562 29.6875H33.5938C33.3865 29.6875 33.1878 29.7698 33.0413 29.9163C32.8948 30.0628 32.8125 30.2615 32.8125 30.4688C32.8125 30.676 32.8948 30.8747 33.0413 31.0212C33.1878 31.1677 33.3865 31.25 33.5938 31.25H35.1562C35.3635 31.25 35.5622 31.1677 35.7087 31.0212C35.8552 30.8747 35.9375 30.676 35.9375 30.4688C35.9375 30.2615 35.8552 30.0628 35.7087 29.9163C35.5622 29.7698 35.3635 29.6875 35.1562 29.6875Z" fill="#BD3A4A"/>
</g>
<defs>
<clipPath id="clip0_452_6">
<rect width="50" height="50" fill="white"/>
</clipPath>
</defs>
</svg>
