<svg width="25" height="25" viewBox="0 0 25 25" fill="none" xmlns="http://www.w3.org/2000/svg">
<path d="M12.5 12.4233C11.4979 12.4233 10.5183 12.1261 9.6851 11.5694C8.85189 11.0127 8.20248 10.2214 7.819 9.29556C7.43552 8.36975 7.33518 7.35102 7.53068 6.36818C7.72618 5.38535 8.20873 4.48255 8.91731 3.77397C9.6259 3.06539 10.5287 2.58283 11.5115 2.38733C12.4944 2.19184 13.5131 2.29217 14.4389 2.67566C15.3647 3.05914 16.156 3.70855 16.7128 4.54175C17.2695 5.37496 17.5666 6.35455 17.5666 7.35664C17.5651 8.69994 17.0309 9.9878 16.081 10.9377C15.1311 11.8875 13.8433 12.4218 12.5 12.4233ZM12.5 3.69739C11.7762 3.69739 11.0688 3.912 10.467 4.31408C9.86525 4.71616 9.39623 5.28766 9.11927 5.9563C8.84231 6.62494 8.76985 7.3607 8.91104 8.07052C9.05223 8.78035 9.40074 9.43236 9.9125 9.94412C10.4243 10.4559 11.0763 10.8044 11.7861 10.9456C12.4959 11.0868 13.2317 11.0143 13.9003 10.7373C14.569 10.4604 15.1405 9.99137 15.5425 9.38961C15.9446 8.78785 16.1592 8.08037 16.1592 7.35664C16.1581 6.38649 15.7722 5.45639 15.0862 4.77039C14.4002 4.08439 13.4701 3.6985 12.5 3.69739ZM21.2963 22.71C21.1096 22.71 20.9306 22.6359 20.7987 22.5039C20.6667 22.3719 20.5926 22.1929 20.5926 22.0063V20.2668C20.5911 18.9305 20.0596 17.6495 19.1148 16.7046C18.1699 15.7598 16.8889 15.2283 15.5526 15.2268H9.44732C8.11111 15.2283 6.83005 15.7598 5.88521 16.7046C4.94036 17.6495 4.40889 18.9305 4.4074 20.2668V22.0063C4.4074 22.1929 4.33326 22.3719 4.20129 22.5039C4.06933 22.6359 3.89034 22.71 3.7037 22.71C3.51707 22.71 3.33808 22.6359 3.20611 22.5039C3.07414 22.3719 3 22.1929 3 22.0063V20.2668C3.00205 18.5575 3.68198 16.9187 4.89064 15.7101C6.0993 14.5014 7.73801 13.8215 9.44732 13.8194H15.5519C17.2614 13.8213 18.9003 14.5011 20.1091 15.7098C21.3179 16.9185 21.9979 18.5573 22 20.2668V22.0063C22 22.1929 21.9258 22.3719 21.7939 22.5039C21.6619 22.6359 21.4829 22.71 21.2963 22.71Z" fill="#231F20"/>
</svg>
