<svg width="17" height="12" viewBox="0 0 17 12" fill="none" xmlns="http://www.w3.org/2000/svg">
<path d="M14.7615 9.06462C16.8943 7.83825 17.6341 5.10369 16.4068 2.97088C15.1796 0.838072 12.4459 0.0982922 10.3131 1.32557L6.95058 3.25759L7.64283 4.48274L5.1962 5.8907C4.99592 5.73532 4.74789 5.65432 4.49452 5.66155C4.24114 5.66878 3.99813 5.76379 3.80704 5.93033C3.61595 6.09688 3.48863 6.32462 3.44685 6.57463C3.40507 6.82465 3.45141 7.08141 3.57797 7.30104C3.70452 7.52067 3.90343 7.68953 4.14069 7.77876C4.37795 7.86798 4.63883 7.87203 4.87875 7.79022C5.11866 7.70841 5.32272 7.54581 5.45604 7.33022C5.58935 7.11463 5.64365 6.85943 5.60966 6.60823L8.0502 5.20393L11.428 3.26338C11.6816 3.1157 11.962 3.01962 12.253 2.98067C12.5439 2.94172 12.8397 2.96067 13.1233 3.03643C13.4069 3.11218 13.6727 3.24325 13.9055 3.4221C14.1383 3.60095 14.3334 3.82404 14.4796 4.07855C14.6259 4.33307 14.7204 4.61398 14.7577 4.90515C14.795 5.19631 14.7744 5.49197 14.697 5.77514C14.6197 6.05831 14.4871 6.32339 14.307 6.55515C14.1268 6.78691 13.9026 6.98077 13.6473 7.12559L10.2421 9.08229L11.3426 11.0302L14.7615 9.06462ZM4.9296 6.99976C4.88907 7.06745 4.8321 7.1238 4.76397 7.16359C4.69585 7.20338 4.61877 7.22532 4.5399 7.22736C4.47625 7.23182 4.41235 7.22336 4.35206 7.20248C4.29176 7.1816 4.23632 7.14873 4.18906 7.10585C4.14181 7.06298 4.10372 7.01098 4.07709 6.953C4.05046 6.89501 4.03584 6.83224 4.03411 6.76845C4.03238 6.70467 4.04358 6.64119 4.06703 6.58185C4.09048 6.52251 4.1257 6.46852 4.17056 6.42315C4.21543 6.37778 4.26901 6.34196 4.32809 6.31784C4.38716 6.29373 4.45051 6.28182 4.51431 6.28283H4.51614C4.60101 6.28127 4.68475 6.30253 4.75861 6.34439C4.83246 6.38624 4.89373 6.44717 4.93599 6.52079C4.96732 6.57436 4.98761 6.63367 4.99566 6.6952C5.00372 6.75674 4.99939 6.81926 4.98292 6.8791C4.9713 6.92177 4.95333 6.96244 4.9296 6.99976Z" fill="white"/>
<path d="M9.35796 7.51863L11.7976 6.11433C11.998 6.26985 12.2462 6.35096 12.4997 6.34378C12.7533 6.3366 12.9965 6.24159 13.1878 6.07497C13.3791 5.90836 13.5066 5.68049 13.5485 5.43031C13.5904 5.18012 13.5441 4.92315 13.4175 4.70331C13.291 4.48346 13.092 4.31439 12.8546 4.22498C12.6172 4.13558 12.3561 4.13139 12.116 4.21313C11.8759 4.29487 11.6716 4.45747 11.538 4.67315C11.4045 4.88882 11.35 5.14417 11.3838 5.39557L8.94968 6.79713L5.57222 8.73799C5.06002 9.03233 4.45187 9.11115 3.88156 8.9571C3.31124 8.80305 2.82548 8.42875 2.53114 7.91655C2.2368 7.40435 2.15798 6.7962 2.31203 6.22589C2.46608 5.65557 2.84038 5.16982 3.35258 4.87547L6.75776 2.91755L5.65753 0.970604L2.23834 2.93553C0.105528 4.1619 -0.634252 6.89646 0.593027 9.02927C1.82031 11.1621 4.55396 11.9016 6.68677 10.6746L10.0502 8.74165L9.35796 7.51863ZM12.0651 5.00314C12.1064 4.93597 12.1637 4.88016 12.232 4.84074C12.3002 4.80131 12.3772 4.77953 12.456 4.77736C12.5615 4.77423 12.665 4.80648 12.7501 4.86898C12.8351 4.93147 12.8968 5.02062 12.9253 5.12224C12.9538 5.22385 12.9476 5.33208 12.9075 5.42971C12.8674 5.52733 12.7957 5.60873 12.704 5.66096C12.6363 5.70011 12.5598 5.72159 12.4816 5.72342H12.4776C12.3928 5.72494 12.3092 5.70365 12.2354 5.66177C12.1616 5.61989 12.1004 5.55895 12.0583 5.48533C12.0161 5.41172 11.9945 5.32813 11.9957 5.2433C11.9969 5.15847 12.0209 5.07553 12.0651 5.00314Z" fill="white"/>
</svg>
