<svg width="25" height="25" viewBox="0 0 25 25" fill="none" xmlns="http://www.w3.org/2000/svg">
<g clip-path="url(#clip0_340_2590)">
<path d="M3.98047 0.976562C3.38326 0.976562 2.79947 1.15365 2.30291 1.48545C1.80635 1.81724 1.41933 2.28882 1.19079 2.84057C0.962246 3.39232 0.902449 3.99944 1.01896 4.58518C1.13547 5.17091 1.42305 5.70894 1.84534 6.13122C2.26763 6.55351 2.80566 6.8411 3.39139 6.95761C3.97712 7.07411 4.58425 7.01432 5.13599 6.78578C5.68774 6.55724 6.15933 6.17021 6.49112 5.67366C6.82291 5.1771 7 4.5933 7 3.99609C6.99897 3.19558 6.68051 2.42815 6.11446 1.8621C5.54841 1.29606 4.78098 0.977596 3.98047 0.976562ZM3.98047 5.84375C3.61504 5.84375 3.25781 5.73539 2.95397 5.53236C2.65012 5.32934 2.4133 5.04078 2.27346 4.70316C2.13361 4.36555 2.09702 3.99404 2.16832 3.63563C2.23961 3.27722 2.41558 2.948 2.67398 2.6896C2.93238 2.4312 3.2616 2.25523 3.62001 2.18394C3.97842 2.11265 4.34992 2.14924 4.68754 2.28908C5.02515 2.42893 5.31372 2.66575 5.51674 2.96959C5.71976 3.27344 5.82813 3.63066 5.82813 3.99609C5.83019 4.24004 5.78392 4.48199 5.69199 4.70796C5.60006 4.93393 5.46429 5.13947 5.29252 5.3127C5.12074 5.48593 4.91636 5.62342 4.69117 5.71725C4.46597 5.81108 4.22443 5.85938 3.98047 5.85938V5.84375ZM3.98047 9.48047C3.38326 9.48047 2.79947 9.65756 2.30291 9.98935C1.80635 10.3211 1.41933 10.7927 1.19079 11.3445C0.962246 11.8962 0.902449 12.5034 1.01896 13.0891C1.13547 13.6748 1.42305 14.2128 1.84534 14.6351C2.26763 15.0574 2.80566 15.345 3.39139 15.4615C3.97712 15.578 4.58425 15.5182 5.13599 15.2897C5.68774 15.0611 6.15933 14.6741 6.49112 14.1776C6.82291 13.681 7 13.0972 7 12.5C6.99897 11.6995 6.68051 10.9321 6.11446 10.366C5.54841 9.79996 4.78098 9.4815 3.98047 9.48047ZM3.98047 14.3477C3.61504 14.3477 3.25781 14.2393 2.95397 14.0363C2.65012 13.8332 2.4133 13.5447 2.27346 13.2071C2.13361 12.8695 2.09702 12.498 2.16832 12.1395C2.23961 11.7811 2.41558 11.4519 2.67398 11.1935C2.93238 10.9351 3.2616 10.7591 3.62001 10.6878C3.97842 10.6166 4.34992 10.6531 4.68754 10.793C5.02515 10.9328 5.31372 11.1697 5.51674 11.4735C5.71976 11.7773 5.82813 12.1346 5.82813 12.5C5.82813 12.7426 5.78034 12.9829 5.68748 13.2071C5.59463 13.4312 5.45853 13.6349 5.28696 13.8065C5.11539 13.9781 4.91171 14.1142 4.68754 14.207C4.46337 14.2999 4.22311 14.3477 3.98047 14.3477ZM3.98047 17.9688C3.38326 17.9688 2.79947 18.1458 2.30291 18.4776C1.80635 18.8094 1.41933 19.281 1.19079 19.8328C0.962246 20.3845 0.902449 20.9916 1.01896 21.5774C1.13547 22.1631 1.42305 22.7011 1.84534 23.1234C2.26763 23.5457 2.80566 23.8333 3.39139 23.9498C3.97712 24.0663 4.58425 24.0065 5.13599 23.778C5.68774 23.5494 6.15933 23.1624 6.49112 22.6658C6.82291 22.1693 7 21.5855 7 20.9883C6.99897 20.1878 6.68051 19.4203 6.11446 18.8543C5.54841 18.2882 4.78098 17.9698 3.98047 17.9688ZM3.98047 22.8359C3.61504 22.8359 3.25781 22.7276 2.95397 22.5246C2.65012 22.3215 2.4133 22.033 2.27346 21.6953C2.13361 21.3577 2.09702 20.9862 2.16832 20.6278C2.23961 20.2694 2.41558 19.9402 2.67398 19.6818C2.93238 19.4234 3.2616 19.2474 3.62001 19.1761C3.97842 19.1048 4.34992 19.1414 4.68754 19.2813C5.02515 19.4211 5.31372 19.6579 5.51674 19.9618C5.71976 20.2656 5.82813 20.6228 5.82813 20.9883C5.83019 21.2322 5.78392 21.4742 5.69199 21.7001C5.60006 21.9261 5.46429 22.1317 5.29252 22.3049C5.12074 22.4781 4.91636 22.6156 4.69117 22.7094C4.46597 22.8033 4.22443 22.8516 3.98047 22.8516V22.8359ZM11.6875 5.79688H22.2344C22.4782 5.80823 22.7217 5.77001 22.9503 5.68454C23.179 5.59906 23.3878 5.4681 23.5644 5.29959C23.7409 5.13107 23.8815 4.92849 23.9775 4.70411C24.0735 4.47973 24.123 4.2382 24.123 3.99414C24.123 3.75008 24.0735 3.50855 23.9775 3.28417C23.8815 3.05979 23.7409 2.85721 23.5644 2.68869C23.3878 2.52018 23.179 2.38922 22.9503 2.30375C22.7217 2.21827 22.4782 2.18005 22.2344 2.19141H11.6875C11.2239 2.21299 10.7864 2.41235 10.466 2.74806C10.1455 3.08378 9.96675 3.53004 9.96675 3.99414C9.96675 4.45824 10.1455 4.9045 10.466 5.24022C10.7864 5.57593 11.2239 5.77529 11.6875 5.79688ZM11.6875 3.36328H22.2344C22.3214 3.35643 22.4089 3.36765 22.4914 3.39625C22.5738 3.42484 22.6495 3.47019 22.7136 3.52944C22.7777 3.58869 22.8288 3.66056 22.8638 3.74054C22.8988 3.82051 22.9169 3.90685 22.9169 3.99414C22.9169 4.08143 22.8988 4.16777 22.8638 4.24775C22.8288 4.32772 22.7777 4.39959 22.7136 4.45884C22.6495 4.51809 22.5738 4.56344 22.4914 4.59203C22.4089 4.62063 22.3214 4.63185 22.2344 4.625H11.6875C11.5288 4.6125 11.3806 4.54061 11.2725 4.42368C11.1644 4.30675 11.1044 4.15337 11.1044 3.99414C11.1044 3.83491 11.1644 3.68153 11.2725 3.5646C11.3806 3.44767 11.5288 3.37578 11.6875 3.36328ZM22.2344 10.6953H11.6875C11.2089 10.6953 10.7498 10.8854 10.4114 11.2239C10.0729 11.5623 9.88281 12.0214 9.88281 12.5C9.88281 12.9786 10.0729 13.4377 10.4114 13.7761C10.7498 14.1146 11.2089 14.3047 11.6875 14.3047H22.2344C22.713 14.3047 23.172 14.1146 23.5105 13.7761C23.8489 13.4377 24.0391 12.9786 24.0391 12.5C24.0391 12.0214 23.8489 11.5623 23.5105 11.2239C23.172 10.8854 22.713 10.6953 22.2344 10.6953ZM22.2344 13.1328H11.6875C11.5197 13.1328 11.3587 13.0661 11.24 12.9475C11.1214 12.8288 11.0547 12.6678 11.0547 12.5C11.0547 12.3322 11.1214 12.1712 11.24 12.0525C11.3587 11.9339 11.5197 11.8672 11.6875 11.8672H22.2344C22.4022 11.8672 22.5632 11.9339 22.6818 12.0525C22.8005 12.1712 22.8672 12.3322 22.8672 12.5C22.8672 12.6678 22.8005 12.8288 22.6818 12.9475C22.5632 13.0661 22.4022 13.1328 22.2344 13.1328ZM22.2344 19.1992H11.6875C11.2239 19.2208 10.7864 19.4202 10.466 19.7559C10.1455 20.0916 9.96675 20.5379 9.96675 21.002C9.96675 21.4661 10.1455 21.9123 10.466 22.248C10.7864 22.5837 11.2239 22.7831 11.6875 22.8047H22.2344C22.4782 22.816 22.7217 22.7778 22.9503 22.6923C23.179 22.6069 23.3878 22.4759 23.5644 22.3074C23.7409 22.1389 23.8815 21.9363 23.9775 21.7119C24.0735 21.4875 24.123 21.246 24.123 21.002C24.123 20.7579 24.0735 20.5164 23.9775 20.292C23.8815 20.0676 23.7409 19.865 23.5644 19.6965C23.3878 19.528 23.179 19.397 22.9503 19.3116C22.7217 19.2261 22.4782 19.1879 22.2344 19.1992ZM22.2344 21.6328H11.6875C11.5288 21.6203 11.3806 21.5484 11.2725 21.4315C11.1644 21.3146 11.1044 21.1612 11.1044 21.002C11.1044 20.8427 11.1644 20.6893 11.2725 20.5724C11.3806 20.4555 11.5288 20.3836 11.6875 20.3711H22.2344C22.3214 20.3642 22.4089 20.3755 22.4914 20.4041C22.5738 20.4327 22.6495 20.478 22.7136 20.5373C22.7777 20.5965 22.8288 20.6684 22.8638 20.7483C22.8988 20.8283 22.9169 20.9147 22.9169 21.002C22.9169 21.0892 22.8988 21.1756 22.8638 21.2556C22.8288 21.3355 22.7777 21.4074 22.7136 21.4667C22.6495 21.5259 22.5738 21.5713 22.4914 21.5998C22.4089 21.6284 22.3214 21.6397 22.2344 21.6328Z" fill="#231F20"/>
</g>
<defs>
<clipPath id="clip0_340_2590">
<rect width="25" height="25" fill="white"/>
</clipPath>
</defs>
</svg>
