<svg width="17" height="18" viewBox="0 0 17 18" fill="none" xmlns="http://www.w3.org/2000/svg">
<g clip-path="url(#clip0_290_1705)">
<path d="M3.12655 0.587311C2.25135 0.587311 1.53931 1.29922 1.53931 2.17445V15.8255C1.53931 16.7007 2.25135 17.4127 3.12655 17.4127H13.8734C14.7486 17.4127 15.4607 16.7008 15.4607 15.8255V2.17445C15.4607 1.29925 14.7487 0.587311 13.8734 0.587311H3.12655ZM11.1482 1.11312H12.8268V6.57526L12.2962 6.04458C12.1258 5.87391 11.8496 5.87378 11.679 6.04444L11.1482 6.57513V1.11312ZM4.58735 16.8869H3.12655C2.54121 16.8869 2.06508 16.4108 2.06508 15.8255V2.17445C2.06508 1.58922 2.54118 1.11312 3.12655 1.11312H4.58735V16.8869ZM14.9349 2.17445V15.8255C14.9349 16.4108 14.4588 16.8869 13.8734 16.8869H5.11313V1.11312H10.6224V6.79131C10.6224 7.18175 11.0942 7.373 11.367 7.09977L11.9874 6.4795L12.6078 7.09977C12.8824 7.3743 13.3526 7.17943 13.3526 6.79131V1.11312H13.8734C14.4588 1.11312 14.9349 1.58922 14.9349 2.17445Z" fill="white"/>
<path d="M13.0898 11.8713H7.23678C7.16705 11.8713 7.10018 11.899 7.05088 11.9483C7.00158 11.9976 6.97388 12.0645 6.97388 12.1342C6.97388 12.2039 7.00158 12.2708 7.05088 12.3201C7.10018 12.3694 7.16705 12.3971 7.23678 12.3971H13.0898C13.1595 12.3971 13.2264 12.3694 13.2757 12.3201C13.325 12.2708 13.3527 12.2039 13.3527 12.1342C13.3527 12.0645 13.325 11.9976 13.2757 11.9483C13.2264 11.899 13.1595 11.8713 13.0898 11.8713ZM13.0898 13.6253H7.23678C7.16705 13.6253 7.10018 13.653 7.05088 13.7023C7.00158 13.7516 6.97388 13.8185 6.97388 13.8882C6.97388 13.958 7.00158 14.0248 7.05088 14.0741C7.10018 14.1234 7.16705 14.1511 7.23678 14.1511H13.0898C13.1595 14.1511 13.2264 14.1234 13.2757 14.0741C13.325 14.0248 13.3527 13.958 13.3527 13.8882C13.3527 13.8185 13.325 13.7516 13.2757 13.7023C13.2264 13.653 13.1595 13.6253 13.0898 13.6253Z" fill="white"/>
</g>
<defs>
<clipPath id="clip0_290_1705">
<rect width="17" height="17" fill="white" transform="translate(0 0.5)"/>
</clipPath>
</defs>
</svg>
