<svg width="25" height="26" viewBox="0 0 25 26" fill="none" xmlns="http://www.w3.org/2000/svg">
<g clip-path="url(#clip0_335_499)">
<path d="M18.0664 18.4147C18.6057 18.4147 19.043 17.9775 19.043 17.4381C19.043 16.8988 18.6057 16.4615 18.0664 16.4615C17.5271 16.4615 17.0898 16.8988 17.0898 17.4381C17.0898 17.9775 17.5271 18.4147 18.0664 18.4147Z" fill="white"/>
<path d="M22.4609 18.2194C23.0003 18.2194 23.4375 17.7822 23.4375 17.2428V13.6295C23.4375 11.4756 21.6852 9.72327 19.5312 9.72327H18.3576V6.27922C18.3576 3.11658 15.7291 0.543579 12.4982 0.543579C9.26733 0.543579 6.63882 3.11658 6.63882 6.27922V9.72327H5.46875C3.31484 9.72327 1.5625 11.4756 1.5625 13.6295V21.6373C1.5625 23.7912 3.31484 25.5436 5.46875 25.5436H19.5312C21.6852 25.5436 23.4375 23.7912 23.4375 21.6373C23.4375 21.098 23.0003 20.6608 22.4609 20.6608C21.9216 20.6608 21.4844 21.098 21.4844 21.6373C21.4844 22.7143 20.6082 23.5905 19.5312 23.5905H5.46875C4.3918 23.5905 3.51562 22.7143 3.51562 21.6373V13.6295C3.51562 12.5526 4.3918 11.6764 5.46875 11.6764H19.5312C20.6082 11.6764 21.4844 12.5526 21.4844 13.6295V17.2428C21.4844 17.7822 21.9216 18.2194 22.4609 18.2194ZM16.4044 9.72327H8.59194V6.27922C8.59194 4.19353 10.3443 2.4967 12.4982 2.4967C14.6521 2.4967 16.4044 4.19353 16.4044 6.27922V9.72327Z" fill="white"/>
<path d="M10.6934 18.4147C11.2327 18.4147 11.6699 17.9775 11.6699 17.4381C11.6699 16.8988 11.2327 16.4615 10.6934 16.4615C10.154 16.4615 9.7168 16.8988 9.7168 17.4381C9.7168 17.9775 10.154 18.4147 10.6934 18.4147Z" fill="white"/>
<path d="M7.03125 18.4147C7.57059 18.4147 8.00781 17.9775 8.00781 17.4381C8.00781 16.8988 7.57059 16.4615 7.03125 16.4615C6.49191 16.4615 6.05469 16.8988 6.05469 17.4381C6.05469 17.9775 6.49191 18.4147 7.03125 18.4147Z" fill="white"/>
<path d="M14.3555 18.4147C14.8948 18.4147 15.332 17.9775 15.332 17.4381C15.332 16.8988 14.8948 16.4615 14.3555 16.4615C13.8161 16.4615 13.3789 16.8988 13.3789 17.4381C13.3789 17.9775 13.8161 18.4147 14.3555 18.4147Z" fill="white"/>
</g>
<defs>
<clipPath id="clip0_335_499">
<rect width="25" height="25" fill="white" transform="translate(0 0.543579)"/>
</clipPath>
</defs>
</svg>
