<svg width="50" height="50" viewBox="0 0 50 50" fill="none" xmlns="http://www.w3.org/2000/svg">
<g clip-path="url(#clip0_271_314)">
<path d="M16.781 24.1986L17.3423 22.7248H21.1113L21.6668 24.1966C21.7191 24.3354 21.8125 24.455 21.9346 24.5394C22.0566 24.6238 22.2015 24.6691 22.3499 24.6691C22.468 24.6691 22.5843 24.6405 22.6889 24.5856C22.7935 24.5308 22.8832 24.4514 22.9504 24.3542C23.0176 24.257 23.0601 24.145 23.0745 24.0278C23.0888 23.9106 23.0745 23.7916 23.0328 23.6811L20.0869 15.8749C20.0844 15.8681 20.0817 15.8616 20.0791 15.855C20.0109 15.688 19.8944 15.5452 19.7445 15.4448C19.5947 15.3444 19.4183 15.291 19.2379 15.2914H19.237C19.0534 15.2911 18.8741 15.3466 18.7228 15.4505C18.5715 15.5544 18.4553 15.7018 18.3895 15.8731L15.4166 23.6791C15.3824 23.7687 15.3663 23.8641 15.3691 23.9599C15.3718 24.0558 15.3935 24.1501 15.4327 24.2376C15.4719 24.325 15.528 24.4039 15.5977 24.4697C15.6674 24.5355 15.7494 24.587 15.839 24.6211C16.02 24.69 16.2209 24.6842 16.3975 24.6049C16.5742 24.5257 16.7121 24.3795 16.781 24.1986ZM19.2355 17.7543L20.5603 21.2646H17.8986L19.2355 17.7543ZM33.4631 23.8217V15.9043C33.4631 15.7106 33.3862 15.5249 33.2493 15.388C33.1124 15.2511 32.9267 15.1742 32.7331 15.1742C32.5394 15.1742 32.3537 15.2511 32.2168 15.388C32.0799 15.5249 32.003 15.7106 32.003 15.9043V23.8217C32.003 24.0153 32.0799 24.201 32.2168 24.3379C32.3537 24.4748 32.5394 24.5517 32.7331 24.5517C32.9267 24.5517 33.1124 24.4748 33.2493 24.3379C33.3862 24.201 33.4631 24.0153 33.4631 23.8217ZM25.3284 24.6688C25.522 24.6688 25.7077 24.5919 25.8446 24.455C25.9815 24.3181 26.0584 24.1324 26.0584 23.9387V21.2258C26.5584 21.223 27.196 21.22 27.5329 21.22C29.1917 21.22 30.5411 19.8901 30.5411 18.2556C30.5411 16.6212 29.1917 15.2913 27.5329 15.2913H25.3284C24.9694 15.283 24.5832 15.6104 24.5983 16.0214V23.9388C24.5983 24.0347 24.6172 24.1297 24.6538 24.2182C24.6905 24.3068 24.7443 24.3873 24.8121 24.4551C24.8799 24.5229 24.9604 24.5766 25.049 24.6133C25.1376 24.65 25.2325 24.6688 25.3284 24.6688ZM27.5329 16.7514C28.372 16.7514 29.0809 17.4403 29.0809 18.2556C29.0809 19.071 28.372 19.7598 27.5329 19.7598C27.1976 19.7598 26.5685 19.7629 26.0697 19.7655C26.067 19.2521 26.064 18.598 26.064 18.2556C26.064 17.9658 26.0623 17.286 26.0607 16.7514H27.5329Z" fill="#BD3A4A"/>
<path d="M29.6763 43.2779C29.4826 43.2779 29.2969 43.3549 29.16 43.4918C29.0231 43.6287 28.9462 43.8144 28.9462 44.008V47.7791C28.9462 48.1986 28.6049 48.5399 28.1854 48.5399H21.8147C21.3952 48.5399 21.054 48.1986 21.054 47.7791V43.8444C21.054 43.381 20.7402 42.9747 20.2907 42.8564C18.683 42.4334 17.1403 41.7939 15.7048 40.9556C15.5098 40.8417 15.2826 40.7955 15.0586 40.8243C14.8346 40.853 14.6264 40.9551 14.4665 41.1146L11.6832 43.8977C11.5396 44.0413 11.3485 44.1205 11.1453 44.1205C10.9421 44.1205 10.7511 44.0414 10.6073 43.8977L6.10234 39.3928C5.95869 39.2491 5.87949 39.058 5.87949 38.8548C5.87949 38.6516 5.95869 38.4605 6.10244 38.3168L8.88525 35.534C9.04489 35.3741 9.14709 35.1659 9.17589 34.9418C9.20469 34.7177 9.15846 34.4904 9.04443 34.2954C8.20615 32.8599 7.56671 31.3171 7.14365 29.7095C7.02549 29.2602 6.61924 28.9464 6.15576 28.9464H2.22109C1.80156 28.9464 1.46025 28.6051 1.46025 28.1856V21.8147C1.46025 21.3952 1.80166 21.054 2.22109 21.054H6.15576C6.61924 21.054 7.02539 20.7402 7.14365 20.2908C7.56672 18.6833 8.20612 17.1406 9.04434 15.7052C9.27881 15.3038 9.21357 14.7943 8.88555 14.4666L6.10234 11.6834C5.95869 11.5397 5.87949 11.3487 5.87949 11.1455C5.87949 10.9423 5.95869 10.7513 6.10244 10.6075L10.6073 6.10264C10.6778 6.03175 10.7616 5.97555 10.854 5.9373C10.9463 5.89905 11.0454 5.8795 11.1453 5.87979C11.3484 5.87979 11.5396 5.95889 11.6833 6.10264L14.4666 8.88584C14.7943 9.21338 15.3036 9.27881 15.7049 9.04463C17.1404 8.20633 18.6832 7.56689 20.2908 7.14385C20.7401 7.02568 21.054 6.61943 21.054 6.15586V2.221C21.054 1.80146 21.3953 1.46016 21.8147 1.46016H28.1854C28.605 1.46016 28.9462 1.80146 28.9462 2.221V6.15566C28.9462 6.61914 29.26 7.02539 29.7095 7.14365C31.3171 7.56668 32.8599 8.20615 34.2954 9.04453C34.6967 9.27871 35.206 9.21338 35.5337 8.88555L38.3169 6.10244C38.4605 5.95879 38.6516 5.87959 38.8548 5.87959C39.058 5.87959 39.249 5.95869 39.3929 6.10254L39.838 6.54756C39.9054 6.61728 39.9859 6.67289 40.075 6.71114C40.1641 6.7494 40.2599 6.76953 40.3568 6.77036C40.4538 6.77119 40.5499 6.75271 40.6397 6.71599C40.7294 6.67927 40.8109 6.62505 40.8794 6.5565C40.948 6.48794 41.0022 6.40642 41.0389 6.31669C41.0756 6.22696 41.0941 6.13082 41.0933 6.03387C41.0924 5.93693 41.0723 5.84112 41.034 5.75204C40.9958 5.66296 40.9401 5.5824 40.8704 5.51504L40.4254 5.07002C40.0059 4.65049 39.4481 4.41943 38.8549 4.41943C38.2616 4.41943 37.7039 4.65049 37.2846 5.07002L34.7387 7.61582C33.3708 6.8479 31.9165 6.24514 30.4064 5.82021V2.221C30.4063 0.996387 29.41 0 28.1854 0H21.8146C20.59 0 19.5937 0.996387 19.5937 2.221V5.82012C18.0836 6.24505 16.6293 6.84781 15.2614 7.61572L12.7156 5.07002C12.2962 4.65049 11.7385 4.41943 11.1452 4.41943C10.552 4.41943 9.99424 4.65049 9.57471 5.07002L5.07002 9.5748C4.65049 9.99434 4.41943 10.5521 4.41943 11.1453C4.41943 11.7386 4.65049 12.2963 5.06992 12.7157L7.61572 15.2616C6.84791 16.6295 6.24519 18.0837 5.82021 19.5937H2.22109C0.996387 19.5936 0 20.5898 0 21.8146V28.1854C0 29.4101 0.996387 30.4064 2.22109 30.4064H5.82021C6.24521 31.9164 6.84793 33.3707 7.61572 34.7386L5.06992 37.2844C4.65049 37.7039 4.41943 38.2616 4.41943 38.8549C4.41943 39.4481 4.65049 40.0059 5.06992 40.4254L9.5748 44.9303C9.99434 45.3498 10.5521 45.5809 11.1453 45.5809C11.7386 45.5809 12.2963 45.3498 12.7156 44.9303L15.2615 42.3845C16.6294 43.1524 18.0837 43.7551 19.5938 44.1801V47.7792C19.5938 49.0038 20.5901 50.0002 21.8147 50.0002H28.1854C29.4101 50.0002 30.4064 49.0038 30.4064 47.7792V44.0081C30.4064 43.8145 30.3295 43.6287 30.1926 43.4918C30.0556 43.3549 29.8699 43.278 29.6763 43.2779Z" fill="#231F20"/>
<path d="M10.953 27.5302C10.882 27.1333 10.502 26.8688 10.1058 26.9401C10.0114 26.957 9.92127 26.9923 9.84053 27.044C9.7598 27.0957 9.69003 27.1628 9.63523 27.2415C9.58043 27.3202 9.54167 27.4089 9.52115 27.5025C9.50063 27.5962 9.49876 27.693 9.51565 27.7874C10.8572 35.2873 17.3693 40.7307 25 40.7307C33.674 40.7307 40.7308 33.674 40.7308 25C40.7308 16.3259 33.674 9.26929 25 9.26929C16.7251 9.26929 9.82962 15.7315 9.30178 23.9811C9.29566 24.0768 9.30844 24.1727 9.33939 24.2634C9.37035 24.3542 9.41887 24.4379 9.48219 24.5099C9.61007 24.6553 9.79045 24.7439 9.98367 24.7562C10.1769 24.7686 10.3671 24.7037 10.5125 24.5758C10.6578 24.448 10.7464 24.2676 10.7588 24.0744C11.2378 16.5913 17.4932 10.7294 25 10.7294C32.8689 10.7294 39.2706 17.1312 39.2706 25C39.2706 28.9244 37.6782 32.4836 35.1057 35.0661V30.4482C35.5294 30.1978 35.8146 29.7376 35.8146 29.2098C35.8146 28.4151 35.1703 27.7708 34.3756 27.7708C33.5809 27.7708 32.9366 28.4151 32.9366 29.2098C32.9366 29.7376 33.2218 30.1979 33.6455 30.4483V36.3456C32.9044 36.9119 32.1096 37.4044 31.2726 37.816V35.4139C31.7013 35.1648 31.9903 34.7017 31.9903 34.1701C31.9903 33.3753 31.346 32.7311 30.5513 32.7311C29.7566 32.7311 29.1123 33.3753 29.1123 34.1701C29.1123 34.6943 29.3935 35.1516 29.8123 35.4032V38.4348C29.0793 38.6984 28.3256 38.9009 27.5592 39.0404V33.0034L29.4857 31.0769C29.5991 30.9642 29.689 30.83 29.7503 30.6823C29.8115 30.5345 29.8428 30.3761 29.8423 30.2162V26.9347C30.266 26.6843 30.5512 26.2242 30.5512 25.6962C30.5512 24.9015 29.907 24.2573 29.1122 24.2573C28.3175 24.2573 27.6733 24.9015 27.6733 25.6962C27.6733 26.2241 27.9583 26.6843 28.3822 26.9347V30.1154L26.4553 32.0422C26.342 32.155 26.2521 32.289 26.191 32.4367C26.1298 32.5844 26.0986 32.7428 26.0991 32.9026V39.2287C25.7363 39.2564 25.3698 39.2706 24.9999 39.2706C24.6337 39.2706 24.2705 39.2559 23.9105 39.2288V33.0341C24.3342 32.7837 24.6194 32.3236 24.6194 31.7957C24.6194 31.0009 23.9751 30.3567 23.1804 30.3567C22.3857 30.3567 21.7414 31.0009 21.7414 31.7957C21.7414 32.3235 22.0265 32.7837 22.4503 33.0341V39.0436C21.7763 38.922 21.1119 38.752 20.4623 38.5347V36.2388C20.4623 35.9139 20.3358 35.6083 20.106 35.3784L18.1792 33.4517V30.2709C18.603 30.0206 18.8881 29.5604 18.8881 29.0326C18.8881 28.2378 18.2439 27.5936 17.4491 27.5936C16.6544 27.5936 16.0102 28.2378 16.0102 29.0326C16.0102 29.5604 16.2953 30.0207 16.7191 30.271V33.5525C16.7191 33.8774 16.8456 34.183 17.0754 34.4129L19.0022 36.3396V37.9556C14.8848 36.0529 11.7951 32.2386 10.953 27.5302Z" fill="#BD3A4A"/>
<path d="M47.779 19.5936H44.1799C43.755 18.0836 43.1522 16.6294 42.3844 15.2615L44.9301 12.7157C45.3496 12.2962 45.5807 11.7385 45.5807 11.1452C45.5807 10.552 45.3496 9.99426 44.9301 9.57483L43.3937 8.0385C43.3263 7.96878 43.2457 7.91317 43.1566 7.87491C43.0676 7.83666 42.9718 7.81653 42.8748 7.8157C42.7779 7.81487 42.6817 7.83335 42.592 7.87007C42.5023 7.90679 42.4208 7.96101 42.3522 8.02956C42.2837 8.09812 42.2294 8.17964 42.1927 8.26937C42.156 8.3591 42.1376 8.45524 42.1384 8.55218C42.1392 8.64913 42.1594 8.74494 42.1976 8.83402C42.2359 8.92309 42.2915 9.00366 42.3612 9.07102L43.8977 10.6074C44.0413 10.7511 44.1205 10.9421 44.1205 11.1453C44.1205 11.3486 44.0413 11.5396 43.8976 11.6833L41.1147 14.4663C40.9551 14.6262 40.8529 14.8345 40.8241 15.0585C40.7953 15.2826 40.8416 15.5099 40.9556 15.7049C41.7938 17.1405 42.4333 18.6832 42.8564 20.2908C42.9746 20.7401 43.3809 21.0538 43.8442 21.0538H47.7789C48.1984 21.0538 48.5398 21.3951 48.5398 21.8146V28.1855C48.5398 28.605 48.1984 28.9462 47.7789 28.9462H43.8442C43.3808 28.9462 42.9745 29.26 42.8564 29.7094C42.4333 31.317 41.7939 32.8596 40.9557 34.295C40.7211 34.6965 40.7864 35.206 41.1145 35.5337L43.8976 38.3168C44.0413 38.4606 44.1205 38.6516 44.1205 38.8548C44.1205 39.058 44.0413 39.249 43.8976 39.3928L39.3927 43.8977C39.3222 43.9686 39.2384 44.0247 39.146 44.063C39.0537 44.1013 38.9547 44.1208 38.8547 44.1205C38.7547 44.1208 38.6557 44.1012 38.5634 44.063C38.471 44.0247 38.3872 43.9686 38.3167 43.8977L35.5337 41.1148C35.3737 40.9552 35.1654 40.8531 34.9413 40.8244C34.7172 40.7956 34.4899 40.8418 34.2948 40.9558C33.8323 41.2258 33.3582 41.4755 32.8738 41.7042C32.7868 41.745 32.7087 41.8025 32.644 41.8735C32.5793 41.9444 32.5292 42.0275 32.4966 42.1179C32.464 42.2083 32.4496 42.3042 32.4542 42.4001C32.4588 42.4961 32.4822 42.5902 32.5232 42.6771C32.5642 42.7639 32.622 42.8419 32.6932 42.9064C32.7644 42.9709 32.8476 43.0207 32.9381 43.053C33.0285 43.0853 33.1245 43.0994 33.2204 43.0945C33.3164 43.0897 33.4104 43.0659 33.4972 43.0246C33.9182 42.8258 34.3321 42.6122 34.7382 42.3843L37.2841 44.93C37.7035 45.3495 38.2612 45.5806 38.8545 45.5806C39.4478 45.5806 40.0055 45.3495 40.425 44.93L44.9298 40.4252C45.3493 40.0057 45.5804 39.448 45.5804 38.8547C45.5804 38.2614 45.3493 37.7037 44.9299 37.2842L42.3841 34.7384C43.1519 33.3705 43.7546 31.9163 44.1796 30.4063H47.7787C49.0034 30.4063 49.9998 29.41 49.9998 28.1853V21.8144C50 20.5899 49.0037 19.5936 47.779 19.5936Z" fill="#231F20"/>
</g>
<defs>
<clipPath id="clip0_271_314">
<rect width="50" height="50" fill="white"/>
</clipPath>
</defs>
</svg>
