<svg width="51" height="50" viewBox="0 0 51 50" fill="none" xmlns="http://www.w3.org/2000/svg">
<g clip-path="url(#clip0_322_655)">
<path d="M21.3333 50C17.0272 50 13.5208 46.4958 13.5208 42.1875C13.5208 41.325 14.2208 40.625 15.0833 40.625C15.9458 40.625 16.6458 41.325 16.6458 42.1875C16.6458 44.7731 18.75 46.875 21.3333 46.875C23.9166 46.875 26.0208 44.7731 26.0208 42.1875C26.0208 41.325 26.7208 40.625 27.5833 40.625C28.4458 40.625 29.1458 41.325 29.1458 42.1875C29.1458 46.4958 25.6397 50 21.3333 50Z" fill="#231F20"/>
<path d="M38.5207 43.75H4.1457C2.13535 43.75 0.500001 42.1146 0.500001 40.1043C0.499676 39.5777 0.613477 39.0574 0.833567 38.579C1.05366 38.1006 1.37481 37.6756 1.7749 37.3333C1.82715 37.2875 1.8833 37.2459 1.9416 37.2082C4.99981 34.5395 6.75 30.6999 6.75 26.6457V20.8332C6.75 12.7918 13.2938 6.25 21.3332 6.25C21.6666 6.25 22.0271 6.25605 22.3605 6.3125C23.2123 6.4541 23.7876 7.26055 23.6457 8.11035C23.5041 8.96035 22.6832 9.53564 21.8479 9.39365C21.6812 9.3666 21.498 9.375 21.3332 9.375C15.0168 9.375 9.875 14.5146 9.875 20.8332V26.6457C9.875 31.6792 7.66856 36.4418 3.82715 39.7102C3.7959 39.7354 3.76885 39.7583 3.73526 39.7812C3.66287 39.8732 3.62399 39.9872 3.625 40.1043C3.625 40.3873 3.8627 40.625 4.1457 40.625H38.5207C38.8041 40.625 39.0418 40.3873 39.0418 40.1043C39.0418 39.9582 38.9876 39.8521 38.9293 39.7812C38.898 39.7583 38.8709 39.7354 38.8396 39.7103C34.9959 36.4396 32.7918 31.6792 32.7918 26.6457V24.3752C32.7918 23.5127 33.4918 22.8127 34.3543 22.8127C35.2168 22.8127 35.9168 23.5127 35.9168 24.3752V26.6457C35.9168 30.7022 37.6688 34.5437 40.7313 37.2146C40.7874 37.2521 40.8416 37.2918 40.8915 37.3355C41.2919 37.6772 41.6132 38.1017 41.8334 38.5798C42.0536 39.0578 42.1674 39.578 42.1668 40.1043C42.1668 42.1146 40.5314 43.75 38.5207 43.75Z" fill="#231F20"/>
<path d="M35.9168 20.8332C30.173 20.8332 25.5 16.1605 25.5 10.4168C25.5 4.67305 30.173 0 35.9168 0C41.6605 0 46.3332 4.67305 46.3332 10.4168C46.3332 16.1605 41.6605 20.8332 35.9168 20.8332ZM35.9168 3.125C31.8957 3.125 28.625 6.3957 28.625 10.4168C28.625 14.4375 31.8957 17.7082 35.9168 17.7082C39.9375 17.7082 43.2082 14.4375 43.2082 10.4168C43.2082 6.3957 39.9375 3.125 35.9168 3.125Z" fill="#BD3A4A"/>
</g>
<defs>
<clipPath id="clip0_322_655">
<rect width="50" height="50" fill="white" transform="translate(0.5)"/>
</clipPath>
</defs>
</svg>
